<?xml version="1.0" encoding="utf-8"?>
<!-- Generator: Adobe Illustrator 27.7.0, SVG Export Plug-In . SVG Version: 6.00 Build 0)  -->
<svg version="1.1" id="Ebene_1" xmlns="http://www.w3.org/2000/svg" xmlns:xlink="http://www.w3.org/1999/xlink" x="0px" y="0px"
	 viewBox="0 0 1144.85 1144.85" style="enable-background:new 0 0 1144.85 1144.85;" xml:space="preserve">
<style type="text/css">
	.st0{fill:#3A2D18;}
	.st1{fill-rule:evenodd;clip-rule:evenodd;fill:url(#SVGID_1_);}
	.st2{fill:#9F864A;}
	.st3{fill-rule:evenodd;clip-rule:evenodd;fill:url(#SVGID_00000051349048282453412660000000478286742410125965_);}
	.st4{fill-rule:evenodd;clip-rule:evenodd;fill:url(#SVGID_00000060005317510764029300000001663172191960139170_);}
	.st5{fill-rule:evenodd;clip-rule:evenodd;fill:url(#SVGID_00000127736568520216991370000011405285411329029248_);}
	.st6{fill-rule:evenodd;clip-rule:evenodd;fill:url(#SVGID_00000107582188789737891540000010225739398894785206_);}
	.st7{fill-rule:evenodd;clip-rule:evenodd;fill:url(#SVGID_00000087381130983483833150000004617952531032113798_);}
	.st8{fill-rule:evenodd;clip-rule:evenodd;fill:url(#SVGID_00000029748799713805826190000002888203671950309552_);}
	.st9{fill:#9F864C;}
</style>
<linearGradient id="SVGID_1_" gradientUnits="userSpaceOnUse" x1="777.4451" y1="927.5302" x2="367.4041" y2="217.3184">
	<stop  offset="0" style="stop-color:#AD9553"/>
	<stop  offset="0.2499" style="stop-color:#A38A4D"/>
	<stop  offset="0.5257" style="stop-color:#9F864A"/>
	<stop  offset="0.9916" style="stop-color:#AD9553"/>
	<stop  offset="1" style="stop-color:#AD9553"/>
</linearGradient>
<path class="st1" d="M572.42,162.39c226.31,0,410.03,183.73,410.03,410.03S798.73,982.46,572.42,982.46
	c-226.3,0-410.03-183.73-410.03-410.03S346.12,162.39,572.42,162.39L572.42,162.39z M683.51,387.94
	c78.8,108.1,156.41,276.57,129.49,323.49c-40.65,70.85-441.34,76.93-481.14,7.47c-9.18-16.02-5.42-47.19,6.78-85.71
	c70.28,26.26,349.52,66.92,348.55-60.77c-0.61-80.94-107.77-53.19-93.8-118.15C603.19,408.73,683.2,388.02,683.51,387.94
	L683.51,387.94z M675.39,377.01c-0.33,0.09-83.4,22.07-96.65,70.31c-21.22,77.22,85.14,65.46,92.43,113.25
	c18.72,122.73-259.56,84.32-327.89,58.79c45.47-129.14,172.94-324.66,232.46-325.59C601,293.39,637.92,327.66,675.39,377.01
	L675.39,377.01z"/>
</svg>
