<?xml version="1.0" encoding="utf-8"?>
<!-- Generator: Adobe Illustrator 27.7.0, SVG Export Plug-In . SVG Version: 6.00 Build 0)  -->
<svg version="1.1" id="Ebene_1" xmlns="http://www.w3.org/2000/svg" xmlns:xlink="http://www.w3.org/1999/xlink" x="0px" y="0px"
	 viewBox="0 0 1144.85 1348.96" style="enable-background:new 0 0 1144.85 1348.96;" xml:space="preserve">
<style type="text/css">
	.st0{fill:#3A2D18;}
	.st1{fill-rule:evenodd;clip-rule:evenodd;fill:url(#SVGID_1_);}
	.st2{fill:#9F864A;}
	.st3{fill-rule:evenodd;clip-rule:evenodd;fill:url(#SVGID_00000073713891820609211050000015530500795751612295_);}
	.st4{fill-rule:evenodd;clip-rule:evenodd;fill:url(#SVGID_00000135684161351519260500000010452186925145849734_);}
	.st5{fill-rule:evenodd;clip-rule:evenodd;fill:url(#SVGID_00000075132228921235576050000010290550420883932848_);}
	.st6{fill-rule:evenodd;clip-rule:evenodd;fill:url(#SVGID_00000090994972511299246300000016554962788384803244_);}
	.st7{fill-rule:evenodd;clip-rule:evenodd;fill:url(#SVGID_00000124142633064918372900000005222781769073328283_);}
	.st8{fill:#9F864C;}
</style>
<g>
	<g>
		<path class="st0" d="M156.69,1213.96c22.9,0,41.56-13.57,41.56-36.47c0-45.16-60.21-34.13-60.21-60.21
			c0-9.97,7.84-14.63,17.17-14.63c8.48,0,16.11,3.82,21.84,11.02l14.63-13.35c-8.05-9.97-21.41-16.97-36.47-16.97
			c-19.93,0-37.95,12.51-37.95,35.41c0,42.19,60.21,31.8,60.21,58.73c0,10.39-8.69,16.54-20.57,16.54
			c-12.93,0-22.68-7.21-27.14-18.02l-17.81,10.81C119.38,1202.72,136.35,1213.96,156.69,1213.96L156.69,1213.96z"/>
		<path class="st0" d="M352.58,1212.26h22.48l-46.01-127.21h-23.11l-46.01,127.21h22.47l9.12-26.93h51.95L352.58,1212.26
			L352.58,1212.26z M297.67,1167.1l19.93-59.36l19.93,59.36H297.67L297.67,1167.1z"/>
		<path class="st0" d="M515.19,1147.81c10.39-5.09,16.96-14.63,16.96-28.2c0-20.99-16.33-34.56-36.67-34.56h-50.04v127.21h54.7
			c20.14,0,36.26-13.15,36.26-34.14C536.39,1162.64,527.7,1152.47,515.19,1147.81L515.19,1147.81z M511.37,1121.73
			c0,9.97-8.27,17.81-18.24,17.81H466v-35.2h27.14C503.1,1104.34,511.37,1111.55,511.37,1121.73L511.37,1121.73z M497.17,1192.97
			H466v-35.2h31.17c10.18,0,18.44,7.85,18.44,17.81C515.61,1185.55,507.34,1192.97,497.17,1192.97L497.17,1192.97z"/>
		<path class="st0" d="M693.48,1212.26h22.47l-46-127.21h-23.11l-46,127.21h22.47l9.12-26.93h51.94L693.48,1212.26L693.48,1212.26z
			 M638.57,1167.1l19.93-59.36l19.93,59.36H638.57L638.57,1167.1z"/>
		<polygon class="st0" points="807.11,1192.97 807.11,1085.05 786.33,1085.05 786.33,1212.26 851.84,1212.26 851.84,1192.97 
			807.11,1192.97 		"/>
		<path class="st0" d="M1010.42,1212.26h22.47l-46-127.21h-23.11l-46,127.21h22.47l9.12-26.93h51.94L1010.42,1212.26
			L1010.42,1212.26z M955.5,1167.1l19.93-59.36l19.93,59.36H955.5L955.5,1167.1z"/>
	</g>
	<linearGradient id="SVGID_1_" gradientUnits="userSpaceOnUse" x1="777.2665" y1="900.1455" x2="367.2256" y2="189.9338">
		<stop  offset="0" style="stop-color:#AD9553"/>
		<stop  offset="0.2499" style="stop-color:#A38A4D"/>
		<stop  offset="0.5257" style="stop-color:#9F864A"/>
		<stop  offset="0.9916" style="stop-color:#AD9553"/>
		<stop  offset="1" style="stop-color:#AD9553"/>
	</linearGradient>
	<path class="st1" d="M572.25,135c226.31,0,410.03,183.73,410.03,410.03S798.55,955.07,572.25,955.07
		c-226.3,0-410.03-183.73-410.03-410.03S345.94,135,572.25,135L572.25,135z M683.34,360.56c78.8,108.1,156.41,276.57,129.49,323.49
		c-40.65,70.85-441.34,76.93-481.14,7.47c-9.18-16.02-5.42-47.19,6.78-85.71c70.28,26.26,349.52,66.92,348.55-60.77
		c-0.61-80.94-107.77-53.19-93.8-118.15C603.01,381.34,683.02,360.64,683.34,360.56L683.34,360.56z M675.22,349.63
		c-0.33,0.09-83.4,22.07-96.65,70.31c-21.22,77.22,85.14,65.46,92.43,113.25c18.72,122.73-259.56,84.32-327.89,58.79
		c45.47-129.14,172.94-324.66,232.46-325.59C600.82,266.01,637.74,300.28,675.22,349.63L675.22,349.63z"/>
</g>
</svg>
