<?xml version="1.0" encoding="utf-8"?>
<!-- Generator: Adobe Illustrator 27.7.0, SVG Export Plug-In . SVG Version: 6.00 Build 0)  -->
<svg version="1.1" id="Ebene_1" xmlns="http://www.w3.org/2000/svg" xmlns:xlink="http://www.w3.org/1999/xlink" x="0px" y="0px"
	 viewBox="0 0 1144.85 1460.63" style="enable-background:new 0 0 1144.85 1460.63;" xml:space="preserve">
<style type="text/css">
	.st0{fill:#3A2D18;}
	.st1{fill-rule:evenodd;clip-rule:evenodd;fill:url(#SVGID_1_);}
	.st2{fill:#9F864A;}
	.st3{fill-rule:evenodd;clip-rule:evenodd;fill:url(#SVGID_00000119088530902089469430000012469129828574609295_);}
	.st4{fill-rule:evenodd;clip-rule:evenodd;fill:url(#SVGID_00000117653203748963297450000016520175735364542864_);}
	.st5{fill-rule:evenodd;clip-rule:evenodd;fill:url(#SVGID_00000034771882389490189830000014887324617878085253_);}
	.st6{fill-rule:evenodd;clip-rule:evenodd;fill:url(#SVGID_00000003799645213065703880000016470976775786060688_);}
	.st7{fill-rule:evenodd;clip-rule:evenodd;fill:url(#SVGID_00000085224901059349145540000007717348830032998820_);}
	.st8{fill:#9F864C;}
</style>
<g>
	<g>
		<path class="st0" d="M156.69,1206.3c22.9,0,41.56-13.57,41.56-36.47c0-45.16-60.21-34.13-60.21-60.21
			c0-9.97,7.84-14.63,17.17-14.63c8.48,0,16.11,3.82,21.84,11.02l14.63-13.35c-8.05-9.97-21.41-16.97-36.47-16.97
			c-19.93,0-37.95,12.51-37.95,35.41c0,42.19,60.21,31.8,60.21,58.73c0,10.39-8.69,16.54-20.57,16.54
			c-12.93,0-22.68-7.21-27.14-18.02l-17.81,10.81C119.38,1195.06,136.35,1206.3,156.69,1206.3L156.69,1206.3z"/>
		<path class="st0" d="M352.58,1204.6h22.48l-46.01-127.21h-23.11l-46.01,127.21h22.47l9.12-26.93h51.95L352.58,1204.6
			L352.58,1204.6z M297.67,1159.44l19.93-59.36l19.93,59.36H297.67L297.67,1159.44z"/>
		<path class="st0" d="M515.19,1140.15c10.39-5.09,16.96-14.63,16.96-28.2c0-20.99-16.33-34.56-36.67-34.56h-50.04v127.21h54.7
			c20.14,0,36.26-13.15,36.26-34.14C536.39,1154.99,527.7,1144.81,515.19,1140.15L515.19,1140.15z M511.37,1114.07
			c0,9.97-8.27,17.81-18.24,17.81H466v-35.2h27.14C503.1,1096.68,511.37,1103.89,511.37,1114.07L511.37,1114.07z M497.17,1185.31
			H466v-35.2h31.17c10.18,0,18.44,7.85,18.44,17.81C515.61,1177.89,507.34,1185.31,497.17,1185.31L497.17,1185.31z"/>
		<path class="st0" d="M693.48,1204.6h22.47l-46-127.21h-23.11l-46,127.21h22.47l9.12-26.93h51.94L693.48,1204.6L693.48,1204.6z
			 M638.57,1159.44l19.93-59.36l19.93,59.36H638.57L638.57,1159.44z"/>
		<polygon class="st0" points="807.11,1185.31 807.11,1077.39 786.33,1077.39 786.33,1204.6 851.84,1204.6 851.84,1185.31 
			807.11,1185.31 		"/>
		<path class="st0" d="M1010.42,1204.6h22.47l-46-127.21h-23.11l-46,127.21h22.47l9.12-26.93h51.94L1010.42,1204.6L1010.42,1204.6z
			 M955.5,1159.44l19.93-59.36l19.93,59.36H955.5L955.5,1159.44z"/>
	</g>
	<linearGradient id="SVGID_1_" gradientUnits="userSpaceOnUse" x1="777.2665" y1="892.4878" x2="367.2256" y2="182.2761">
		<stop  offset="0" style="stop-color:#AD9553"/>
		<stop  offset="0.2499" style="stop-color:#A38A4D"/>
		<stop  offset="0.5257" style="stop-color:#9F864A"/>
		<stop  offset="0.9916" style="stop-color:#AD9553"/>
		<stop  offset="1" style="stop-color:#AD9553"/>
	</linearGradient>
	<path class="st1" d="M572.25,127.35c226.31,0,410.03,183.73,410.03,410.03S798.55,947.42,572.25,947.42
		c-226.3,0-410.03-183.73-410.03-410.03S345.94,127.35,572.25,127.35L572.25,127.35z M683.34,352.9
		c78.8,108.1,156.41,276.57,129.49,323.49c-40.65,70.85-441.34,76.93-481.14,7.47c-9.18-16.02-5.42-47.19,6.78-85.71
		c70.28,26.26,349.52,66.92,348.55-60.77c-0.61-80.94-107.77-53.19-93.8-118.15C603.01,373.69,683.02,352.98,683.34,352.9
		L683.34,352.9z M675.22,341.97c-0.33,0.09-83.4,22.07-96.65,70.31c-21.22,77.22,85.14,65.46,92.43,113.25
		c18.72,122.73-259.56,84.32-327.89,58.79c45.47-129.14,172.94-324.66,232.46-325.59C600.82,258.35,637.74,292.62,675.22,341.97
		L675.22,341.97z"/>
	<g>
		<path class="st2" d="M672.01,1332.02l-11.59-33.51h-1.64h-10.45v33.51h-9.95v-84.9h20.41c7.23,0,12.68,1.83,16.38,5.48
			c3.69,3.65,5.54,8.51,5.54,14.55v11.46c0,8.9-3.61,14.86-10.84,17.89l13.1,35.52H672.01z M658.78,1289.57
			c7.98,0,11.97-3.7,11.97-11.08v-11.34c0-7.47-3.99-11.21-11.97-11.21h-10.45v33.64H658.78z"/>
		<path class="st2" d="M707.92,1298.89v14.49c0,7.39,3.78,11.08,11.34,11.08c7.56,0,11.34-3.69,11.34-11.08v-4.78h9.7v4.66
			c0,6.13-1.8,11-5.41,14.61c-3.61,3.61-8.82,5.42-15.62,5.42s-12.01-1.81-15.62-5.42c-3.61-3.61-5.42-8.48-5.42-14.61v-34.39
			c0-6.13,1.81-11,5.42-14.61c3.61-3.61,8.82-5.42,15.62-5.42s12.01,1.81,15.62,5.42c3.61,3.61,5.41,8.48,5.41,14.61v19.65h-0.25
			v0.38H707.92z M730.6,1278.74c0-7.39-3.78-11.08-11.34-11.08c-7.56,0-11.34,3.69-11.34,11.08v11.97h22.68V1278.74z"/>
		<path class="st2" d="M751.4,1260.09h8.06l2.52-13.98h6.93v13.98h14.61v8.56h-14.61v45.98c0,3.11,0.65,5.37,1.95,6.8
			c1.3,1.43,3.34,2.14,6.11,2.14c2.85,0,5.45-0.59,7.81-1.76v9.19c-2.35,1.01-5.37,1.51-9.07,1.51c-5.54,0-9.71-1.53-12.47-4.6
			c-2.78-3.07-4.16-7.41-4.16-13.04v-46.23h-7.68V1260.09z"/>
		<path class="st2" d="M823.08,1269.79c-1.26-0.34-2.94-0.51-5.04-0.51c-3.02,0-5.6,1.09-7.75,3.28c-2.14,2.18-3.21,5.04-3.21,8.56
			v50.89h-9.82v-71.93h9.45v9.19c0.51-2.44,1.93-4.64,4.29-6.61c2.35-1.97,5.54-2.96,9.57-2.96c1.18,0,2.02,0.04,2.52,0.13V1269.79z
			"/>
		<path class="st2" d="M843.25,1298.89v14.49c0,7.39,3.78,11.08,11.34,11.08c7.56,0,11.34-3.69,11.34-11.08v-4.78h9.7v4.66
			c0,6.13-1.8,11-5.41,14.61c-3.61,3.61-8.82,5.42-15.62,5.42s-12.01-1.81-15.62-5.42c-3.61-3.61-5.42-8.48-5.42-14.61v-34.39
			c0-6.13,1.81-11,5.42-14.61c3.61-3.61,8.82-5.42,15.62-5.42s12.01,1.81,15.62,5.42c3.61,3.61,5.41,8.48,5.41,14.61v19.65h-0.25
			v0.38H843.25z M865.92,1278.74c0-7.39-3.78-11.08-11.34-11.08c-7.56,0-11.34,3.69-11.34,11.08v11.97h22.68V1278.74z"/>
		<path class="st2" d="M891.26,1277.98c0-6.04,1.75-10.75,5.23-14.11c3.48-3.36,8.67-5.04,15.55-5.04c6.89,0,12.09,1.68,15.62,5.04
			c3.52,3.36,5.29,8.06,5.29,14.11v54.04h-9.57v-7.56c-0.84,2.35-2.5,4.33-4.98,5.92c-2.47,1.59-5.69,2.4-9.63,2.4
			c-6.05,0-10.61-1.49-13.67-4.47c-3.07-2.98-4.6-7.25-4.6-12.79v-3.65c0-8.31,4.95-14.11,14.86-17.38l17.89-5.67v-10.83
			c0-3.52-0.86-6.13-2.58-7.81c-1.72-1.68-4.6-2.52-8.63-2.52c-3.95,0-6.76,0.84-8.44,2.52c-1.68,1.68-2.52,4.29-2.52,7.81v4.16
			h-9.83V1277.98z M900.2,1315.02c0,6.38,3.48,9.57,10.45,9.57c4.37,0,7.56-1.03,9.58-3.09s3.02-4.73,3.02-8v-16l-13.98,4.28
			c-3.36,1.01-5.71,2.31-7.05,3.91s-2.02,3.7-2.02,6.3V1315.02z"/>
		<path class="st2" d="M944.68,1260.09h8.06l2.52-13.98h6.93v13.98h14.61v8.56H962.2v45.98c0,3.11,0.65,5.37,1.95,6.8
			c1.3,1.43,3.34,2.14,6.11,2.14c2.85,0,5.45-0.59,7.81-1.76v9.19c-2.35,1.01-5.37,1.51-9.07,1.51c-5.54,0-9.71-1.53-12.47-4.6
			c-2.78-3.07-4.16-7.41-4.16-13.04v-46.23h-7.68V1260.09z"/>
		<path class="st2" d="M1016.24,1295.24c7.89,3.61,11.84,9.03,11.84,16.25v2.9c0,6.04-1.74,10.71-5.23,13.98
			c-3.48,3.27-8.67,4.91-15.55,4.91c-6.8,0-11.91-1.66-15.31-4.98c-3.4-3.32-5.1-8-5.1-14.05v-3.4h9.7v3.53c0,3.44,0.82,6,2.46,7.68
			c1.63,1.68,4.39,2.52,8.25,2.52c3.95,0,6.8-0.82,8.56-2.46s2.65-4.18,2.65-7.62v-2.26c0-2.19-0.55-4.01-1.64-5.48
			c-1.09-1.47-2.98-2.79-5.67-3.97l-12.6-5.79c-7.39-3.45-11.08-9.07-11.08-16.88v-2.26c0-12.68,6.71-19.02,20.15-19.02
			c13.27,0,19.9,6.38,19.9,19.15v3.15h-9.57v-3.4c0-3.53-0.75-6.13-2.27-7.81c-1.51-1.68-4.19-2.52-8.06-2.52
			c-3.95,0-6.69,0.84-8.25,2.52c-1.56,1.68-2.33,4.28-2.33,7.81v1.64c0,4.78,2.35,8.19,7.06,10.2L1016.24,1295.24z"/>
	</g>
</g>
</svg>
