<?xml version="1.0" encoding="utf-8"?>
<!-- Generator: Adobe Illustrator 27.7.0, SVG Export Plug-In . SVG Version: 6.00 Build 0)  -->
<svg version="1.1" id="Ebene_1" xmlns="http://www.w3.org/2000/svg" xmlns:xlink="http://www.w3.org/1999/xlink" x="0px" y="0px"
	 viewBox="0 0 1144.85 1460.63" style="enable-background:new 0 0 1144.85 1460.63;" xml:space="preserve">
<style type="text/css">
	.st0{fill:#3A2D18;}
	.st1{fill-rule:evenodd;clip-rule:evenodd;fill:url(#SVGID_1_);}
	.st2{fill:#9F864A;}
	.st3{fill-rule:evenodd;clip-rule:evenodd;fill:url(#SVGID_00000029752638463390200340000016709769359344560005_);}
	.st4{fill-rule:evenodd;clip-rule:evenodd;fill:url(#SVGID_00000070820246181504182710000008438174962806253224_);}
	.st5{fill-rule:evenodd;clip-rule:evenodd;fill:url(#SVGID_00000141415516135623944320000013835151982237729983_);}
	.st6{fill-rule:evenodd;clip-rule:evenodd;fill:url(#SVGID_00000134939372079089464970000001953776523852747163_);}
	.st7{fill-rule:evenodd;clip-rule:evenodd;fill:url(#SVGID_00000060026831633652775580000010642895041141507460_);}
	.st8{fill:#9F864C;}
</style>
<g>
	<g>
		<path class="st0" d="M154.88,1195.58c22.9,0,41.56-13.57,41.56-36.47c0-45.16-60.21-34.13-60.21-60.21
			c0-9.97,7.84-14.63,17.17-14.63c8.48,0,16.11,3.82,21.84,11.02l14.63-13.35c-8.05-9.97-21.41-16.97-36.47-16.97
			c-19.93,0-37.95,12.51-37.95,35.41c0,42.19,60.21,31.8,60.21,58.73c0,10.39-8.69,16.54-20.57,16.54
			c-12.93,0-22.68-7.21-27.14-18.02l-17.81,10.81C117.57,1184.35,134.53,1195.58,154.88,1195.58L154.88,1195.58z"/>
		<path class="st0" d="M350.77,1193.89h22.48l-46.01-127.21h-23.11l-46.01,127.21h22.47l9.12-26.93h51.95L350.77,1193.89
			L350.77,1193.89z M295.86,1148.72l19.93-59.36l19.93,59.36H295.86L295.86,1148.72z"/>
		<path class="st0" d="M513.38,1129.43c10.39-5.09,16.96-14.63,16.96-28.2c0-20.99-16.33-34.56-36.67-34.56h-50.04v127.21h54.7
			c20.14,0,36.26-13.15,36.26-34.14C534.58,1144.27,525.89,1134.09,513.38,1129.43L513.38,1129.43z M509.56,1103.36
			c0,9.97-8.27,17.81-18.24,17.81h-27.14v-35.2h27.14C501.29,1085.97,509.56,1093.18,509.56,1103.36L509.56,1103.36z
			 M495.36,1174.59h-31.17v-35.2h31.17c10.18,0,18.44,7.85,18.44,17.81C513.8,1167.17,505.53,1174.59,495.36,1174.59L495.36,1174.59
			z"/>
		<path class="st0" d="M691.67,1193.89h22.47l-46-127.21h-23.11l-46,127.21h22.47l9.12-26.93h51.94L691.67,1193.89L691.67,1193.89z
			 M636.76,1148.72l19.93-59.36l19.93,59.36H636.76L636.76,1148.72z"/>
		<polygon class="st0" points="805.3,1174.59 805.3,1066.68 784.52,1066.68 784.52,1193.89 850.03,1193.89 850.03,1174.59 
			805.3,1174.59 		"/>
		<path class="st0" d="M1008.6,1193.89h22.47l-46-127.21h-23.11l-46,127.21h22.47l9.12-26.93h51.94L1008.6,1193.89L1008.6,1193.89z
			 M953.69,1148.72l19.93-59.36l19.93,59.36H953.69L953.69,1148.72z"/>
	</g>
	<linearGradient id="SVGID_1_" gradientUnits="userSpaceOnUse" x1="775.456" y1="881.7719" x2="365.4151" y2="171.5601">
		<stop  offset="0" style="stop-color:#AD9553"/>
		<stop  offset="0.2499" style="stop-color:#A38A4D"/>
		<stop  offset="0.5257" style="stop-color:#9F864A"/>
		<stop  offset="0.9916" style="stop-color:#AD9553"/>
		<stop  offset="1" style="stop-color:#AD9553"/>
	</linearGradient>
	<path class="st1" d="M570.44,116.63c226.31,0,410.03,183.73,410.03,410.03S796.74,936.7,570.44,936.7
		c-226.3,0-410.03-183.73-410.03-410.03S344.13,116.63,570.44,116.63L570.44,116.63z M681.53,342.18
		c78.8,108.1,156.41,276.57,129.49,323.49c-40.65,70.85-441.34,76.93-481.14,7.47c-9.18-16.02-5.42-47.19,6.78-85.71
		c70.28,26.26,349.52,66.92,348.55-60.77c-0.61-80.94-107.77-53.19-93.8-118.15C601.2,362.97,681.21,342.27,681.53,342.18
		L681.53,342.18z M673.4,331.26c-0.33,0.09-83.4,22.07-96.65,70.31c-21.22,77.22,85.14,65.46,92.43,113.25
		c18.72,122.73-259.56,84.32-327.89,58.79c45.47-129.14,172.94-324.66,232.46-325.59C599.01,247.64,635.93,281.9,673.4,331.26
		L673.4,331.26z"/>
	<g>
		<path class="st2" d="M542.25,1281.81c0,1.04-0.26,1.82-0.78,2.34c-0.52,0.52-1.13,0.78-1.82,0.78c-1.27,0-2.25-0.63-2.94-1.9
			c-3.47-5.77-6.24-10.66-8.31-14.64c-2.08-3.98-3.12-7.88-3.12-11.69c0-2.89,0.69-5.92,2.08-9.1c1.39-3.17,3.64-6.78,6.76-10.82
			c1.27-1.73,3.12-3.67,5.54-5.8c2.43-2.14,5.11-4.13,8.06-5.98c2.94-1.85,5.98-3.38,9.09-4.59c3.12-1.21,6-1.82,8.66-1.82
			c3.69,0,6.61,1.42,8.75,4.25c2.14,2.83,3.2,7.82,3.2,14.98c0,4.04-0.34,7.94-1.04,11.69c-0.69,3.76-1.62,7.19-2.77,10.31
			l0.87-0.87c3.92-4.39,7.76-7.73,11.52-10.05c3.75-2.31,6.95-3.47,9.61-3.47c6.12,0,9.18,5.6,9.18,16.8c0,6-0.81,12.04-2.43,18.1
			c-1.61,6.06-3.06,12.04-4.33,17.93l-0.69,1.9c0.58-0.58,1.07-1.19,1.47-1.82c0.4-0.63,0.9-1.24,1.47-1.82
			c0.23-0.35,0.61-0.84,1.13-1.47c0.52-0.64,1.5-1.93,2.94-3.9c1.44-1.96,3.61-4.91,6.5-8.83c2.88-3.92,6.81-9.29,11.78-16.11
			c0.34-0.23,0.72-0.34,1.13-0.34c0.4,0,0.72,0,0.95,0c1.61,0,2.8,0.81,3.55,2.42c0.75,1.62,1.12,3.47,1.12,5.55
			c0,2.42-0.26,4.88-0.78,7.36c-0.52,2.49-0.9,4.71-1.13,6.67c-0.58,5.2-1.21,10.54-1.9,16.02c-0.69,5.49-1.04,11-1.04,16.54
			c0,3.01,0.14,5.95,0.43,8.83c0.29,2.88,0.84,5.71,1.64,8.49l2.77,0.87c1.04,0.93,1.56,1.85,1.56,2.77c0,0.69-0.29,1.3-0.87,1.82
			c-0.58,0.52-1.44,0.78-2.6,0.78c-0.58,0-1.5-0.23-2.77-0.69c-1.27-0.46-2.2-1.04-2.77-1.73c-1.62-1.97-2.71-4.91-3.29-8.83
			c-0.58-3.93-0.87-8.31-0.87-13.17c0-3.12,0.08-6.26,0.26-9.44c0.18-3.17,0.4-6.21,0.69-9.09c0.29-2.88,0.55-5.57,0.78-8.06
			c0.23-2.48,0.46-4.53,0.69-6.15l0.52-6.58c-2.08,3.12-4.59,6.84-7.54,11.17c-2.94,4.33-5.95,8.43-9.01,12.3
			c-3.06,3.87-5.86,7.19-8.4,9.96c-2.54,2.77-4.39,4.15-5.54,4.15c-1.38,0-2.49-0.66-3.29-1.99c-0.81-1.33-1.21-2.92-1.21-4.76
			c0-2.43,0.29-5.37,0.87-8.83c0.58-3.47,1.27-6.98,2.08-10.57c0.81-3.58,1.62-7.01,2.43-10.31c0.81-3.29,1.5-5.98,2.08-8.05
			c0.93-3.7,1.39-7.39,1.39-11.08c0-0.93-0.06-1.9-0.17-2.94c-0.12-1.04-0.29-2.02-0.52-2.95c-0.93,0-2.2,0.72-3.81,2.17
			c-1.62,1.45-3.26,3.09-4.94,4.94c-1.67,1.85-3.23,3.67-4.68,5.46c-1.45,1.79-2.4,3.09-2.86,3.89c-2.77,4.05-5.31,8.26-7.62,12.64
			c-2.31,4.39-4.65,8.78-7.02,13.17c-2.37,4.39-4.88,8.66-7.53,12.82c-2.66,4.16-5.72,7.97-9.18,11.43
			c-1.38,0.81-2.54,1.21-3.46,1.21c-3.24,0-5.03-1.85-5.37-5.54c0.11-2.08,0.63-4.27,1.56-6.58c0.93-2.31,1.96-4.65,3.12-7.01
			c1.15-2.37,2.36-4.65,3.64-6.85c1.27-2.19,2.36-4.21,3.29-6.06c2.08-4.27,3.84-7.82,5.29-10.66c1.44-2.83,2.77-5.57,3.98-8.22
			c1.22-2.66,2.37-5.51,3.47-8.57c1.1-3.06,2.28-6.84,3.55-11.35c0.81-2.77,1.45-5.57,1.91-8.4c0.46-2.83,0.69-5.51,0.69-8.05
			c0-3.23-0.43-5.86-1.3-7.89c-0.87-2.02-2.45-3.03-4.76-3.03c-1.62,0-3.49,0.55-5.63,1.64c-2.14,1.1-4.71,2.85-7.71,5.28
			c-5.43,4.73-9.39,9.27-11.87,13.6c-2.49,4.33-3.72,8.34-3.72,12.04s0.92,7.39,2.77,11.08
			C537.52,1273.21,539.71,1277.31,542.25,1281.81z"/>
		<path class="st2" d="M667.66,1285.97c-1.15,2.43-2.4,4.85-3.72,7.27c-1.33,2.43-2.83,4.68-4.5,6.76
			c-1.68,2.08-3.52,3.89-5.54,5.45c-2.02,1.56-4.31,2.69-6.84,3.38c0,2.43,0.34,4.82,1.04,7.19c0.69,2.37,2.14,3.55,4.33,3.55
			c0.58,0,1.18-0.05,1.82-0.17c0.63-0.11,1.36-0.46,2.17-1.04c0.69-0.35,1.7-0.98,3.03-1.9c1.32-0.93,2.77-1.99,4.33-3.2
			c1.56-1.22,3.06-2.54,4.5-3.99c1.44-1.44,2.51-2.91,3.2-4.42c0.34-0.81,0.87-1.21,1.56-1.21c0.81,0,1.56,0.34,2.25,1.04
			c0.69,0.69,1.04,1.5,1.04,2.42c0,0.81-0.69,2.08-2.08,3.81c-1.39,1.73-2.98,3.52-4.76,5.37c-1.79,1.85-3.64,3.58-5.54,5.19
			c-1.9,1.62-3.38,2.66-4.42,3.12c-0.34,0.11-1.36,0.63-3.03,1.56c-1.68,0.93-3.09,1.39-4.25,1.39c-2.54,0-4.73-0.52-6.58-1.56
			c-1.85-1.04-3.38-2.42-4.59-4.15c-1.22-1.73-2.11-3.73-2.69-5.98c-0.58-2.25-0.87-4.59-0.87-7.02c-0.69-0.34-1.04-0.98-1.04-1.9
			c0-0.81,0.29-1.5,0.87-2.08c0-1.39,0.05-2.8,0.17-4.24c0.11-1.44,0.4-2.91,0.87-4.42c0.69-2.42,1.64-5.31,2.86-8.66
			c1.21-3.35,2.74-6.55,4.59-9.61c1.85-3.06,4.04-5.66,6.59-7.8c2.53-2.14,5.42-3.2,8.66-3.2c3.23,0,5.43,1.07,6.58,3.2
			c1.16,2.14,1.73,4.59,1.73,7.36c0,1.61-0.14,3.2-0.43,4.76C668.67,1283.81,668.24,1285.05,667.66,1285.97z M659.34,1278.7
			c-1.16,0.93-2.31,2.28-3.47,4.07c-1.15,1.79-2.2,3.73-3.12,5.8c-0.93,2.08-1.79,4.22-2.6,6.41c-0.81,2.2-1.45,4.22-1.9,6.06
			c1.39-1.27,3.12-3.7,5.2-7.27c0.46-0.81,1.04-1.82,1.73-3.03c0.69-1.22,1.32-2.54,1.9-3.99c0.58-1.44,1.09-2.85,1.56-4.24
			C659.11,1281.12,659.34,1279.85,659.34,1278.7z"/>
		<path class="st2" d="M700.91,1279.56c1.27,0.23,2.37,0.69,3.29,1.38l0.69-1.56c1.16-5.31,2.4-10.62,3.73-15.94
			c1.33-5.31,2.74-10.57,4.24-15.76c0.46-1.5,1.07-3.64,1.82-6.41c0.75-2.77,1.67-5.46,2.77-8.06c1.1-2.6,2.45-4.88,4.07-6.84
			c1.61-1.96,3.52-2.94,5.71-2.94c2.2,0,3.73,0.69,4.59,2.08c0.87,1.39,1.3,3.23,1.3,5.54c0,1.73-0.21,3.58-0.61,5.54
			c-0.41,1.97-0.87,3.93-1.39,5.89s-1.1,3.87-1.73,5.71c-0.63,1.85-1.19,3.52-1.64,5.03c-1.62,4.85-3.52,9.9-5.72,15.15
			c-2.2,5.26-4.79,10.48-7.79,15.68c-0.81,4.39-1.59,8.75-2.34,13.08c-0.75,4.33-1.47,8.69-2.17,13.08v-0.35
			c-0.12,1.16-0.23,2.31-0.35,3.47c-0.11,1.16-0.17,2.31-0.17,3.47c0,3,0.46,5.49,1.39,7.45c1.27,0,2.77-0.69,4.5-2.08
			c1.73-1.38,3.47-3,5.2-4.85c1.73-1.85,3.32-3.64,4.76-5.37s2.52-2.94,3.2-3.64c0.81-0.58,1.5-0.87,2.08-0.87
			c1.85,0,2.77,0.93,2.77,2.77c0,0.69-0.24,1.44-0.69,2.25c-1.96,2.08-3.9,4.22-5.8,6.41c-1.9,2.2-3.78,4.22-5.63,6.06
			c-1.85,1.85-3.64,3.38-5.37,4.59c-1.73,1.21-3.46,1.82-5.19,1.82c-1.62,0-3.01-0.55-4.16-1.64c-1.16-1.1-2.08-2.6-2.77-4.5
			c-0.69-1.9-1.19-4.16-1.47-6.76c-0.29-2.59-0.43-5.39-0.43-8.4c0-1.16,0-2.25,0-3.29s0.05-2.08,0.17-3.12
			c-1.39,1.85-3.06,3.95-5.03,6.32c-1.96,2.37-3.95,4.62-5.98,6.76c-2.02,2.14-4.01,3.92-5.98,5.36c-1.96,1.45-3.7,2.17-5.2,2.17
			h-0.86c-1.97-1.04-3.32-1.79-4.07-2.25c-0.75-0.46-1.25-1.5-1.48-3.12c0-4.27,0.78-8.75,2.34-13.42
			c1.56-4.68,3.61-8.92,6.15-12.73c2.54-3.81,5.39-6.95,8.57-9.44c3.17-2.49,6.43-3.73,9.78-3.73H700.91z M681.86,1312.82
			c3.58-3.7,7.01-7.85,10.31-12.47c3.29-4.62,6.43-9.47,9.44-14.55c-0.35-0.11-0.81-0.17-1.39-0.17h-0.17
			c-5.54,2.54-9.64,6.27-12.3,11.17C685.09,1301.71,683.13,1307.05,681.86,1312.82z M709.92,1308.49c-0.12,0.12-0.17,0.34-0.17,0.69
			C709.86,1309.07,709.92,1308.83,709.92,1308.49z M725.34,1242.84c0-0.11,0.03-0.2,0.09-0.26c0.05-0.06,0.08-0.15,0.08-0.26
			C725.4,1242.44,725.34,1242.61,725.34,1242.84v0.17V1242.84z"/>
		<path class="st2" d="M737.81,1283.2c1.39-1.73,2.6-2.6,3.64-2.6c1.27,0,1.9,1.1,1.9,3.29c-0.93,5.66-1.82,10.91-2.68,15.76
			c-0.87,4.85-1.3,8.78-1.3,11.78c0,3.23,0.63,4.91,1.9,5.03c0.81,0.34,1.73,0.52,2.77,0.52c2.77,0,5.89-0.81,9.35-2.42
			c3.47-1.62,6.41-3.7,8.83-6.24c0.69-0.23,1.22-0.35,1.56-0.35c0.81,0,1.5,0.29,2.08,0.87c0.58,0.58,0.87,1.27,0.87,2.08
			c0,0.58-0.29,1.27-0.87,2.08c-5.89,4.85-10.97,8.23-15.24,10.13c-4.27,1.9-7.91,2.85-10.91,2.85c-3.47,0-5.98-1.12-7.54-3.38
			c-1.56-2.25-2.34-5.11-2.34-8.57c0-6.35,0.87-11.98,2.6-16.89S735.96,1287.59,737.81,1283.2z M749.07,1251.67
			c0.58,0.93,0.87,1.79,0.87,2.6c0,1.04-0.32,1.93-0.95,2.68c-0.63,0.75-1.42,1.13-2.34,1.13c-0.93,0-1.76-0.43-2.51-1.3
			c-0.75-0.87-1.13-1.7-1.13-2.51c0-0.93,0.34-1.73,1.04-2.43c0.69-0.69,1.5-1.04,2.43-1.04
			C747.51,1250.81,748.38,1251.1,749.07,1251.67z"/>
		<path class="st2" d="M769.33,1297.92c0.35-3.81,0.78-7.54,1.3-11.17c0.52-3.64,1.18-7.3,1.99-11c-4.16,0.93-7.13,1.73-8.92,2.42
			c-1.79,0.69-3.15,1.04-4.07,1.04c-1.38,0-2.08-0.93-2.08-2.78c0-1.73,1.13-3.38,3.38-4.93c2.25-1.56,4.88-2.97,7.89-4.25
			c1.85-1.61,3.29-3.09,4.33-4.42c1.04-1.32,1.91-2.71,2.6-4.16c0.69-1.44,1.27-3.03,1.73-4.76c0.46-1.73,1.04-3.81,1.73-6.24
			c0.34-1.04,0.78-2.74,1.3-5.11s1.21-4.76,2.08-7.19s1.93-4.56,3.2-6.41c1.27-1.85,2.83-2.77,4.68-2.77c1.85,0,2.77,0.87,2.77,2.6
			c0,0.93-0.18,2.22-0.52,3.9s-0.84,3.84-1.47,6.49c-0.63,2.66-1.39,5.92-2.25,9.79c-0.87,3.87-1.82,8.46-2.85,13.77
			c1.15,0,2.25-0.02,3.29-0.08c1.04-0.06,2.08-0.09,3.12-0.09c1.27,0,2.8,0,4.59,0s3.52,0.09,5.2,0.26s3.09,0.49,4.24,0.95
			c1.16,0.47,1.73,1.22,1.73,2.25s-1.01,1.9-3.03,2.6c-2.02,0.69-4.39,1.33-7.1,1.9c-2.72,0.58-5.46,1.13-8.23,1.64
			c-2.77,0.52-4.91,1.07-6.41,1.65c-1.27,5.54-2.37,11.46-3.29,17.75c-0.93,6.3-1.38,12.21-1.38,17.75c0,0.69,0.02,1.62,0.08,2.77
			c0.06,1.16,0.11,2.34,0.18,3.55c0.05,1.22,0.17,2.25,0.34,3.12c0.17,0.87,0.43,1.3,0.78,1.3c1.27,0,3.9-1.88,7.88-5.63
			c3.99-3.75,8.23-9.15,12.73-16.19c0.58-0.58,1.27-0.87,2.08-0.87c0.81,0,1.5,0.26,2.08,0.78c0.58,0.52,0.87,1.19,0.87,1.99
			c0,0.58-0.29,1.27-0.87,2.08c-1.62,3.12-3.55,6.35-5.8,9.7c-2.25,3.35-4.59,6.35-7.02,9.01c-2.42,2.66-4.85,4.85-7.27,6.58
			c-2.42,1.73-4.68,2.6-6.75,2.6c-1.96,0-3.55-0.69-4.76-2.08c-1.21-1.39-2.2-3.06-2.94-5.03c-0.75-1.96-1.27-4.04-1.56-6.24
			c-0.29-2.19-0.43-4.15-0.43-5.89c0-2.31,0.09-4.56,0.26-6.76C768.9,1301.97,769.1,1299.89,769.33,1297.92z"/>
		<path class="st2" d="M833.25,1283.2c0,0.34-0.03,0.63-0.08,0.87c-0.06,0.23-0.15,0.46-0.26,0.69c0.23,0,0.43-0.03,0.61-0.09
			c0.17-0.05,0.37-0.09,0.61-0.09c1.61,0,2.83,0.55,3.64,1.65c0.81,1.1,1.22,2.57,1.22,4.42c-0.35,1.5-0.84,3.41-1.48,5.72
			c-0.63,2.31-1.3,4.71-1.99,7.19c-0.69,2.49-1.3,4.94-1.82,7.36c-0.52,2.42-0.78,4.56-0.78,6.41c0,1.04,0.11,2.02,0.34,2.94
			c1.73-0.11,3.35-0.81,4.85-2.08c1.5-1.27,2.94-2.63,4.33-4.07c1.39-1.44,2.66-2.77,3.81-3.99c1.15-1.21,2.19-1.82,3.12-1.82
			c1.85,0,2.77,0.93,2.77,2.77c0,0.69-0.23,1.44-0.69,2.25c-0.58,0.58-1.53,1.68-2.85,3.29c-1.33,1.62-2.86,3.29-4.59,5.03
			c-1.73,1.73-3.67,3.29-5.8,4.68c-2.14,1.38-4.24,2.08-6.32,2.08c-1.62,0-2.95-0.49-3.99-1.47c-1.04-0.98-1.82-2.22-2.34-3.73
			c-0.52-1.5-0.87-3.06-1.04-4.68c-0.17-1.61-0.26-3.12-0.26-4.5c-0.69,0.69-1.59,1.5-2.68,2.43c-1.1,0.93-2.28,1.85-3.55,2.77
			c-1.27,0.93-2.54,1.7-3.81,2.34c-1.27,0.64-2.37,0.95-3.29,0.95c-3.01,0-5.43-0.98-7.28-2.94c-1.85-1.96-2.77-4.68-2.77-8.14
			c0-4.85,0.72-9.52,2.17-14.03s3.32-8.52,5.63-12.04c2.31-3.52,4.88-6.32,7.71-8.4c2.83-2.08,5.57-3.12,8.23-3.12
			c2.53,0,4.62,0.87,6.24,2.59c1.61,1.73,2.42,3.76,2.42,6.06V1283.2z M811.08,1310.57c2.42-1.38,4.39-3.12,5.89-5.2
			c1.5-2.08,2.88-4.27,4.16-6.58c1.27-2.31,2.54-4.56,3.81-6.75c1.27-2.2,2.83-4.1,4.68-5.72c-1.27-0.46-1.9-1.38-1.9-2.77
			l-0.17-1.21l-3.99-1.39c-2.08,1.39-3.89,3.12-5.45,5.2c-1.56,2.08-2.86,4.36-3.9,6.84c-1.04,2.49-1.82,5.05-2.34,7.71
			c-0.52,2.66-0.78,5.26-0.78,7.8V1310.57z"/>
		<path class="st2" d="M863.04,1297.92c0.35-3.81,0.78-7.54,1.3-11.17c0.52-3.64,1.18-7.3,1.99-11c-4.16,0.93-7.13,1.73-8.92,2.42
			c-1.79,0.69-3.15,1.04-4.07,1.04c-1.38,0-2.08-0.93-2.08-2.78c0-1.73,1.13-3.38,3.38-4.93c2.25-1.56,4.88-2.97,7.89-4.25
			c1.85-1.61,3.29-3.09,4.33-4.42c1.04-1.32,1.91-2.71,2.6-4.16c0.69-1.44,1.27-3.03,1.73-4.76c0.46-1.73,1.04-3.81,1.73-6.24
			c0.34-1.04,0.78-2.74,1.3-5.11s1.21-4.76,2.08-7.19s1.93-4.56,3.2-6.41c1.27-1.85,2.83-2.77,4.68-2.77c1.85,0,2.77,0.87,2.77,2.6
			c0,0.93-0.18,2.22-0.52,3.9s-0.84,3.84-1.47,6.49c-0.63,2.66-1.39,5.92-2.25,9.79c-0.87,3.87-1.82,8.46-2.85,13.77
			c1.15,0,2.25-0.02,3.29-0.08c1.04-0.06,2.08-0.09,3.12-0.09c1.27,0,2.8,0,4.59,0c1.79,0,3.52,0.09,5.2,0.26s3.09,0.49,4.24,0.95
			c1.16,0.47,1.73,1.22,1.73,2.25s-1.01,1.9-3.03,2.6c-2.02,0.69-4.39,1.33-7.1,1.9c-2.72,0.58-5.46,1.13-8.23,1.64
			c-2.77,0.52-4.91,1.07-6.41,1.65c-1.27,5.54-2.37,11.46-3.29,17.75c-0.93,6.3-1.38,12.21-1.38,17.75c0,0.69,0.02,1.62,0.08,2.77
			c0.06,1.16,0.11,2.34,0.18,3.55c0.05,1.22,0.17,2.25,0.34,3.12c0.17,0.87,0.43,1.3,0.78,1.3c1.27,0,3.9-1.88,7.88-5.63
			c3.99-3.75,8.23-9.15,12.73-16.19c0.58-0.58,1.27-0.87,2.08-0.87s1.5,0.26,2.08,0.78c0.58,0.52,0.87,1.19,0.87,1.99
			c0,0.58-0.29,1.27-0.87,2.08c-1.62,3.12-3.55,6.35-5.8,9.7c-2.25,3.35-4.59,6.35-7.02,9.01c-2.42,2.66-4.85,4.85-7.27,6.58
			c-2.42,1.73-4.68,2.6-6.75,2.6c-1.96,0-3.55-0.69-4.76-2.08c-1.21-1.39-2.2-3.06-2.94-5.03c-0.75-1.96-1.27-4.04-1.56-6.24
			c-0.29-2.19-0.43-4.15-0.43-5.89c0-2.31,0.09-4.56,0.26-6.76C862.61,1301.97,862.81,1299.89,863.04,1297.92z"/>
		<path class="st2" d="M908.95,1283.2c1.39-1.73,2.6-2.6,3.64-2.6c1.27,0,1.9,1.1,1.9,3.29c-0.93,5.66-1.82,10.91-2.68,15.76
			c-0.87,4.85-1.3,8.78-1.3,11.78c0,3.23,0.63,4.91,1.9,5.03c0.81,0.34,1.73,0.52,2.77,0.52c2.77,0,5.89-0.81,9.35-2.42
			c3.47-1.62,6.41-3.7,8.83-6.24c0.69-0.23,1.22-0.35,1.56-0.35c0.81,0,1.5,0.29,2.08,0.87c0.58,0.58,0.87,1.27,0.87,2.08
			c0,0.58-0.29,1.27-0.87,2.08c-5.89,4.85-10.97,8.23-15.24,10.13s-7.91,2.85-10.91,2.85c-3.47,0-5.98-1.12-7.54-3.38
			c-1.56-2.25-2.34-5.11-2.34-8.57c0-6.35,0.87-11.98,2.6-16.89S907.1,1287.59,908.95,1283.2z M920.21,1251.67
			c0.58,0.93,0.87,1.79,0.87,2.6c0,1.04-0.32,1.93-0.95,2.68c-0.63,0.75-1.42,1.13-2.34,1.13c-0.93,0-1.76-0.43-2.51-1.3
			c-0.75-0.87-1.13-1.7-1.13-2.51c0-0.93,0.34-1.73,1.04-2.43c0.69-0.69,1.5-1.04,2.43-1.04
			C918.65,1250.81,919.51,1251.1,920.21,1251.67z"/>
		<path class="st2" d="M955.37,1283.37c0,0.12,0.06,0.23,0.18,0.35c5.08-2.31,10.42-4.27,16.02-5.89c5.6-1.61,11.05-3.06,16.37-4.33
			c2.2,0,3.29,0.93,3.29,2.77c0,1.04-0.58,1.9-1.73,2.6c-3.7,1.5-7.33,3.03-10.91,4.59c-3.58,1.56-7.16,3.2-10.74,4.94
			c1.04,1.73,1.56,3.7,1.56,5.89c0,1.73-0.41,3.96-1.21,6.67c-0.81,2.72-1.94,5.4-3.38,8.06c-1.44,2.65-3.26,5.11-5.45,7.36
			c-2.2,2.25-4.68,3.9-7.45,4.94c-1.16,0.46-2.4,0.69-3.73,0.69c-1.33,0-2.68,0.12-4.07,0.34c-1.96-0.23-3.79-1.47-5.46-3.72
			c-1.67-2.25-2.51-4.94-2.51-8.06c0-2.42,0.55-5.39,1.64-8.92s2.46-6.93,4.07-10.22c1.62-3.29,3.32-6.12,5.11-8.49
			c1.79-2.36,3.43-3.55,4.94-3.55c1.04,0,1.9,0.52,2.59,1.56l0.87,2.25V1283.37z M953.98,1293.94c-1.96-1.04-3.12-2.37-3.47-3.99
			c-1.62,3.35-2.71,6.91-3.29,10.66c-0.58,3.75-0.87,7.42-0.87,11c1.85-0.23,3.52-1.18,5.03-2.85c1.5-1.67,2.77-3.49,3.81-5.46
			c1.04-1.96,1.88-3.81,2.52-5.54c0.63-1.73,0.95-2.71,0.95-2.94v-0.35c-0.69-0.23-1.5-0.32-2.43-0.26
			C955.31,1294.26,954.56,1294.17,953.98,1293.94z"/>
		<path class="st2" d="M995.9,1281.3c0.11,1.38,0.23,2.77,0.34,4.15c0.11,1.39,0.18,2.78,0.18,4.16c0,0.34-0.03,0.72-0.09,1.13
			c-0.06,0.4-0.09,0.84-0.09,1.3c0.81-1.5,1.9-3.38,3.29-5.63s2.86-4.42,4.42-6.5c1.56-2.08,3.12-3.86,4.68-5.37
			c1.56-1.5,2.91-2.25,4.07-2.25c2.77,0,4.73,0.75,5.89,2.25c1.15,1.51,1.73,2.95,1.73,4.33c0,4.97-0.46,9.85-1.39,14.64
			c-0.93,4.79-1.38,9.61-1.38,14.46c0,1.27,0.02,2.54,0.09,3.81c0.05,1.27,0.2,2.54,0.43,3.81l2.78,2.08l9.52-2.94
			c0.69-0.23,1.15-0.35,1.39-0.35c1.96,0,2.94,0.93,2.94,2.78c0,0.81-0.61,1.67-1.82,2.59c-1.21,0.93-2.63,1.76-4.24,2.52
			c-1.62,0.75-3.26,1.36-4.94,1.82c-1.67,0.46-2.97,0.69-3.9,0.69c-3.23,0-6.03-1.67-8.4-5.03c-2.37-3.35-3.55-8.08-3.55-14.2
			c0-2.43,0.11-4.79,0.35-7.1c0.23-2.31,0.46-4.27,0.69-5.89c-2.2,2.89-4.15,5.95-5.89,9.18c-1.73,3.24-3.41,6.47-5.03,9.7
			c-0.58,1.04-1.16,2.28-1.73,3.73s-1.24,2.8-1.99,4.07c-0.75,1.27-1.65,2.34-2.69,3.2c-1.04,0.87-2.25,1.3-3.64,1.3
			c-1.27,0-2.31-0.4-3.12-1.22c-0.81-0.8-1.33-2.02-1.56-3.64c0-2.08,0.23-4.3,0.69-6.66c0.46-2.37,1.01-4.73,1.64-7.1
			c0.63-2.37,1.3-4.65,1.99-6.84c0.69-2.2,1.27-4.27,1.73-6.24v-0.17c0.11-1.04,0.2-2.28,0.26-3.73c0.06-1.44,0.18-2.83,0.35-4.16
			c0.17-1.32,0.46-2.45,0.87-3.38c0.4-0.92,1.13-1.38,2.17-1.38c1.5,0,2.42,0.69,2.77,2.08H995.9z"/>
	</g>
</g>
</svg>
