<?xml version="1.0" encoding="UTF-8"?> <svg xmlns="http://www.w3.org/2000/svg" xmlns:xlink="http://www.w3.org/1999/xlink" version="1.1" x="0px" y="0px" viewBox="0 0 312.8 147.5" style="enable-background:new 0 0 312.8 147.5;" xml:space="preserve"> <style type="text/css"> .Grün_x0020_bogenförmig{fill:url(#SVGID_1_);stroke:#FFFFFF;stroke-width:0.25;stroke-miterlimit:1;} .st0{fill:#EE7F00;} .st1{fill:#555454;} .st2{fill:#FFFFFF;} .st3{display:none;} .st4{display:inline;} .st5{fill:#E53939;} </style> <linearGradient id="SVGID_1_" gradientUnits="userSpaceOnUse" x1="167.2088" y1="372.5131" x2="167.9159" y2="371.806"> <stop offset="0" style="stop-color:#259E2E"></stop> <stop offset="0.9831" style="stop-color:#1C381D"></stop> </linearGradient> <g id="Ebene_1"> <g> <g> <path class="st0" d="M191,121.8c-33.6-33.6-34.4-66.4-2.4-98.4c32-32,64.8-31.2,98.4,2.4c33.5,33.5,34.3,66.3,2.3,98.3 C257.4,156,224.7,155.2,191,121.8z"></path> </g> </g> <g> <path class="st1" d="M2.3,60.6c0,0,6.4-6.6,18.2-6.6c7.2,0,14.9,3,14.9,12v22.6c0,5.2,4.4,10.5,4.4,10.5l-11,1.2 c0,0-2.2-2.4-3-5.4c-3.4,3.4-8.4,5.6-13.2,5.6C5.1,100.4,0,94.9,0,89c0-9.1,9.1-16.4,24.6-16.9v-1.7c0-6.1-2.3-8.7-5.9-8.7 c-6.9,0-11.9,6.5-11.9,6.5L2.3,60.6z M24.6,88.7v-8.9c-4.3,0.3-13.4,1.3-13.4,7.8c0,2.4,1.7,4.8,5.1,4.8 C19,92.4,22.7,90.6,24.6,88.7z"></path> <path class="st1" d="M46.6,98.7l-5.3-34.9l-2.7-8.2L50.7,54l3.9,26.6l0.3,7.4l3.7-7.4l6.8-11.2c1.4-2.3,2-4.4,2-6.5 c0-3.2-2.4-7.2-2.4-7.2L75.4,54c0,0,2,3.9,2,7.6c0,3.5-1.4,7.1-4.3,11.7l-17.2,27.2L46.6,98.7z"></path> <path class="st1" d="M87.4,80.6c0,6,3.3,10.7,8.7,10.7c7.3,0,14.4-7.8,14.4-7.8l0.7,10.3c0,0-5.8,6.7-17.3,6.7 c-11.9,0-17.3-8.9-17.3-19c0-14.7,9.3-27.4,23.4-27.4c8.9,0,13.1,4.5,13.1,10.5C113.1,76.4,100.1,80.1,87.4,80.6z M101.9,65.5 c0-2.6-1.5-3.8-3.2-3.8c-5.8,0-9.1,6.5-10.5,12C92.5,73.2,101.9,72.7,101.9,65.5z"></path> <path class="st1" d="M139.2,99.3l5.4-28.5c0.3-1.2,1.6-7.4-2-7.4c-4.6,0-11.8,6.6-11.8,6.6l-4.3,21.9l-0.6,7.4h-11.7l6.9-35 l-0.8-7.5l12.5-2.7l-1,7.2c0,0,6.5-7.3,14.7-7.3c8.9,0,11,6.7,9.5,14.3l-4.6,23.8l-0.5,7.2H139.2z"></path> </g> <g> <path class="st2" d="M213.1,84.7c-1.2,6-0.5,9,3.2,13l-10.2,1.4c-2.5-1.8-3.3-5.2-3.2-7l0.1-0.7c0,0-6.4,7.7-13,7.7 c-5.9,0-11.5-5.1-11.5-14.6c0-15.5,7.8-30,24.3-30c1.5,0,4,0.2,5.7,0.3l2.4-10.9v-8.3l12-1.3L213.1,84.7z M207,62.1 c-1.8-0.2-4.1-0.3-5.7-0.3c-8.4,0-12.1,13.6-12.1,21.6c0,5.2,1.8,7.5,3.4,7.5c3.7,0,10.3-7,10.3-7L207,62.1z"></path> <path class="st2" d="M258.5,71.3c0,14.7-8.7,27.8-23.4,27.8c-12.1,0-15-10-15-16.7c0-16.4,9.5-27.9,23.6-27.9 C252,54.5,258.5,60.4,258.5,71.3z M247.8,72.5c0-5.9-2.3-10.5-6.2-10.5c-6.4,0-11,10-11,18.8c0,6.3,1.9,10.6,6.2,10.6 C241.6,91.5,247.8,85.4,247.8,72.5z"></path> <path class="st2" d="M298.9,71.3c0,14.7-8.7,27.8-23.4,27.8c-12.1,0-15-10-15-16.7c0-16.4,9.5-27.9,23.6-27.9 C292.4,54.5,298.9,60.4,298.9,71.3z M288.2,72.5c0-5.9-2.3-10.5-6.2-10.5c-6.4,0-11,10-11,18.8c0,6.3,1.9,10.6,6.2,10.6 C282,91.5,288.2,85.4,288.2,72.5z"></path> </g> </g> <g id="Logoschutzzone" class="st3"> <g class="st4"> <path class="st5" d="M-37.6,60.9c0,0,6.4-6.6,18.2-6.6c7.2,0,14.9,3,14.9,12v22.6c0,5.2,4.4,10.5,4.4,10.5l-11,1.2 c0,0-2.2-2.4-3-5.4c-3.4,3.4-8.4,5.6-13.2,5.6c-7.6,0-12.7-5.6-12.7-11.4c0-9.1,9.1-16.4,24.6-16.9v-1.7c0-6.1-2.3-8.7-5.9-8.7 c-6.9,0-11.9,6.5-11.9,6.5L-37.6,60.9z M-15.2,88.9V80c-4.3,0.3-13.4,1.3-13.4,7.8c0,2.4,1.7,4.8,5.1,4.8 C-20.8,92.7-17.2,90.8-15.2,88.9z"></path> </g> <g class="st4"> <path class="st5" d="M225.2-39.8c0,0,6.4-6.6,18.2-6.6c7.2,0,14.9,3,14.9,12v22.6c0,5.2,4.4,10.5,4.4,10.5l-11,1.2 c0,0-2.2-2.4-3-5.4c-3.4,3.4-8.4,5.6-13.2,5.6C228.1,0,223-5.6,223-11.4c0-9.1,9.1-16.4,24.6-16.9V-30c0-6.1-2.3-8.7-5.9-8.7 c-6.9,0-11.9,6.5-11.9,6.5L225.2-39.8z M247.5-11.7v-8.9c-4.3,0.3-13.4,1.3-13.4,7.8c0,2.4,1.7,4.8,5.1,4.8 C242-8,245.6-9.8,247.5-11.7z"></path> </g> <g class="st4"> <path class="st5" d="M223.7,154.1c0,0,6.4-6.6,18.2-6.6c7.2,0,14.9,3,14.9,12v22.6c0,5.2,4.4,10.5,4.4,10.5l-11,1.2 c0,0-2.2-2.4-3-5.4c-3.4,3.4-8.4,5.6-13.2,5.6c-7.6,0-12.7-5.6-12.7-11.4c0-9.1,9.1-16.4,24.6-16.9V164c0-6.1-2.3-8.7-5.9-8.7 c-6.9,0-11.9,6.5-11.9,6.5L223.7,154.1z M246,182.2v-8.9c-4.3,0.3-13.4,1.3-13.4,7.8c0,2.4,1.7,4.8,5.1,4.8 C240.4,185.9,244.1,184.1,246,182.2z"></path> </g> <g class="st4"> <path class="st5" d="M315.1,60.9c0,0,6.4-6.6,18.2-6.6c7.2,0,14.9,3,14.9,12v22.6c0,5.2,4.4,10.5,4.4,10.5l-11,1.2 c0,0-2.2-2.4-3-5.4c-3.4,3.4-8.4,5.6-13.2,5.6c-7.6,0-12.7-5.6-12.7-11.4c0-9.1,9.1-16.4,24.6-16.9v-1.7c0-6.1-2.3-8.7-5.9-8.7 c-6.9,0-11.9,6.5-11.9,6.5L315.1,60.9z M337.4,89v-8.9c-4.3,0.3-13.4,1.3-13.4,7.8c0,2.4,1.7,4.8,5.1,4.8 C331.8,92.7,335.4,90.9,337.4,89z"></path> </g> </g> </svg> 