<svg xmlns="http://www.w3.org/2000/svg" xmlns:xlink="http://www.w3.org/1999/xlink" width="1080" zoomAndPan="magnify" viewBox="0 0 810 809.999993" height="1080" preserveAspectRatio="xMidYMid meet" version="1.0"><defs><clipPath id="48bcf77aa3"><path d="M 176 64 L 631 64 L 631 520 L 176 520 Z M 176 64 " clip-rule="nonzero"/></clipPath><clipPath id="1bfb154f36"><path d="M 403.746094 64.71875 C 529.171875 64.71875 630.996094 166.59375 630.996094 292.074219 C 630.996094 417.554688 529.167969 519.4375 403.746094 519.4375 C 278.328125 519.4375 176.5 417.5625 176.5 292.082031 C 176.5 166.601562 278.320312 64.71875 403.746094 64.71875 Z M 465.316406 189.785156 C 508.988281 249.722656 552 343.136719 537.082031 369.15625 C 514.554688 408.441406 292.480469 411.8125 270.425781 373.296875 C 265.335938 364.414062 267.421875 347.132812 274.179688 325.773438 C 313.132812 340.332031 467.894531 362.878906 467.355469 292.074219 C 467.015625 247.195312 407.625 262.582031 415.371094 226.5625 C 420.796875 201.3125 465.136719 189.835938 465.316406 189.785156 Z M 460.808594 183.730469 C 460.628906 183.777344 414.589844 195.964844 407.246094 222.714844 C 395.484375 265.53125 454.429688 259.011719 458.472656 285.511719 C 468.847656 353.5625 314.617188 332.265625 276.746094 318.109375 C 301.949219 246.503906 372.59375 138.089844 405.582031 137.574219 C 419.582031 137.363281 440.042969 156.359375 460.808594 183.730469 Z M 460.808594 183.730469 " clip-rule="evenodd"/></clipPath><linearGradient x1="850.493985" gradientTransform="matrix(0.554221, 0, 0, 0.554487, 87.597537, 0.0497)" y1="1011.741618" x2="290.378374" gradientUnits="userSpaceOnUse" y2="41.592705" id="723972098d"><stop stop-opacity="1" stop-color="rgb(67.799377%, 58.399963%, 32.499695%)" offset="0"/><stop stop-opacity="1" stop-color="rgb(67.799377%, 58.399963%, 32.499695%)" offset="0.125"/><stop stop-opacity="1" stop-color="rgb(67.727661%, 58.320618%, 32.45697%)" offset="0.140625"/><stop stop-opacity="1" stop-color="rgb(67.49115%, 58.058167%, 32.316589%)" offset="0.15625"/><stop stop-opacity="1" stop-color="rgb(67.158508%, 57.691956%, 32.121277%)" offset="0.171875"/><stop stop-opacity="1" stop-color="rgb(66.824341%, 57.324219%, 31.924438%)" offset="0.1875"/><stop stop-opacity="1" stop-color="rgb(66.491699%, 56.958008%, 31.7276%)" offset="0.203125"/><stop stop-opacity="1" stop-color="rgb(66.159058%, 56.590271%, 31.530762%)" offset="0.21875"/><stop stop-opacity="1" stop-color="rgb(65.826416%, 56.222534%, 31.335449%)" offset="0.234375"/><stop stop-opacity="1" stop-color="rgb(65.492249%, 55.856323%, 31.138611%)" offset="0.25"/><stop stop-opacity="1" stop-color="rgb(65.159607%, 55.488586%, 30.941772%)" offset="0.265625"/><stop stop-opacity="1" stop-color="rgb(64.826965%, 55.122375%, 30.74646%)" offset="0.28125"/><stop stop-opacity="1" stop-color="rgb(64.494324%, 54.754639%, 30.549622%)" offset="0.296875"/><stop stop-opacity="1" stop-color="rgb(64.161682%, 54.388428%, 30.352783%)" offset="0.3125"/><stop stop-opacity="1" stop-color="rgb(63.847351%, 54.046631%, 30.14679%)" offset="0.34375"/><stop stop-opacity="1" stop-color="rgb(63.5849%, 53.762817%, 29.946899%)" offset="0.366023"/><stop stop-opacity="1" stop-color="rgb(63.468933%, 53.639221%, 29.855347%)" offset="0.375"/><stop stop-opacity="1" stop-color="rgb(63.352966%, 53.515625%, 29.762268%)" offset="0.40625"/><stop stop-opacity="1" stop-color="rgb(63.121033%, 53.268433%, 29.576111%)" offset="0.4375"/><stop stop-opacity="1" stop-color="rgb(62.889099%, 53.02124%, 29.389954%)" offset="0.46875"/><stop stop-opacity="1" stop-color="rgb(62.657166%, 52.774048%, 29.205322%)" offset="0.5"/><stop stop-opacity="1" stop-color="rgb(62.567139%, 52.679443%, 29.118347%)" offset="0.53125"/><stop stop-opacity="1" stop-color="rgb(62.716675%, 52.844238%, 29.203796%)" offset="0.546875"/><stop stop-opacity="1" stop-color="rgb(62.963867%, 53.115845%, 29.364014%)" offset="0.5625"/><stop stop-opacity="1" stop-color="rgb(63.21106%, 53.385925%, 29.524231%)" offset="0.578125"/><stop stop-opacity="1" stop-color="rgb(63.458252%, 53.656006%, 29.684448%)" offset="0.59375"/><stop stop-opacity="1" stop-color="rgb(63.705444%, 53.926086%, 29.844666%)" offset="0.609375"/><stop stop-opacity="1" stop-color="rgb(63.952637%, 54.196167%, 30.004883%)" offset="0.625"/><stop stop-opacity="1" stop-color="rgb(64.199829%, 54.466248%, 30.1651%)" offset="0.633977"/><stop stop-opacity="1" stop-color="rgb(64.323425%, 54.602051%, 30.245972%)" offset="0.640625"/><stop stop-opacity="1" stop-color="rgb(64.447021%, 54.736328%, 30.326843%)" offset="0.65625"/><stop stop-opacity="1" stop-color="rgb(64.694214%, 55.006409%, 30.487061%)" offset="0.671875"/><stop stop-opacity="1" stop-color="rgb(64.941406%, 55.276489%, 30.647278%)" offset="0.6875"/><stop stop-opacity="1" stop-color="rgb(65.190125%, 55.54657%, 30.807495%)" offset="0.703125"/><stop stop-opacity="1" stop-color="rgb(65.437317%, 55.818176%, 30.967712%)" offset="0.71875"/><stop stop-opacity="1" stop-color="rgb(65.684509%, 56.088257%, 31.12793%)" offset="0.734375"/><stop stop-opacity="1" stop-color="rgb(65.931702%, 56.358337%, 31.288147%)" offset="0.75"/><stop stop-opacity="1" stop-color="rgb(66.178894%, 56.628418%, 31.448364%)" offset="0.765625"/><stop stop-opacity="1" stop-color="rgb(66.426086%, 56.898499%, 31.608582%)" offset="0.78125"/><stop stop-opacity="1" stop-color="rgb(66.673279%, 57.168579%, 31.768799%)" offset="0.796875"/><stop stop-opacity="1" stop-color="rgb(66.920471%, 57.43866%, 31.929016%)" offset="0.8125"/><stop stop-opacity="1" stop-color="rgb(67.167664%, 57.70874%, 32.089233%)" offset="0.828125"/><stop stop-opacity="1" stop-color="rgb(67.414856%, 57.978821%, 32.249451%)" offset="0.84375"/><stop stop-opacity="1" stop-color="rgb(67.668152%, 58.256531%, 32.414246%)" offset="0.875"/><stop stop-opacity="1" stop-color="rgb(67.799377%, 58.399963%, 32.499695%)" offset="1"/></linearGradient></defs><rect x="-81" width="972" fill="#ffffff" y="-80.999999" height="971.999992" fill-opacity="1"/><rect x="-81" width="972" fill="#ffffff" y="-80.999999" height="971.999992" fill-opacity="1"/><path fill="#3a2d18" d="M 173.433594 662.984375 C 186.128906 662.984375 196.46875 655.460938 196.46875 642.761719 C 196.46875 617.71875 163.097656 623.835938 163.097656 609.375 C 163.097656 603.847656 167.445312 601.261719 172.613281 601.261719 C 177.316406 601.261719 181.542969 603.382812 184.71875 607.375 L 192.828125 599.972656 C 188.367188 594.441406 180.960938 590.5625 172.613281 590.5625 C 161.570312 590.5625 151.582031 597.5 151.582031 610.195312 C 151.582031 633.589844 184.953125 627.828125 184.953125 642.761719 C 184.953125 648.523438 180.136719 651.933594 173.550781 651.933594 C 166.386719 651.933594 160.980469 647.933594 158.511719 641.941406 L 148.640625 647.933594 C 152.757812 656.757812 162.15625 662.984375 173.433594 662.984375 Z M 173.433594 662.984375 " fill-opacity="1" fill-rule="nonzero"/><path fill="#3a2d18" d="M 282 662.046875 L 294.460938 662.046875 L 268.960938 591.511719 L 256.152344 591.511719 L 230.652344 662.046875 L 243.105469 662.046875 L 248.160156 647.113281 L 276.953125 647.113281 Z M 251.570312 637 L 262.613281 604.085938 L 273.660156 637 Z M 251.570312 637 " fill-opacity="1" fill-rule="nonzero"/><path fill="#3a2d18" d="M 372.125 626.304688 C 377.882812 623.480469 381.523438 618.191406 381.523438 610.667969 C 381.523438 599.027344 372.472656 591.503906 361.199219 591.503906 L 333.464844 591.503906 L 333.464844 662.039062 L 363.78125 662.039062 C 374.945312 662.039062 383.878906 654.75 383.878906 643.109375 C 383.875 634.53125 379.058594 628.886719 372.125 626.304688 Z M 370.007812 611.847656 C 370.007812 617.375 365.421875 621.722656 359.898438 621.722656 L 344.855469 621.722656 L 344.855469 602.207031 L 359.898438 602.207031 C 365.421875 602.207031 370.007812 606.203125 370.007812 611.847656 Z M 362.136719 651.34375 L 344.863281 651.34375 L 344.863281 631.828125 L 362.136719 631.828125 C 367.777344 631.828125 372.355469 636.179688 372.355469 641.703125 C 372.355469 647.230469 367.773438 651.34375 362.136719 651.34375 Z M 362.136719 651.34375 " fill-opacity="1" fill-rule="nonzero"/><path fill="#3a2d18" d="M 470.9375 662.046875 L 483.390625 662.046875 L 457.894531 591.511719 L 445.085938 591.511719 L 419.59375 662.046875 L 432.046875 662.046875 L 437.101562 647.113281 L 465.886719 647.113281 Z M 440.503906 637 L 451.550781 604.085938 L 462.59375 637 Z M 440.503906 637 " fill-opacity="1" fill-rule="nonzero"/><path fill="#3a2d18" d="M 533.910156 651.34375 L 533.910156 591.511719 L 522.394531 591.511719 L 522.394531 662.046875 L 558.703125 662.046875 L 558.703125 651.34375 Z M 533.910156 651.34375 " fill-opacity="1" fill-rule="nonzero"/><path fill="#3a2d18" d="M 646.585938 662.046875 L 659.039062 662.046875 L 633.542969 591.511719 L 620.734375 591.511719 L 595.242188 662.046875 L 607.695312 662.046875 L 612.75 647.113281 L 641.535156 647.113281 Z M 616.152344 637 L 627.199219 604.085938 L 638.242188 637 Z M 616.152344 637 " fill-opacity="1" fill-rule="nonzero"/><g clip-path="url(#48bcf77aa3)"><g clip-path="url(#1bfb154f36)"><path fill="url(#723972098d)" d="M 176.5 64.71875 L 176.5 519.4375 L 630.996094 519.4375 L 630.996094 64.71875 Z M 176.5 64.71875 " fill-rule="nonzero"/></g></g><path fill="#9f864a" d="M 388.125 710.796875 C 388.125 711.375 387.980469 711.804688 387.691406 712.09375 C 387.402344 712.382812 387.066406 712.527344 386.683594 712.527344 C 385.980469 712.527344 385.4375 712.175781 385.054688 711.472656 C 383.128906 708.273438 381.59375 705.5625 380.449219 703.355469 C 379.296875 701.148438 378.71875 698.984375 378.71875 696.875 C 378.71875 695.269531 379.101562 693.589844 379.871094 691.828125 C 380.640625 690.070312 381.890625 688.070312 383.617188 685.828125 C 384.320312 684.871094 385.347656 683.792969 386.6875 682.613281 C 388.035156 681.425781 389.519531 680.324219 391.15625 679.296875 C 392.785156 678.269531 394.46875 677.421875 396.195312 676.75 C 397.921875 676.082031 399.519531 675.742188 400.992188 675.742188 C 403.039062 675.742188 404.65625 676.53125 405.84375 678.097656 C 407.027344 679.667969 407.617188 682.433594 407.617188 686.40625 C 407.617188 688.644531 407.425781 690.808594 407.039062 692.886719 C 406.65625 694.972656 406.140625 696.875 405.503906 698.605469 L 405.988281 698.121094 C 408.160156 695.6875 410.289062 693.835938 412.371094 692.546875 C 414.449219 691.269531 416.222656 690.625 417.695312 690.625 C 421.089844 690.625 422.785156 693.730469 422.785156 699.941406 C 422.785156 703.265625 422.335938 706.617188 421.4375 709.976562 C 420.546875 713.335938 419.742188 716.652344 419.039062 719.917969 L 418.65625 720.972656 C 418.976562 720.648438 419.25 720.3125 419.46875 719.960938 C 419.691406 719.613281 419.96875 719.273438 420.285156 718.953125 C 420.414062 718.757812 420.625 718.488281 420.910156 718.136719 C 421.199219 717.785156 421.742188 717.066406 422.539062 715.976562 C 423.339844 714.890625 424.542969 713.253906 426.144531 711.078125 C 427.738281 708.90625 429.917969 705.929688 432.671875 702.148438 C 432.859375 702.019531 433.070312 701.957031 433.296875 701.957031 C 433.519531 701.957031 433.699219 701.957031 433.824219 701.957031 C 434.71875 701.957031 435.375 702.40625 435.792969 703.300781 C 436.207031 704.199219 436.414062 705.222656 436.414062 706.378906 C 436.414062 707.71875 436.269531 709.082031 435.980469 710.457031 C 435.691406 711.839844 435.480469 713.070312 435.355469 714.15625 C 435.03125 717.039062 434.683594 720 434.300781 723.039062 C 433.917969 726.085938 433.726562 729.140625 433.726562 732.210938 C 433.726562 733.878906 433.804688 735.511719 433.964844 737.109375 C 434.125 738.703125 434.429688 740.273438 434.871094 741.816406 L 436.40625 742.296875 C 436.984375 742.8125 437.273438 743.324219 437.273438 743.832031 C 437.273438 744.214844 437.113281 744.554688 436.789062 744.84375 C 436.46875 745.132812 435.992188 745.273438 435.347656 745.273438 C 435.027344 745.273438 434.519531 745.148438 433.8125 744.894531 C 433.109375 744.636719 432.59375 744.316406 432.277344 743.933594 C 431.378906 742.839844 430.777344 741.210938 430.457031 739.039062 C 430.132812 736.859375 429.972656 734.429688 429.972656 731.734375 C 429.972656 730.003906 430.015625 728.261719 430.117188 726.5 C 430.21875 724.742188 430.339844 723.058594 430.5 721.460938 C 430.660156 719.863281 430.804688 718.371094 430.933594 716.992188 C 431.058594 715.617188 431.1875 714.480469 431.3125 713.582031 L 431.601562 709.933594 C 430.449219 711.664062 429.058594 713.726562 427.421875 716.125 C 425.792969 718.527344 424.125 720.800781 422.429688 722.945312 C 420.734375 725.09375 419.183594 726.933594 417.773438 728.46875 C 416.367188 730.003906 415.339844 730.769531 414.703125 730.769531 C 413.941406 730.769531 413.324219 730.402344 412.882812 729.667969 C 412.433594 728.929688 412.210938 728.046875 412.210938 727.027344 C 412.210938 725.679688 412.371094 724.050781 412.691406 722.132812 C 413.015625 720.207031 413.394531 718.261719 413.84375 716.269531 C 414.292969 714.285156 414.742188 712.382812 415.191406 710.554688 C 415.640625 708.730469 416.023438 707.238281 416.34375 706.089844 C 416.859375 704.039062 417.117188 701.992188 417.117188 699.945312 C 417.117188 699.429688 417.082031 698.890625 417.019531 698.316406 C 416.953125 697.738281 416.859375 697.195312 416.734375 696.679688 C 416.21875 696.679688 415.511719 697.078125 414.621094 697.882812 C 413.722656 698.6875 412.816406 699.597656 411.882812 700.621094 C 410.957031 701.648438 410.09375 702.65625 409.289062 703.648438 C 408.484375 704.644531 407.960938 705.363281 407.703125 705.808594 C 406.167969 708.050781 404.761719 710.386719 403.480469 712.816406 C 402.203125 715.25 400.902344 717.683594 399.589844 720.117188 C 398.277344 722.550781 396.886719 724.921875 395.417969 727.226562 C 393.941406 729.535156 392.246094 731.644531 390.328125 733.566406 C 389.566406 734.015625 388.921875 734.234375 388.414062 734.234375 C 386.617188 734.234375 385.625 733.210938 385.4375 731.164062 C 385.496094 730.011719 385.785156 728.796875 386.300781 727.515625 C 386.816406 726.234375 387.386719 724.9375 388.03125 723.628906 C 388.667969 722.3125 389.335938 721.050781 390.046875 719.828125 C 390.75 718.617188 391.355469 717.496094 391.871094 716.46875 C 393.023438 714.101562 394 712.132812 394.800781 710.558594 C 395.601562 708.988281 396.335938 707.46875 397.007812 706 C 397.683594 704.527344 398.320312 702.945312 398.929688 701.25 C 399.539062 699.550781 400.195312 697.457031 400.898438 694.957031 C 401.347656 693.417969 401.703125 691.867188 401.957031 690.296875 C 402.210938 688.730469 402.339844 687.242188 402.339844 685.835938 C 402.339844 684.042969 402.101562 682.585938 401.621094 681.460938 C 401.136719 680.339844 400.261719 679.78125 398.980469 679.78125 C 398.082031 679.78125 397.046875 680.085938 395.859375 680.6875 C 394.675781 681.296875 393.25 682.269531 391.585938 683.617188 C 388.578125 686.238281 386.382812 688.757812 385.007812 691.15625 C 383.628906 693.558594 382.949219 695.78125 382.949219 697.832031 C 382.949219 699.886719 383.457031 701.929688 384.484375 703.976562 C 385.503906 706.027344 386.714844 708.300781 388.125 710.796875 Z M 388.125 710.796875 " fill-opacity="1" fill-rule="nonzero"/><path fill="#9f864a" d="M 457.628906 713.105469 C 456.992188 714.449219 456.296875 715.792969 455.566406 717.132812 C 454.828125 718.480469 454 719.730469 453.074219 720.882812 C 452.140625 722.035156 451.121094 723.039062 450.003906 723.90625 C 448.882812 724.769531 447.613281 725.394531 446.210938 725.777344 C 446.210938 727.125 446.398438 728.453125 446.789062 729.765625 C 447.171875 731.078125 447.972656 731.734375 449.1875 731.734375 C 449.507812 731.734375 449.84375 731.707031 450.195312 731.640625 C 450.546875 731.578125 450.949219 731.386719 451.398438 731.0625 C 451.78125 730.871094 452.339844 730.519531 453.078125 730.007812 C 453.808594 729.492188 454.613281 728.90625 455.476562 728.234375 C 456.34375 727.558594 457.175781 726.828125 457.972656 726.023438 C 458.769531 725.222656 459.363281 724.410156 459.746094 723.570312 C 459.933594 723.121094 460.226562 722.902344 460.609375 722.902344 C 461.058594 722.902344 461.476562 723.089844 461.859375 723.476562 C 462.238281 723.859375 462.433594 724.308594 462.433594 724.820312 C 462.433594 725.269531 462.050781 725.972656 461.28125 726.933594 C 460.511719 727.890625 459.628906 728.882812 458.644531 729.910156 C 457.652344 730.9375 456.625 731.894531 455.574219 732.789062 C 454.519531 733.6875 453.699219 734.261719 453.121094 734.519531 C 452.933594 734.578125 452.371094 734.867188 451.445312 735.382812 C 450.511719 735.898438 449.730469 736.152344 449.089844 736.152344 C 447.679688 736.152344 446.464844 735.867188 445.441406 735.289062 C 444.417969 734.710938 443.566406 733.945312 442.898438 732.988281 C 442.222656 732.027344 441.726562 730.917969 441.40625 729.671875 C 441.085938 728.425781 440.925781 727.125 440.925781 725.777344 C 440.542969 725.589844 440.347656 725.234375 440.347656 724.726562 C 440.347656 724.277344 440.507812 723.894531 440.832031 723.570312 C 440.832031 722.800781 440.859375 722.019531 440.925781 721.222656 C 440.984375 720.421875 441.144531 719.609375 441.40625 718.769531 C 441.789062 717.429688 442.316406 715.824219 442.992188 713.96875 C 443.664062 712.109375 444.511719 710.335938 445.535156 708.640625 C 446.5625 706.941406 447.773438 705.5 449.1875 704.316406 C 450.589844 703.128906 452.191406 702.539062 453.988281 702.539062 C 455.777344 702.539062 456.996094 703.132812 457.632812 704.316406 C 458.277344 705.5 458.59375 706.859375 458.59375 708.394531 C 458.59375 709.289062 458.515625 710.171875 458.355469 711.035156 C 458.1875 711.90625 457.949219 712.59375 457.628906 713.105469 Z M 453.019531 709.074219 C 452.375 709.589844 451.738281 710.335938 451.09375 711.328125 C 450.457031 712.320312 449.875 713.398438 449.367188 714.546875 C 448.851562 715.699219 448.375 716.886719 447.925781 718.097656 C 447.476562 719.320312 447.121094 720.4375 446.871094 721.460938 C 447.640625 720.753906 448.601562 719.40625 449.753906 717.429688 C 450.007812 716.980469 450.328125 716.417969 450.710938 715.75 C 451.09375 715.070312 451.445312 714.339844 451.765625 713.535156 C 452.085938 712.738281 452.371094 711.957031 452.628906 711.183594 C 452.890625 710.414062 453.019531 709.710938 453.019531 709.074219 Z M 453.019531 709.074219 " fill-opacity="1" fill-rule="nonzero"/><path fill="#9f864a" d="M 476.054688 709.550781 C 476.761719 709.675781 477.371094 709.933594 477.878906 710.316406 L 478.261719 709.449219 C 478.90625 706.503906 479.59375 703.5625 480.328125 700.609375 C 481.066406 697.667969 481.847656 694.75 482.679688 691.871094 C 482.933594 691.039062 483.273438 689.855469 483.6875 688.316406 C 484.105469 686.78125 484.613281 685.289062 485.222656 683.847656 C 485.832031 682.40625 486.582031 681.144531 487.480469 680.054688 C 488.371094 678.96875 489.429688 678.425781 490.644531 678.425781 C 491.863281 678.425781 492.710938 678.808594 493.1875 679.578125 C 493.667969 680.351562 493.90625 681.371094 493.90625 682.652344 C 493.90625 683.609375 493.792969 684.636719 493.570312 685.722656 C 493.34375 686.816406 493.085938 687.902344 492.800781 688.988281 C 492.511719 690.074219 492.191406 691.136719 491.839844 692.15625 C 491.492188 693.179688 491.179688 694.105469 490.933594 694.945312 C 490.035156 697.632812 488.980469 700.433594 487.761719 703.34375 C 486.542969 706.261719 485.105469 709.15625 483.445312 712.039062 C 482.996094 714.472656 482.5625 716.890625 482.148438 719.292969 C 481.730469 721.691406 481.332031 724.109375 480.945312 726.542969 L 480.945312 726.351562 C 480.878906 726.992188 480.816406 727.632812 480.75 728.273438 C 480.691406 728.917969 480.65625 729.554688 480.65625 730.199219 C 480.65625 731.863281 480.910156 733.242188 481.425781 734.328125 C 482.132812 734.328125 482.960938 733.945312 483.921875 733.175781 C 484.878906 732.410156 485.84375 731.511719 486.804688 730.488281 C 487.761719 729.460938 488.644531 728.46875 489.441406 727.507812 C 490.238281 726.550781 490.835938 725.878906 491.214844 725.492188 C 491.664062 725.167969 492.046875 725.007812 492.367188 725.007812 C 493.394531 725.007812 493.902344 725.523438 493.902344 726.542969 C 493.902344 726.925781 493.769531 727.34375 493.519531 727.792969 C 492.433594 728.945312 491.359375 730.132812 490.304688 731.347656 C 489.253906 732.566406 488.210938 733.6875 487.183594 734.707031 C 486.160156 735.730469 485.167969 736.582031 484.210938 737.25 C 483.25 737.921875 482.292969 738.261719 481.332031 738.261719 C 480.433594 738.261719 479.664062 737.957031 479.027344 737.351562 C 478.382812 736.742188 477.875 735.910156 477.492188 734.855469 C 477.109375 733.800781 476.832031 732.550781 476.675781 731.109375 C 476.515625 729.671875 476.4375 728.117188 476.4375 726.449219 C 476.4375 725.808594 476.4375 725.203125 476.4375 724.625 C 476.4375 724.050781 476.46875 723.472656 476.535156 722.894531 C 475.761719 723.921875 474.835938 725.085938 473.746094 726.398438 C 472.660156 727.714844 471.554688 728.960938 470.429688 730.148438 C 469.3125 731.335938 468.207031 732.320312 467.117188 733.121094 C 466.03125 733.925781 465.066406 734.324219 464.234375 734.324219 L 463.757812 734.324219 C 462.667969 733.746094 461.917969 733.332031 461.503906 733.074219 C 461.085938 732.820312 460.808594 732.246094 460.683594 731.347656 C 460.683594 728.976562 461.113281 726.496094 461.980469 723.90625 C 462.84375 721.308594 463.980469 718.957031 465.386719 716.847656 C 466.796875 714.734375 468.375 712.992188 470.136719 711.613281 C 471.894531 710.230469 473.703125 709.542969 475.558594 709.542969 L 476.054688 709.542969 Z M 465.5 727.992188 C 467.484375 725.941406 469.382812 723.640625 471.210938 721.078125 C 473.035156 718.515625 474.777344 715.824219 476.445312 713.007812 C 476.25 712.949219 475.996094 712.914062 475.675781 712.914062 L 475.578125 712.914062 C 472.507812 714.324219 470.238281 716.390625 468.761719 719.109375 C 467.289062 721.832031 466.203125 724.792969 465.5 727.992188 Z M 481.050781 725.589844 C 480.984375 725.65625 480.957031 725.777344 480.957031 725.972656 C 481.015625 725.914062 481.050781 725.777344 481.050781 725.589844 Z M 489.597656 689.1875 C 489.597656 689.128906 489.613281 689.078125 489.644531 689.042969 C 489.675781 689.011719 489.691406 688.960938 489.691406 688.898438 C 489.628906 688.964844 489.597656 689.0625 489.597656 689.1875 L 489.597656 689.28125 Z M 489.597656 689.1875 " fill-opacity="1" fill-rule="nonzero"/><path fill="#9f864a" d="M 496.507812 711.566406 C 497.277344 710.609375 497.949219 710.125 498.523438 710.125 C 499.230469 710.125 499.578125 710.734375 499.578125 711.949219 C 499.0625 715.089844 498.570312 718 498.09375 720.6875 C 497.609375 723.378906 497.371094 725.558594 497.371094 727.222656 C 497.371094 729.011719 497.722656 729.945312 498.425781 730.011719 C 498.875 730.199219 499.382812 730.296875 499.960938 730.296875 C 501.496094 730.296875 503.226562 729.847656 505.140625 728.957031 C 507.066406 728.058594 508.695312 726.90625 510.035156 725.496094 C 510.417969 725.367188 510.710938 725.300781 510.902344 725.300781 C 511.347656 725.300781 511.730469 725.464844 512.054688 725.785156 C 512.375 726.105469 512.535156 726.488281 512.535156 726.9375 C 512.535156 727.257812 512.375 727.640625 512.054688 728.089844 C 508.789062 730.78125 505.972656 732.65625 503.605469 733.707031 C 501.242188 734.761719 499.222656 735.289062 497.558594 735.289062 C 495.636719 735.289062 494.246094 734.667969 493.382812 733.414062 C 492.515625 732.167969 492.085938 730.582031 492.085938 728.664062 C 492.085938 725.140625 492.566406 722.019531 493.527344 719.296875 C 494.484375 716.574219 495.480469 714 496.507812 711.566406 Z M 502.746094 694.085938 C 503.070312 694.601562 503.230469 695.078125 503.230469 695.527344 C 503.230469 696.101562 503.054688 696.597656 502.703125 697.011719 C 502.355469 697.429688 501.917969 697.640625 501.40625 697.640625 C 500.890625 697.640625 500.429688 697.402344 500.015625 696.917969 C 499.601562 696.4375 499.390625 695.976562 499.390625 695.527344 C 499.390625 695.011719 499.578125 694.566406 499.964844 694.179688 C 500.347656 693.796875 500.796875 693.601562 501.3125 693.601562 C 501.882812 693.609375 502.367188 693.769531 502.746094 694.085938 Z M 502.746094 694.085938 " fill-opacity="1" fill-rule="nonzero"/><path fill="#9f864a" d="M 513.976562 719.730469 C 514.171875 717.617188 514.410156 715.546875 514.695312 713.535156 C 514.984375 711.519531 515.351562 709.488281 515.800781 707.4375 C 513.496094 707.953125 511.847656 708.394531 510.855469 708.777344 C 509.863281 709.160156 509.109375 709.355469 508.601562 709.355469 C 507.835938 709.355469 507.449219 708.839844 507.449219 707.8125 C 507.449219 706.855469 508.074219 705.941406 509.320312 705.082031 C 510.566406 704.214844 512.027344 703.433594 513.695312 702.722656 C 514.71875 701.832031 515.515625 701.011719 516.09375 700.273438 C 516.671875 699.539062 517.152344 698.769531 517.535156 697.964844 C 517.917969 697.167969 518.238281 696.285156 518.492188 695.328125 C 518.75 694.367188 519.070312 693.214844 519.453125 691.867188 C 519.640625 691.289062 519.882812 690.347656 520.171875 689.035156 C 520.460938 687.71875 520.84375 686.394531 521.324219 685.046875 C 521.808594 683.699219 522.394531 682.519531 523.097656 681.492188 C 523.804688 680.464844 524.667969 679.957031 525.691406 679.957031 C 526.71875 679.957031 527.226562 680.4375 527.226562 681.398438 C 527.226562 681.914062 527.128906 682.628906 526.941406 683.558594 C 526.75 684.492188 526.472656 685.691406 526.125 687.160156 C 525.777344 688.632812 525.355469 690.441406 524.878906 692.585938 C 524.394531 694.734375 523.871094 697.277344 523.296875 700.222656 C 523.9375 700.222656 524.546875 700.210938 525.121094 700.179688 C 525.699219 700.144531 526.273438 700.128906 526.851562 700.128906 C 527.554688 700.128906 528.402344 700.128906 529.394531 700.128906 C 530.386719 700.128906 531.347656 700.179688 532.277344 700.273438 C 533.207031 700.367188 533.988281 700.542969 534.625 700.800781 C 535.269531 701.058594 535.585938 701.476562 535.585938 702.046875 C 535.585938 702.617188 535.027344 703.101562 533.90625 703.488281 C 532.785156 703.871094 531.472656 704.226562 529.972656 704.542969 C 528.464844 704.863281 526.945312 705.167969 525.410156 705.453125 C 523.875 705.738281 522.6875 706.042969 521.859375 706.367188 C 521.152344 709.4375 520.542969 712.722656 520.035156 716.207031 C 519.519531 719.703125 519.269531 722.980469 519.269531 726.050781 C 519.269531 726.433594 519.28125 726.949219 519.3125 727.585938 C 519.347656 728.230469 519.375 728.882812 519.414062 729.554688 C 519.441406 730.230469 519.507812 730.804688 519.601562 731.285156 C 519.695312 731.769531 519.839844 732.007812 520.035156 732.007812 C 520.738281 732.007812 522.195312 730.964844 524.402344 728.882812 C 526.613281 726.804688 528.960938 723.8125 531.457031 719.90625 C 531.777344 719.585938 532.160156 719.425781 532.609375 719.425781 C 533.058594 719.425781 533.441406 719.570312 533.761719 719.855469 C 534.082031 720.144531 534.246094 720.515625 534.246094 720.960938 C 534.246094 721.28125 534.082031 721.664062 533.761719 722.113281 C 532.863281 723.84375 531.792969 725.636719 530.546875 727.492188 C 529.300781 729.351562 528.003906 731.011719 526.65625 732.488281 C 525.316406 733.964844 523.96875 735.179688 522.628906 736.136719 C 521.285156 737.097656 520.035156 737.578125 518.886719 737.578125 C 517.800781 737.578125 516.917969 737.195312 516.25 736.425781 C 515.578125 735.65625 515.03125 734.730469 514.621094 733.636719 C 514.203125 732.550781 513.914062 731.394531 513.753906 730.175781 C 513.59375 728.960938 513.515625 727.875 513.515625 726.910156 C 513.515625 725.628906 513.566406 724.382812 513.660156 723.160156 C 513.738281 721.976562 513.847656 720.820312 513.976562 719.730469 Z M 513.976562 719.730469 " fill-opacity="1" fill-rule="nonzero"/><path fill="#9f864a" d="M 549.402344 711.566406 C 549.402344 711.757812 549.386719 711.917969 549.359375 712.050781 C 549.324219 712.175781 549.273438 712.304688 549.214844 712.433594 C 549.339844 712.433594 549.453125 712.414062 549.550781 712.382812 C 549.644531 712.355469 549.757812 712.332031 549.890625 712.332031 C 550.78125 712.332031 551.457031 712.636719 551.90625 713.246094 C 552.355469 713.859375 552.582031 714.671875 552.582031 715.699219 C 552.390625 716.53125 552.117188 717.589844 551.761719 718.871094 C 551.414062 720.152344 551.042969 721.480469 550.660156 722.855469 C 550.277344 724.238281 549.941406 725.597656 549.652344 726.9375 C 549.363281 728.28125 549.21875 729.464844 549.21875 730.492188 C 549.21875 731.070312 549.28125 731.613281 549.40625 732.121094 C 550.367188 732.0625 551.265625 731.671875 552.097656 730.96875 C 552.925781 730.265625 553.726562 729.511719 554.496094 728.710938 C 555.265625 727.914062 555.96875 727.175781 556.605469 726.5 C 557.246094 725.828125 557.820312 725.492188 558.335938 725.492188 C 559.363281 725.492188 559.871094 726.007812 559.871094 727.027344 C 559.871094 727.410156 559.742188 727.824219 559.488281 728.273438 C 559.167969 728.597656 558.640625 729.207031 557.910156 730.097656 C 557.171875 730.996094 556.324219 731.921875 555.367188 732.886719 C 554.40625 733.847656 553.332031 734.710938 552.152344 735.484375 C 550.964844 736.246094 549.800781 736.636719 548.648438 736.636719 C 547.75 736.636719 547.011719 736.363281 546.4375 735.820312 C 545.859375 735.277344 545.429688 734.589844 545.140625 733.753906 C 544.851562 732.921875 544.65625 732.054688 544.5625 731.15625 C 544.46875 730.265625 544.417969 729.425781 544.417969 728.664062 C 544.039062 729.046875 543.539062 729.496094 542.933594 730.011719 C 542.324219 730.527344 541.671875 731.035156 540.96875 731.546875 C 540.261719 732.0625 539.558594 732.488281 538.855469 732.84375 C 538.152344 733.199219 537.542969 733.371094 537.03125 733.371094 C 535.363281 733.371094 534.023438 732.828125 532.996094 731.738281 C 531.972656 730.652344 531.460938 729.144531 531.460938 727.226562 C 531.460938 724.539062 531.859375 721.949219 532.664062 719.445312 C 533.46875 716.945312 534.503906 714.722656 535.785156 712.769531 C 537.066406 710.820312 538.488281 709.265625 540.058594 708.113281 C 541.625 706.960938 543.144531 706.382812 544.621094 706.382812 C 546.019531 706.382812 547.179688 706.867188 548.078125 707.820312 C 548.96875 708.777344 549.417969 709.902344 549.417969 711.179688 L 549.417969 711.566406 Z M 537.113281 726.742188 C 538.457031 725.980469 539.546875 725.015625 540.378906 723.859375 C 541.210938 722.707031 541.976562 721.492188 542.683594 720.210938 C 543.390625 718.929688 544.09375 717.683594 544.796875 716.46875 C 545.5 715.25 546.363281 714.195312 547.390625 713.296875 C 546.6875 713.042969 546.335938 712.53125 546.335938 711.761719 L 546.242188 711.089844 L 544.03125 710.320312 C 542.878906 711.089844 541.875 712.050781 541.011719 713.203125 C 540.148438 714.355469 539.425781 715.621094 538.851562 716.996094 C 538.273438 718.375 537.839844 719.796875 537.554688 721.269531 C 537.265625 722.746094 537.121094 724.1875 537.121094 725.597656 L 537.121094 726.742188 Z M 537.113281 726.742188 " fill-opacity="1" fill-rule="nonzero"/><path fill="#9f864a" d="M 565.914062 719.730469 C 566.105469 717.617188 566.34375 715.546875 566.632812 713.535156 C 566.921875 711.519531 567.285156 709.488281 567.734375 707.4375 C 565.429688 707.953125 563.785156 708.394531 562.792969 708.777344 C 561.800781 709.160156 561.046875 709.355469 560.535156 709.355469 C 559.773438 709.355469 559.382812 708.839844 559.382812 707.8125 C 559.382812 706.855469 560.011719 705.941406 561.257812 705.082031 C 562.503906 704.214844 563.960938 703.433594 565.628906 702.722656 C 566.65625 701.832031 567.453125 701.011719 568.03125 700.273438 C 568.605469 699.539062 569.089844 698.769531 569.46875 697.964844 C 569.851562 697.167969 570.175781 696.285156 570.429688 695.328125 C 570.683594 694.367188 571.003906 693.214844 571.386719 691.867188 C 571.578125 691.289062 571.820312 690.347656 572.109375 689.035156 C 572.398438 687.71875 572.777344 686.394531 573.261719 685.046875 C 573.742188 683.699219 574.332031 682.519531 575.035156 681.492188 C 575.738281 680.464844 576.601562 679.957031 577.628906 679.957031 C 578.652344 679.957031 579.164062 680.4375 579.164062 681.398438 C 579.164062 681.914062 579.0625 682.628906 578.875 683.558594 C 578.6875 684.492188 578.410156 685.691406 578.0625 687.160156 C 577.710938 688.632812 577.289062 690.441406 576.8125 692.585938 C 576.332031 694.734375 575.804688 697.277344 575.234375 700.222656 C 575.871094 700.222656 576.480469 700.210938 577.058594 700.179688 C 577.632812 700.144531 578.210938 700.128906 578.785156 700.128906 C 579.492188 700.128906 580.339844 700.128906 581.332031 700.128906 C 582.324219 700.128906 583.28125 700.179688 584.210938 700.273438 C 585.144531 700.367188 585.925781 700.542969 586.5625 700.800781 C 587.207031 701.058594 587.523438 701.476562 587.523438 702.046875 C 587.523438 702.617188 586.960938 703.101562 585.84375 703.488281 C 584.722656 703.871094 583.410156 704.226562 581.90625 704.542969 C 580.398438 704.863281 578.882812 705.167969 577.347656 705.453125 C 575.8125 705.738281 574.625 706.042969 573.792969 706.367188 C 573.089844 709.4375 572.480469 712.722656 571.96875 716.207031 C 571.453125 719.703125 571.207031 722.980469 571.207031 726.050781 C 571.207031 726.433594 571.214844 726.949219 571.25 727.585938 C 571.28125 728.230469 571.3125 728.882812 571.347656 729.554688 C 571.378906 730.230469 571.445312 730.804688 571.539062 731.285156 C 571.632812 731.769531 571.777344 732.007812 571.96875 732.007812 C 572.675781 732.007812 574.132812 730.964844 576.335938 728.882812 C 578.546875 726.804688 580.898438 723.8125 583.394531 719.90625 C 583.714844 719.585938 584.097656 719.425781 584.546875 719.425781 C 584.996094 719.425781 585.375 719.570312 585.699219 719.855469 C 586.019531 720.144531 586.179688 720.515625 586.179688 720.960938 C 586.179688 721.28125 586.019531 721.664062 585.699219 722.113281 C 584.800781 723.84375 583.730469 725.636719 582.484375 727.492188 C 581.238281 729.351562 579.941406 731.011719 578.59375 732.488281 C 577.25 733.964844 575.90625 735.179688 574.5625 736.136719 C 573.222656 737.097656 571.96875 737.578125 570.824219 737.578125 C 569.738281 737.578125 568.855469 737.195312 568.183594 736.425781 C 567.515625 735.65625 566.964844 734.730469 566.554688 733.636719 C 566.140625 732.550781 565.851562 731.394531 565.691406 730.175781 C 565.53125 728.960938 565.453125 727.875 565.453125 726.910156 C 565.453125 725.628906 565.503906 724.382812 565.597656 723.160156 C 565.675781 721.976562 565.785156 720.820312 565.914062 719.730469 Z M 565.914062 719.730469 " fill-opacity="1" fill-rule="nonzero"/><path fill="#9f864a" d="M 591.355469 711.566406 C 592.128906 710.609375 592.796875 710.125 593.375 710.125 C 594.078125 710.125 594.425781 710.734375 594.425781 711.949219 C 593.910156 715.089844 593.417969 718 592.941406 720.6875 C 592.460938 723.378906 592.222656 725.558594 592.222656 727.222656 C 592.222656 729.011719 592.570312 729.945312 593.273438 730.011719 C 593.722656 730.199219 594.234375 730.296875 594.808594 730.296875 C 596.34375 730.296875 598.074219 729.847656 599.992188 728.957031 C 601.914062 728.058594 603.542969 726.90625 604.886719 725.496094 C 605.269531 725.367188 605.5625 725.300781 605.75 725.300781 C 606.199219 725.300781 606.582031 725.464844 606.902344 725.785156 C 607.222656 726.105469 607.386719 726.488281 607.386719 726.9375 C 607.386719 727.257812 607.222656 727.640625 606.902344 728.089844 C 603.636719 730.78125 600.824219 732.65625 598.457031 733.707031 C 596.089844 734.761719 594.074219 735.289062 592.410156 735.289062 C 590.488281 735.289062 589.09375 734.667969 588.230469 733.414062 C 587.367188 732.167969 586.933594 730.582031 586.933594 728.664062 C 586.933594 725.140625 587.417969 722.019531 588.375 719.296875 C 589.332031 716.574219 590.332031 714 591.355469 711.566406 Z M 597.597656 694.085938 C 597.917969 694.601562 598.078125 695.078125 598.078125 695.527344 C 598.078125 696.101562 597.902344 696.597656 597.554688 697.011719 C 597.203125 697.429688 596.765625 697.640625 596.257812 697.640625 C 595.742188 697.640625 595.28125 697.402344 594.863281 696.917969 C 594.449219 696.4375 594.238281 695.976562 594.238281 695.527344 C 594.238281 695.011719 594.425781 694.566406 594.816406 694.179688 C 595.199219 693.796875 595.644531 693.601562 596.160156 693.601562 C 596.734375 693.609375 597.210938 693.769531 597.597656 694.085938 Z M 597.597656 694.085938 " fill-opacity="1" fill-rule="nonzero"/><path fill="#9f864a" d="M 617.082031 711.660156 C 617.082031 711.726562 617.117188 711.789062 617.183594 711.855469 C 620 710.574219 622.957031 709.488281 626.0625 708.589844 C 629.164062 707.699219 632.1875 706.894531 635.132812 706.1875 C 636.355469 706.1875 636.957031 706.703125 636.957031 707.726562 C 636.957031 708.300781 636.636719 708.777344 636 709.167969 C 633.949219 710 631.9375 710.847656 629.953125 711.710938 C 627.96875 712.578125 625.984375 713.484375 624 714.449219 C 624.578125 715.410156 624.863281 716.503906 624.863281 717.71875 C 624.863281 718.675781 624.636719 719.914062 624.195312 721.414062 C 623.746094 722.921875 623.121094 724.410156 622.320312 725.882812 C 621.523438 727.355469 620.515625 728.71875 619.300781 729.964844 C 618.082031 731.214844 616.707031 732.128906 615.171875 732.703125 C 614.527344 732.960938 613.839844 733.085938 613.105469 733.085938 C 612.367188 733.085938 611.617188 733.152344 610.847656 733.277344 C 609.761719 733.148438 608.75 732.460938 607.824219 731.214844 C 606.898438 729.964844 606.429688 728.472656 606.429688 726.742188 C 606.429688 725.402344 606.738281 723.753906 607.339844 721.796875 C 607.945312 719.839844 608.703125 717.957031 609.597656 716.132812 C 610.492188 714.308594 611.4375 712.738281 612.429688 711.421875 C 613.421875 710.113281 614.328125 709.453125 615.167969 709.453125 C 615.742188 709.453125 616.21875 709.742188 616.601562 710.320312 L 617.082031 711.566406 Z M 616.3125 717.523438 C 615.226562 716.945312 614.585938 716.207031 614.390625 715.308594 C 613.492188 717.167969 612.886719 719.140625 612.566406 721.222656 C 612.246094 723.300781 612.085938 725.335938 612.085938 727.320312 C 613.109375 727.191406 614.035156 726.667969 614.871094 725.742188 C 615.703125 724.8125 616.40625 723.804688 616.984375 722.710938 C 617.558594 721.625 618.027344 720.601562 618.378906 719.640625 C 618.730469 718.683594 618.90625 718.136719 618.90625 718.011719 L 618.90625 717.816406 C 618.523438 717.6875 618.074219 717.640625 617.558594 717.671875 C 617.050781 717.699219 616.636719 717.648438 616.3125 717.523438 Z M 616.3125 717.523438 " fill-opacity="1" fill-rule="nonzero"/><path fill="#9f864a" d="M 639.546875 710.515625 C 639.605469 711.28125 639.671875 712.050781 639.734375 712.816406 C 639.796875 713.585938 639.835938 714.355469 639.835938 715.121094 C 639.835938 715.308594 639.816406 715.519531 639.785156 715.75 C 639.75 715.96875 639.734375 716.214844 639.734375 716.46875 C 640.183594 715.636719 640.789062 714.59375 641.558594 713.347656 C 642.328125 712.101562 643.144531 710.898438 644.007812 709.742188 C 644.871094 708.589844 645.738281 707.601562 646.601562 706.765625 C 647.464844 705.933594 648.214844 705.519531 648.855469 705.519531 C 650.390625 705.519531 651.480469 705.933594 652.121094 706.765625 C 652.757812 707.601562 653.082031 708.402344 653.082031 709.167969 C 653.082031 711.921875 652.824219 714.628906 652.308594 717.285156 C 651.792969 719.941406 651.546875 722.613281 651.546875 725.300781 C 651.546875 726.007812 651.554688 726.710938 651.59375 727.414062 C 651.621094 728.121094 651.707031 728.824219 651.832031 729.527344 L 653.375 730.679688 L 658.648438 729.050781 C 659.03125 728.921875 659.289062 728.855469 659.421875 728.855469 C 660.507812 728.855469 661.050781 729.371094 661.050781 730.398438 C 661.050781 730.847656 660.710938 731.324219 660.042969 731.835938 C 659.371094 732.351562 658.582031 732.808594 657.691406 733.230469 C 656.792969 733.648438 655.882812 733.984375 654.953125 734.242188 C 654.027344 734.496094 653.308594 734.625 652.792969 734.625 C 651.003906 734.625 649.449219 733.695312 648.136719 731.835938 C 646.824219 729.976562 646.167969 727.355469 646.167969 723.960938 C 646.167969 722.613281 646.230469 721.304688 646.363281 720.023438 C 646.492188 718.742188 646.617188 717.65625 646.746094 716.757812 C 645.527344 718.359375 644.445312 720.058594 643.480469 721.847656 C 642.523438 723.644531 641.589844 725.433594 640.695312 727.226562 C 640.371094 727.804688 640.050781 728.492188 639.734375 729.292969 C 639.417969 730.097656 639.046875 730.847656 638.632812 731.550781 C 638.214844 732.253906 637.71875 732.847656 637.140625 733.324219 C 636.566406 733.808594 635.894531 734.046875 635.125 734.046875 C 634.417969 734.046875 633.84375 733.824219 633.394531 733.371094 C 632.945312 732.925781 632.65625 732.25 632.53125 731.351562 C 632.53125 730.199219 632.65625 728.96875 632.914062 727.660156 C 633.167969 726.34375 633.472656 725.035156 633.820312 723.722656 C 634.171875 722.40625 634.542969 721.144531 634.925781 719.929688 C 635.304688 718.710938 635.628906 717.5625 635.882812 716.46875 L 635.882812 716.375 C 635.945312 715.796875 635.992188 715.109375 636.027344 714.308594 C 636.058594 713.507812 636.125 712.738281 636.222656 712 C 636.316406 711.269531 636.476562 710.640625 636.703125 710.125 C 636.925781 709.617188 637.328125 709.359375 637.90625 709.359375 C 638.738281 709.359375 639.246094 709.742188 639.441406 710.515625 Z M 639.546875 710.515625 " fill-opacity="1" fill-rule="nonzero"/></svg>