<svg xmlns="http://www.w3.org/2000/svg" xmlns:xlink="http://www.w3.org/1999/xlink" width="430" zoomAndPan="magnify" viewBox="0 0 322.5 225" height="300" preserveAspectRatio="xMidYMid meet" version="1.0"><defs><clipPath id="a991f7d150"><path d="M 0 0.175781 L 322 0.175781 L 322 224.824219 L 0 224.824219 Z M 0 0.175781 " clip-rule="nonzero"/></clipPath><clipPath id="10fa956ca9"><path d="M 97 18 L 224 18 L 224 145 L 97 145 Z M 97 18 " clip-rule="nonzero"/></clipPath><clipPath id="0476c59096"><path d="M 160.652344 18.125 C 195.441406 18.125 223.679688 46.378906 223.679688 81.179688 C 223.679688 115.984375 195.4375 144.238281 160.652344 144.238281 C 125.867188 144.238281 97.625 115.984375 97.625 81.183594 C 97.625 46.382812 125.867188 18.125 160.652344 18.125 Z M 177.730469 52.8125 C 189.839844 69.433594 201.769531 95.34375 197.632812 102.558594 C 191.382812 113.453125 129.792969 114.390625 123.675781 103.707031 C 122.265625 101.242188 122.84375 96.449219 124.71875 90.527344 C 135.519531 94.566406 178.445312 100.816406 178.292969 81.179688 C 178.199219 68.734375 161.730469 73 163.875 63.011719 C 165.382812 56.007812 177.679688 52.824219 177.730469 52.8125 Z M 176.480469 51.132812 C 176.429688 51.144531 163.660156 54.527344 161.621094 61.945312 C 158.359375 73.820312 174.710938 72.011719 175.832031 79.359375 C 178.707031 98.234375 135.933594 92.328125 125.429688 88.402344 C 132.417969 68.542969 152.011719 38.472656 161.160156 38.332031 C 165.042969 38.273438 170.71875 43.542969 176.480469 51.132812 Z M 176.480469 51.132812 " clip-rule="evenodd"/></clipPath><linearGradient x1="850.493997" gradientTransform="matrix(0.153712, 0, 0, 0.153784, 72.969518, 0.189585)" y1="1011.74164" x2="290.378402" gradientUnits="userSpaceOnUse" y2="41.592753" id="68c0a35c1d"><stop stop-opacity="1" stop-color="rgb(67.799377%, 58.399963%, 32.499695%)" offset="0"/><stop stop-opacity="1" stop-color="rgb(67.799377%, 58.399963%, 32.499695%)" offset="0.125"/><stop stop-opacity="1" stop-color="rgb(67.727661%, 58.320618%, 32.45697%)" offset="0.140625"/><stop stop-opacity="1" stop-color="rgb(67.49115%, 58.058167%, 32.316589%)" offset="0.15625"/><stop stop-opacity="1" stop-color="rgb(67.158508%, 57.691956%, 32.121277%)" offset="0.171875"/><stop stop-opacity="1" stop-color="rgb(66.824341%, 57.324219%, 31.924438%)" offset="0.1875"/><stop stop-opacity="1" stop-color="rgb(66.491699%, 56.958008%, 31.7276%)" offset="0.203125"/><stop stop-opacity="1" stop-color="rgb(66.159058%, 56.590271%, 31.530762%)" offset="0.21875"/><stop stop-opacity="1" stop-color="rgb(65.826416%, 56.222534%, 31.335449%)" offset="0.234375"/><stop stop-opacity="1" stop-color="rgb(65.492249%, 55.856323%, 31.138611%)" offset="0.25"/><stop stop-opacity="1" stop-color="rgb(65.159607%, 55.488586%, 30.941772%)" offset="0.265625"/><stop stop-opacity="1" stop-color="rgb(64.826965%, 55.122375%, 30.74646%)" offset="0.28125"/><stop stop-opacity="1" stop-color="rgb(64.494324%, 54.754639%, 30.549622%)" offset="0.296875"/><stop stop-opacity="1" stop-color="rgb(64.161682%, 54.388428%, 30.352783%)" offset="0.3125"/><stop stop-opacity="1" stop-color="rgb(63.847351%, 54.046631%, 30.14679%)" offset="0.34375"/><stop stop-opacity="1" stop-color="rgb(63.5849%, 53.762817%, 29.946899%)" offset="0.366022"/><stop stop-opacity="1" stop-color="rgb(63.468933%, 53.639221%, 29.855347%)" offset="0.375"/><stop stop-opacity="1" stop-color="rgb(63.352966%, 53.515625%, 29.762268%)" offset="0.40625"/><stop stop-opacity="1" stop-color="rgb(63.121033%, 53.268433%, 29.576111%)" offset="0.4375"/><stop stop-opacity="1" stop-color="rgb(62.889099%, 53.02124%, 29.389954%)" offset="0.46875"/><stop stop-opacity="1" stop-color="rgb(62.657166%, 52.774048%, 29.205322%)" offset="0.5"/><stop stop-opacity="1" stop-color="rgb(62.567139%, 52.679443%, 29.118347%)" offset="0.53125"/><stop stop-opacity="1" stop-color="rgb(62.716675%, 52.844238%, 29.203796%)" offset="0.546875"/><stop stop-opacity="1" stop-color="rgb(62.963867%, 53.115845%, 29.364014%)" offset="0.5625"/><stop stop-opacity="1" stop-color="rgb(63.21106%, 53.385925%, 29.524231%)" offset="0.578125"/><stop stop-opacity="1" stop-color="rgb(63.458252%, 53.656006%, 29.684448%)" offset="0.59375"/><stop stop-opacity="1" stop-color="rgb(63.705444%, 53.926086%, 29.844666%)" offset="0.609375"/><stop stop-opacity="1" stop-color="rgb(63.952637%, 54.196167%, 30.004883%)" offset="0.625"/><stop stop-opacity="1" stop-color="rgb(64.199829%, 54.466248%, 30.1651%)" offset="0.633978"/><stop stop-opacity="1" stop-color="rgb(64.323425%, 54.602051%, 30.245972%)" offset="0.640625"/><stop stop-opacity="1" stop-color="rgb(64.447021%, 54.736328%, 30.326843%)" offset="0.65625"/><stop stop-opacity="1" stop-color="rgb(64.694214%, 55.006409%, 30.487061%)" offset="0.671875"/><stop stop-opacity="1" stop-color="rgb(64.941406%, 55.276489%, 30.647278%)" offset="0.6875"/><stop stop-opacity="1" stop-color="rgb(65.190125%, 55.54657%, 30.807495%)" offset="0.703125"/><stop stop-opacity="1" stop-color="rgb(65.437317%, 55.818176%, 30.967712%)" offset="0.71875"/><stop stop-opacity="1" stop-color="rgb(65.684509%, 56.088257%, 31.12793%)" offset="0.734375"/><stop stop-opacity="1" stop-color="rgb(65.931702%, 56.358337%, 31.288147%)" offset="0.75"/><stop stop-opacity="1" stop-color="rgb(66.178894%, 56.628418%, 31.448364%)" offset="0.765625"/><stop stop-opacity="1" stop-color="rgb(66.426086%, 56.898499%, 31.608582%)" offset="0.78125"/><stop stop-opacity="1" stop-color="rgb(66.673279%, 57.168579%, 31.768799%)" offset="0.796875"/><stop stop-opacity="1" stop-color="rgb(66.920471%, 57.43866%, 31.929016%)" offset="0.8125"/><stop stop-opacity="1" stop-color="rgb(67.167664%, 57.70874%, 32.089233%)" offset="0.828125"/><stop stop-opacity="1" stop-color="rgb(67.414856%, 57.978821%, 32.249451%)" offset="0.84375"/><stop stop-opacity="1" stop-color="rgb(67.668152%, 58.256531%, 32.414246%)" offset="0.875"/><stop stop-opacity="1" stop-color="rgb(67.799377%, 58.399963%, 32.499695%)" offset="1"/></linearGradient></defs><g clip-path="url(#a991f7d150)"><path fill="#ffffff" d="M 0 0.175781 L 322 0.175781 L 322 224.824219 L 0 224.824219 Z M 0 0.175781 " fill-opacity="1" fill-rule="nonzero"/><path fill="#ffffff" d="M 0 0.175781 L 322 0.175781 L 322 224.824219 L 0 224.824219 Z M 0 0.175781 " fill-opacity="1" fill-rule="nonzero"/></g><path fill="#3a2d18" d="M 96.777344 184.050781 C 100.296875 184.050781 103.164062 181.964844 103.164062 178.441406 C 103.164062 171.496094 93.910156 173.191406 93.910156 169.183594 C 93.910156 167.648438 95.113281 166.933594 96.550781 166.933594 C 97.851562 166.933594 99.023438 167.519531 99.90625 168.628906 L 102.15625 166.574219 C 100.917969 165.039062 98.863281 163.964844 96.550781 163.964844 C 93.484375 163.964844 90.714844 165.886719 90.714844 169.410156 C 90.714844 175.898438 99.96875 174.300781 99.96875 178.441406 C 99.96875 180.039062 98.636719 180.984375 96.808594 180.984375 C 94.820312 180.984375 93.324219 179.875 92.636719 178.214844 L 89.898438 179.875 C 91.042969 182.324219 93.648438 184.050781 96.777344 184.050781 Z M 96.777344 184.050781 " fill-opacity="1" fill-rule="nonzero"/><path fill="#3a2d18" d="M 126.886719 183.789062 L 130.34375 183.789062 L 123.269531 164.226562 L 119.71875 164.226562 L 112.644531 183.789062 L 116.097656 183.789062 L 117.5 179.648438 L 125.488281 179.648438 Z M 118.445312 176.84375 L 121.511719 167.714844 L 124.574219 176.84375 Z M 118.445312 176.84375 " fill-opacity="1" fill-rule="nonzero"/><path fill="#3a2d18" d="M 151.882812 173.878906 C 153.480469 173.09375 154.488281 171.628906 154.488281 169.539062 C 154.488281 166.3125 151.980469 164.226562 148.851562 164.226562 L 141.160156 164.226562 L 141.160156 183.789062 L 149.570312 183.789062 C 152.664062 183.789062 155.140625 181.765625 155.140625 178.539062 C 155.140625 176.160156 153.804688 174.59375 151.882812 173.878906 Z M 151.296875 169.867188 C 151.296875 171.402344 150.023438 172.605469 148.492188 172.605469 L 144.320312 172.605469 L 144.320312 167.195312 L 148.492188 167.195312 C 150.023438 167.195312 151.296875 168.300781 151.296875 169.867188 Z M 149.113281 180.820312 L 144.320312 180.820312 L 144.320312 175.410156 L 149.113281 175.410156 C 150.675781 175.410156 151.945312 176.617188 151.945312 178.148438 C 151.945312 179.679688 150.675781 180.820312 149.113281 180.820312 Z M 149.113281 180.820312 " fill-opacity="1" fill-rule="nonzero"/><path fill="#3a2d18" d="M 179.289062 183.789062 L 182.742188 183.789062 L 175.671875 164.226562 L 172.117188 164.226562 L 165.046875 183.789062 L 168.5 183.789062 L 169.902344 179.648438 L 177.886719 179.648438 Z M 170.847656 176.84375 L 173.910156 167.714844 L 176.972656 176.84375 Z M 170.847656 176.84375 " fill-opacity="1" fill-rule="nonzero"/><path fill="#3a2d18" d="M 196.753906 180.820312 L 196.753906 164.226562 L 193.558594 164.226562 L 193.558594 183.789062 L 203.628906 183.789062 L 203.628906 180.820312 Z M 196.753906 180.820312 " fill-opacity="1" fill-rule="nonzero"/><path fill="#3a2d18" d="M 228.003906 183.789062 L 231.457031 183.789062 L 224.386719 164.226562 L 220.835938 164.226562 L 213.761719 183.789062 L 217.21875 183.789062 L 218.621094 179.648438 L 226.601562 179.648438 Z M 219.5625 176.84375 L 222.625 167.714844 L 225.691406 176.84375 Z M 219.5625 176.84375 " fill-opacity="1" fill-rule="nonzero"/><g clip-path="url(#10fa956ca9)"><g clip-path="url(#0476c59096)"><path fill="url(#68c0a35c1d)" d="M 97.625 18.125 L 97.625 144.238281 L 223.679688 144.238281 L 223.679688 18.125 Z M 97.625 18.125 " fill-rule="nonzero"/></g></g><path fill="#9f864a" d="M 156.320312 197.3125 C 156.320312 197.472656 156.28125 197.589844 156.199219 197.671875 C 156.121094 197.75 156.027344 197.789062 155.921875 197.789062 C 155.726562 197.789062 155.574219 197.695312 155.46875 197.5 C 154.933594 196.609375 154.507812 195.859375 154.191406 195.246094 C 153.871094 194.636719 153.710938 194.035156 153.710938 193.449219 C 153.710938 193.003906 153.816406 192.539062 154.03125 192.050781 C 154.246094 191.5625 154.589844 191.007812 155.070312 190.386719 C 155.265625 190.121094 155.550781 189.820312 155.921875 189.492188 C 156.296875 189.164062 156.707031 188.859375 157.160156 188.574219 C 157.613281 188.289062 158.078125 188.054688 158.558594 187.867188 C 159.039062 187.683594 159.480469 187.589844 159.890625 187.589844 C 160.457031 187.589844 160.90625 187.808594 161.234375 188.242188 C 161.5625 188.675781 161.726562 189.445312 161.726562 190.546875 C 161.726562 191.167969 161.671875 191.765625 161.566406 192.34375 C 161.460938 192.921875 161.316406 193.449219 161.140625 193.929688 L 161.273438 193.796875 C 161.875 193.121094 162.464844 192.605469 163.042969 192.25 C 163.621094 191.894531 164.113281 191.714844 164.523438 191.714844 C 165.460938 191.714844 165.933594 192.578125 165.933594 194.300781 C 165.933594 195.222656 165.808594 196.152344 165.558594 197.082031 C 165.3125 198.015625 165.089844 198.933594 164.894531 199.839844 L 164.789062 200.132812 C 164.878906 200.042969 164.953125 199.949219 165.015625 199.851562 C 165.074219 199.757812 165.152344 199.664062 165.238281 199.574219 C 165.273438 199.519531 165.332031 199.445312 165.414062 199.347656 C 165.492188 199.25 165.644531 199.050781 165.867188 198.746094 C 166.085938 198.445312 166.421875 197.992188 166.863281 197.390625 C 167.308594 196.785156 167.910156 195.960938 168.675781 194.910156 C 168.726562 194.875 168.785156 194.859375 168.847656 194.859375 C 168.910156 194.859375 168.960938 194.859375 168.996094 194.859375 C 169.242188 194.859375 169.425781 194.984375 169.539062 195.230469 C 169.65625 195.480469 169.710938 195.765625 169.710938 196.085938 C 169.710938 196.457031 169.671875 196.835938 169.59375 197.21875 C 169.511719 197.601562 169.453125 197.941406 169.417969 198.242188 C 169.328125 199.042969 169.234375 199.863281 169.128906 200.707031 C 169.019531 201.550781 168.96875 202.398438 168.96875 203.25 C 168.96875 203.714844 168.988281 204.164062 169.035156 204.609375 C 169.078125 205.050781 169.164062 205.484375 169.285156 205.914062 L 169.710938 206.046875 C 169.871094 206.191406 169.949219 206.332031 169.949219 206.472656 C 169.949219 206.578125 169.90625 206.671875 169.816406 206.753906 C 169.726562 206.832031 169.597656 206.875 169.417969 206.875 C 169.328125 206.875 169.1875 206.835938 168.992188 206.765625 C 168.796875 206.695312 168.652344 206.605469 168.566406 206.5 C 168.316406 206.199219 168.148438 205.746094 168.058594 205.144531 C 167.972656 204.539062 167.925781 203.863281 167.925781 203.117188 C 167.925781 202.636719 167.9375 202.15625 167.964844 201.667969 C 167.996094 201.179688 168.027344 200.710938 168.074219 200.269531 C 168.117188 199.824219 168.15625 199.410156 168.191406 199.027344 C 168.226562 198.648438 168.261719 198.332031 168.296875 198.082031 L 168.378906 197.070312 C 168.058594 197.550781 167.671875 198.121094 167.21875 198.789062 C 166.769531 199.453125 166.304688 200.085938 165.835938 200.679688 C 165.363281 201.277344 164.933594 201.785156 164.542969 202.210938 C 164.152344 202.636719 163.867188 202.851562 163.691406 202.851562 C 163.480469 202.851562 163.308594 202.75 163.1875 202.542969 C 163.0625 202.339844 163 202.09375 163 201.8125 C 163 201.4375 163.042969 200.988281 163.132812 200.453125 C 163.222656 199.921875 163.328125 199.382812 163.453125 198.828125 C 163.578125 198.277344 163.703125 197.75 163.828125 197.242188 C 163.953125 196.738281 164.058594 196.324219 164.148438 196.003906 C 164.289062 195.4375 164.359375 194.867188 164.359375 194.300781 C 164.359375 194.160156 164.351562 194.007812 164.335938 193.847656 C 164.316406 193.6875 164.289062 193.539062 164.253906 193.394531 C 164.113281 193.394531 163.917969 193.507812 163.667969 193.730469 C 163.417969 193.953125 163.167969 194.203125 162.910156 194.488281 C 162.652344 194.773438 162.414062 195.054688 162.191406 195.328125 C 161.96875 195.605469 161.820312 195.804688 161.75 195.925781 C 161.324219 196.550781 160.933594 197.195312 160.578125 197.871094 C 160.222656 198.546875 159.863281 199.222656 159.5 199.894531 C 159.136719 200.570312 158.75 201.226562 158.34375 201.867188 C 157.933594 202.507812 157.464844 203.09375 156.929688 203.625 C 156.71875 203.75 156.542969 203.8125 156.398438 203.8125 C 155.902344 203.8125 155.625 203.527344 155.574219 202.960938 C 155.589844 202.640625 155.671875 202.304688 155.8125 201.949219 C 155.957031 201.59375 156.117188 201.234375 156.292969 200.871094 C 156.46875 200.503906 156.65625 200.15625 156.851562 199.816406 C 157.046875 199.480469 157.214844 199.167969 157.359375 198.882812 C 157.679688 198.226562 157.949219 197.679688 158.171875 197.246094 C 158.394531 196.808594 158.597656 196.386719 158.785156 195.980469 C 158.972656 195.570312 159.148438 195.132812 159.316406 194.664062 C 159.484375 194.191406 159.667969 193.609375 159.863281 192.917969 C 159.988281 192.492188 160.085938 192.0625 160.15625 191.625 C 160.226562 191.191406 160.261719 190.777344 160.261719 190.386719 C 160.261719 189.890625 160.195312 189.488281 160.0625 189.175781 C 159.929688 188.863281 159.6875 188.707031 159.332031 188.707031 C 159.082031 188.707031 158.792969 188.792969 158.464844 188.960938 C 158.136719 189.128906 157.742188 189.398438 157.28125 189.773438 C 156.445312 190.5 155.835938 191.199219 155.457031 191.863281 C 155.074219 192.53125 154.882812 193.148438 154.882812 193.714844 C 154.882812 194.285156 155.027344 194.851562 155.308594 195.417969 C 155.59375 195.988281 155.929688 196.617188 156.320312 197.3125 Z M 156.320312 197.3125 " fill-opacity="1" fill-rule="nonzero"/><path fill="#9f864a" d="M 175.597656 197.949219 C 175.421875 198.324219 175.226562 198.695312 175.023438 199.070312 C 174.820312 199.441406 174.589844 199.789062 174.332031 200.109375 C 174.074219 200.429688 173.792969 200.707031 173.480469 200.945312 C 173.171875 201.1875 172.820312 201.359375 172.429688 201.464844 C 172.429688 201.839844 172.484375 202.207031 172.589844 202.570312 C 172.695312 202.9375 172.917969 203.117188 173.253906 203.117188 C 173.34375 203.117188 173.4375 203.109375 173.535156 203.089844 C 173.632812 203.074219 173.746094 203.019531 173.867188 202.929688 C 173.976562 202.878906 174.128906 202.78125 174.335938 202.640625 C 174.539062 202.496094 174.761719 202.332031 175 202.148438 C 175.242188 201.960938 175.472656 201.757812 175.691406 201.535156 C 175.914062 201.3125 176.078125 201.085938 176.183594 200.855469 C 176.234375 200.730469 176.316406 200.667969 176.425781 200.667969 C 176.546875 200.667969 176.664062 200.71875 176.769531 200.828125 C 176.875 200.933594 176.929688 201.058594 176.929688 201.199219 C 176.929688 201.324219 176.824219 201.519531 176.609375 201.785156 C 176.394531 202.050781 176.152344 202.328125 175.878906 202.613281 C 175.601562 202.894531 175.320312 203.164062 175.027344 203.410156 C 174.734375 203.660156 174.507812 203.820312 174.347656 203.890625 C 174.292969 203.90625 174.136719 203.988281 173.882812 204.128906 C 173.625 204.273438 173.40625 204.34375 173.226562 204.34375 C 172.835938 204.34375 172.5 204.261719 172.214844 204.101562 C 171.933594 203.945312 171.695312 203.730469 171.511719 203.464844 C 171.324219 203.199219 171.1875 202.890625 171.097656 202.546875 C 171.007812 202.199219 170.964844 201.839844 170.964844 201.464844 C 170.859375 201.414062 170.804688 201.316406 170.804688 201.175781 C 170.804688 201.050781 170.847656 200.941406 170.9375 200.855469 C 170.9375 200.640625 170.945312 200.421875 170.964844 200.203125 C 170.980469 199.980469 171.027344 199.753906 171.097656 199.523438 C 171.203125 199.148438 171.351562 198.707031 171.539062 198.191406 C 171.722656 197.675781 171.957031 197.183594 172.242188 196.710938 C 172.527344 196.242188 172.863281 195.84375 173.253906 195.511719 C 173.644531 195.183594 174.089844 195.019531 174.585938 195.019531 C 175.082031 195.019531 175.421875 195.183594 175.597656 195.511719 C 175.777344 195.84375 175.863281 196.21875 175.863281 196.644531 C 175.863281 196.890625 175.84375 197.136719 175.796875 197.378906 C 175.753906 197.617188 175.6875 197.808594 175.597656 197.949219 Z M 174.316406 196.832031 C 174.140625 196.976562 173.964844 197.183594 173.785156 197.457031 C 173.609375 197.734375 173.445312 198.03125 173.304688 198.351562 C 173.160156 198.671875 173.03125 199 172.90625 199.335938 C 172.78125 199.675781 172.683594 199.984375 172.613281 200.269531 C 172.828125 200.074219 173.09375 199.699219 173.414062 199.148438 C 173.484375 199.027344 173.574219 198.871094 173.679688 198.683594 C 173.785156 198.496094 173.882812 198.292969 173.96875 198.070312 C 174.058594 197.847656 174.136719 197.632812 174.210938 197.417969 C 174.28125 197.203125 174.316406 197.007812 174.316406 196.832031 Z M 174.316406 196.832031 " fill-opacity="1" fill-rule="nonzero"/><path fill="#9f864a" d="M 180.707031 196.964844 C 180.902344 197 181.070312 197.070312 181.214844 197.175781 L 181.320312 196.9375 C 181.496094 196.121094 181.6875 195.304688 181.894531 194.484375 C 182.097656 193.667969 182.3125 192.859375 182.542969 192.0625 C 182.617188 191.832031 182.710938 191.503906 182.824219 191.078125 C 182.941406 190.652344 183.082031 190.238281 183.25 189.835938 C 183.417969 189.4375 183.625 189.085938 183.875 188.785156 C 184.125 188.484375 184.417969 188.332031 184.753906 188.332031 C 185.089844 188.332031 185.328125 188.4375 185.460938 188.652344 C 185.59375 188.867188 185.660156 189.148438 185.660156 189.503906 C 185.660156 189.769531 185.625 190.054688 185.566406 190.355469 C 185.503906 190.660156 185.429688 190.960938 185.351562 191.261719 C 185.273438 191.5625 185.183594 191.859375 185.085938 192.140625 C 184.988281 192.425781 184.902344 192.683594 184.832031 192.914062 C 184.585938 193.660156 184.292969 194.4375 183.953125 195.242188 C 183.617188 196.054688 183.21875 196.855469 182.757812 197.65625 C 182.632812 198.332031 182.511719 199 182.398438 199.667969 C 182.28125 200.332031 182.171875 201.003906 182.0625 201.679688 L 182.0625 201.625 C 182.046875 201.804688 182.027344 201.980469 182.007812 202.15625 C 181.992188 202.335938 181.984375 202.511719 181.984375 202.691406 C 181.984375 203.152344 182.054688 203.535156 182.199219 203.835938 C 182.390625 203.835938 182.625 203.730469 182.890625 203.515625 C 183.15625 203.304688 183.421875 203.054688 183.6875 202.773438 C 183.953125 202.488281 184.199219 202.210938 184.421875 201.945312 C 184.640625 201.679688 184.808594 201.492188 184.910156 201.386719 C 185.035156 201.296875 185.140625 201.253906 185.230469 201.253906 C 185.515625 201.253906 185.65625 201.394531 185.65625 201.679688 C 185.65625 201.785156 185.621094 201.898438 185.550781 202.023438 C 185.25 202.34375 184.953125 202.671875 184.660156 203.011719 C 184.367188 203.347656 184.078125 203.660156 183.792969 203.941406 C 183.511719 204.226562 183.234375 204.460938 182.96875 204.648438 C 182.703125 204.832031 182.4375 204.929688 182.171875 204.929688 C 181.921875 204.929688 181.707031 204.84375 181.53125 204.675781 C 181.351562 204.507812 181.210938 204.277344 181.105469 203.984375 C 181 203.691406 180.921875 203.34375 180.878906 202.945312 C 180.835938 202.546875 180.8125 202.113281 180.8125 201.652344 C 180.8125 201.472656 180.8125 201.304688 180.8125 201.144531 C 180.8125 200.984375 180.820312 200.828125 180.839844 200.667969 C 180.625 200.949219 180.371094 201.273438 180.066406 201.636719 C 179.765625 202.003906 179.460938 202.347656 179.148438 202.679688 C 178.835938 203.007812 178.53125 203.28125 178.226562 203.503906 C 177.925781 203.726562 177.660156 203.835938 177.429688 203.835938 L 177.296875 203.835938 C 176.992188 203.675781 176.785156 203.5625 176.671875 203.488281 C 176.554688 203.417969 176.480469 203.257812 176.445312 203.011719 C 176.445312 202.351562 176.5625 201.664062 176.804688 200.945312 C 177.042969 200.226562 177.359375 199.574219 177.75 198.988281 C 178.140625 198.402344 178.578125 197.917969 179.066406 197.535156 C 179.554688 197.152344 180.054688 196.964844 180.570312 196.964844 Z M 177.78125 202.078125 C 178.328125 201.511719 178.855469 200.871094 179.363281 200.160156 C 179.871094 199.453125 180.351562 198.707031 180.816406 197.925781 C 180.761719 197.90625 180.691406 197.898438 180.601562 197.898438 L 180.574219 197.898438 C 179.722656 198.289062 179.09375 198.863281 178.683594 199.617188 C 178.277344 200.371094 177.976562 201.191406 177.78125 202.078125 Z M 182.09375 201.414062 C 182.074219 201.433594 182.066406 201.464844 182.066406 201.519531 C 182.082031 201.503906 182.09375 201.464844 182.09375 201.414062 Z M 184.464844 191.316406 C 184.464844 191.300781 184.46875 191.289062 184.476562 191.277344 C 184.484375 191.269531 184.488281 191.253906 184.488281 191.238281 C 184.472656 191.257812 184.464844 191.28125 184.464844 191.316406 L 184.464844 191.34375 Z M 184.464844 191.316406 " fill-opacity="1" fill-rule="nonzero"/><path fill="#9f864a" d="M 186.378906 197.523438 C 186.59375 197.257812 186.78125 197.125 186.9375 197.125 C 187.132812 197.125 187.230469 197.292969 187.230469 197.628906 C 187.089844 198.5 186.953125 199.308594 186.820312 200.054688 C 186.6875 200.800781 186.621094 201.40625 186.621094 201.867188 C 186.621094 202.363281 186.714844 202.621094 186.910156 202.640625 C 187.035156 202.691406 187.175781 202.71875 187.335938 202.71875 C 187.761719 202.71875 188.242188 202.59375 188.773438 202.347656 C 189.308594 202.097656 189.761719 201.777344 190.132812 201.386719 C 190.238281 201.351562 190.320312 201.332031 190.371094 201.332031 C 190.496094 201.332031 190.601562 201.378906 190.691406 201.46875 C 190.78125 201.558594 190.824219 201.664062 190.824219 201.789062 C 190.824219 201.875 190.78125 201.984375 190.691406 202.105469 C 189.785156 202.851562 189.003906 203.371094 188.347656 203.664062 C 187.691406 203.957031 187.132812 204.101562 186.671875 204.101562 C 186.136719 204.101562 185.753906 203.929688 185.511719 203.582031 C 185.273438 203.238281 185.152344 202.796875 185.152344 202.265625 C 185.152344 201.289062 185.285156 200.421875 185.554688 199.667969 C 185.820312 198.914062 186.09375 198.199219 186.378906 197.523438 Z M 188.109375 192.675781 C 188.199219 192.820312 188.246094 192.949219 188.246094 193.074219 C 188.246094 193.234375 188.195312 193.371094 188.097656 193.488281 C 188 193.601562 187.878906 193.660156 187.738281 193.660156 C 187.59375 193.660156 187.46875 193.59375 187.351562 193.460938 C 187.238281 193.328125 187.179688 193.199219 187.179688 193.074219 C 187.179688 192.933594 187.230469 192.808594 187.339844 192.703125 C 187.445312 192.597656 187.570312 192.542969 187.710938 192.542969 C 187.871094 192.542969 188.003906 192.589844 188.109375 192.675781 Z M 188.109375 192.675781 " fill-opacity="1" fill-rule="nonzero"/><path fill="#9f864a" d="M 191.226562 199.789062 C 191.277344 199.203125 191.34375 198.628906 191.425781 198.070312 C 191.503906 197.511719 191.605469 196.949219 191.730469 196.378906 C 191.089844 196.523438 190.632812 196.644531 190.359375 196.75 C 190.085938 196.855469 189.875 196.910156 189.734375 196.910156 C 189.523438 196.910156 189.414062 196.769531 189.414062 196.484375 C 189.414062 196.21875 189.585938 195.964844 189.933594 195.726562 C 190.28125 195.484375 190.683594 195.269531 191.144531 195.070312 C 191.429688 194.824219 191.652344 194.597656 191.8125 194.390625 C 191.972656 194.1875 192.105469 193.976562 192.210938 193.753906 C 192.316406 193.53125 192.40625 193.285156 192.476562 193.019531 C 192.546875 192.753906 192.636719 192.433594 192.742188 192.0625 C 192.796875 191.902344 192.863281 191.640625 192.941406 191.273438 C 193.023438 190.910156 193.128906 190.542969 193.261719 190.167969 C 193.398438 189.796875 193.558594 189.46875 193.753906 189.183594 C 193.949219 188.898438 194.191406 188.757812 194.472656 188.757812 C 194.757812 188.757812 194.898438 188.890625 194.898438 189.15625 C 194.898438 189.300781 194.871094 189.5 194.820312 189.757812 C 194.769531 190.015625 194.691406 190.347656 194.59375 190.753906 C 194.496094 191.164062 194.378906 191.664062 194.25 192.261719 C 194.113281 192.855469 193.96875 193.5625 193.808594 194.378906 C 193.988281 194.378906 194.15625 194.375 194.316406 194.367188 C 194.476562 194.355469 194.636719 194.351562 194.796875 194.351562 C 194.992188 194.351562 195.226562 194.351562 195.5 194.351562 C 195.777344 194.351562 196.042969 194.367188 196.300781 194.390625 C 196.558594 194.417969 196.773438 194.46875 196.953125 194.539062 C 197.128906 194.609375 197.21875 194.726562 197.21875 194.882812 C 197.21875 195.042969 197.0625 195.175781 196.753906 195.285156 C 196.441406 195.390625 196.078125 195.488281 195.660156 195.578125 C 195.242188 195.664062 194.820312 195.75 194.394531 195.828125 C 193.96875 195.910156 193.640625 195.992188 193.410156 196.082031 C 193.214844 196.933594 193.046875 197.84375 192.90625 198.8125 C 192.761719 199.78125 192.691406 200.691406 192.691406 201.542969 C 192.691406 201.648438 192.695312 201.789062 192.703125 201.96875 C 192.714844 202.144531 192.722656 202.328125 192.734375 202.511719 C 192.742188 202.699219 192.757812 202.859375 192.785156 202.992188 C 192.8125 203.128906 192.851562 203.191406 192.90625 203.191406 C 193.101562 203.191406 193.503906 202.902344 194.117188 202.328125 C 194.730469 201.75 195.382812 200.921875 196.074219 199.835938 C 196.160156 199.75 196.269531 199.703125 196.390625 199.703125 C 196.515625 199.703125 196.625 199.742188 196.710938 199.824219 C 196.800781 199.902344 196.847656 200.007812 196.847656 200.128906 C 196.847656 200.21875 196.800781 200.324219 196.710938 200.449219 C 196.464844 200.929688 196.167969 201.425781 195.820312 201.941406 C 195.476562 202.457031 195.113281 202.917969 194.742188 203.328125 C 194.371094 203.734375 193.996094 204.074219 193.625 204.339844 C 193.253906 204.605469 192.90625 204.738281 192.585938 204.738281 C 192.285156 204.738281 192.039062 204.632812 191.855469 204.417969 C 191.667969 204.203125 191.515625 203.949219 191.402344 203.644531 C 191.289062 203.34375 191.207031 203.023438 191.164062 202.6875 C 191.117188 202.347656 191.097656 202.046875 191.097656 201.78125 C 191.097656 201.425781 191.109375 201.078125 191.136719 200.742188 C 191.160156 200.410156 191.1875 200.089844 191.226562 199.789062 Z M 191.226562 199.789062 " fill-opacity="1" fill-rule="nonzero"/><path fill="#9f864a" d="M 201.050781 197.523438 C 201.050781 197.578125 201.046875 197.621094 201.039062 197.660156 C 201.027344 197.695312 201.015625 197.730469 200.996094 197.765625 C 201.03125 197.765625 201.0625 197.761719 201.089844 197.75 C 201.117188 197.742188 201.148438 197.738281 201.183594 197.738281 C 201.433594 197.738281 201.621094 197.820312 201.746094 197.992188 C 201.871094 198.160156 201.933594 198.386719 201.933594 198.671875 C 201.878906 198.902344 201.804688 199.195312 201.703125 199.550781 C 201.609375 199.90625 201.503906 200.273438 201.398438 200.65625 C 201.292969 201.039062 201.199219 201.414062 201.121094 201.789062 C 201.039062 202.160156 201 202.488281 201 202.773438 C 201 202.933594 201.015625 203.082031 201.050781 203.226562 C 201.316406 203.207031 201.566406 203.101562 201.796875 202.90625 C 202.027344 202.710938 202.25 202.5 202.460938 202.28125 C 202.675781 202.058594 202.871094 201.855469 203.046875 201.664062 C 203.226562 201.480469 203.386719 201.386719 203.527344 201.386719 C 203.8125 201.386719 203.953125 201.527344 203.953125 201.8125 C 203.953125 201.917969 203.917969 202.035156 203.847656 202.15625 C 203.757812 202.246094 203.613281 202.417969 203.410156 202.664062 C 203.203125 202.914062 202.96875 203.171875 202.703125 203.4375 C 202.4375 203.703125 202.140625 203.945312 201.8125 204.15625 C 201.484375 204.371094 201.160156 204.476562 200.839844 204.476562 C 200.59375 204.476562 200.386719 204.402344 200.226562 204.25 C 200.066406 204.101562 199.949219 203.910156 199.867188 203.675781 C 199.789062 203.445312 199.734375 203.207031 199.707031 202.957031 C 199.683594 202.710938 199.667969 202.476562 199.667969 202.265625 C 199.5625 202.371094 199.421875 202.496094 199.257812 202.640625 C 199.085938 202.78125 198.90625 202.925781 198.710938 203.066406 C 198.515625 203.207031 198.320312 203.328125 198.125 203.425781 C 197.929688 203.523438 197.761719 203.570312 197.621094 203.570312 C 197.15625 203.570312 196.785156 203.421875 196.5 203.121094 C 196.214844 202.816406 196.074219 202.398438 196.074219 201.867188 C 196.074219 201.121094 196.183594 200.402344 196.40625 199.710938 C 196.628906 199.015625 196.917969 198.398438 197.273438 197.859375 C 197.628906 197.316406 198.023438 196.886719 198.457031 196.566406 C 198.894531 196.246094 199.316406 196.085938 199.722656 196.085938 C 200.113281 196.085938 200.433594 196.21875 200.683594 196.484375 C 200.929688 196.75 201.054688 197.0625 201.054688 197.417969 L 201.054688 197.523438 Z M 197.640625 201.734375 C 198.015625 201.519531 198.316406 201.253906 198.546875 200.933594 C 198.777344 200.613281 198.992188 200.277344 199.1875 199.921875 C 199.382812 199.566406 199.578125 199.222656 199.773438 198.882812 C 199.96875 198.546875 200.207031 198.253906 200.492188 198.003906 C 200.296875 197.933594 200.199219 197.792969 200.199219 197.578125 L 200.175781 197.390625 L 199.5625 197.179688 C 199.242188 197.390625 198.960938 197.660156 198.722656 197.976562 C 198.484375 198.296875 198.285156 198.648438 198.125 199.03125 C 197.964844 199.414062 197.84375 199.808594 197.761719 200.214844 C 197.683594 200.625 197.644531 201.023438 197.644531 201.414062 L 197.644531 201.734375 Z M 197.640625 201.734375 " fill-opacity="1" fill-rule="nonzero"/><path fill="#9f864a" d="M 205.628906 199.789062 C 205.683594 199.203125 205.75 198.628906 205.828125 198.070312 C 205.910156 197.511719 206.011719 196.949219 206.136719 196.378906 C 205.496094 196.523438 205.039062 196.644531 204.765625 196.75 C 204.488281 196.855469 204.28125 196.910156 204.136719 196.910156 C 203.925781 196.910156 203.820312 196.769531 203.820312 196.484375 C 203.820312 196.21875 203.992188 195.964844 204.339844 195.726562 C 204.683594 195.484375 205.089844 195.269531 205.550781 195.070312 C 205.835938 194.824219 206.054688 194.597656 206.214844 194.390625 C 206.375 194.1875 206.511719 193.976562 206.617188 193.753906 C 206.722656 193.53125 206.8125 193.285156 206.882812 193.019531 C 206.953125 192.753906 207.042969 192.433594 207.148438 192.0625 C 207.199219 191.902344 207.269531 191.640625 207.347656 191.273438 C 207.425781 190.910156 207.535156 190.542969 207.667969 190.167969 C 207.800781 189.796875 207.964844 189.46875 208.160156 189.183594 C 208.355469 188.898438 208.59375 188.757812 208.878906 188.757812 C 209.164062 188.757812 209.304688 188.890625 209.304688 189.15625 C 209.304688 189.300781 209.277344 189.5 209.222656 189.757812 C 209.171875 190.015625 209.09375 190.347656 209 190.753906 C 208.902344 191.164062 208.785156 191.664062 208.652344 192.261719 C 208.519531 192.855469 208.371094 193.5625 208.214844 194.378906 C 208.390625 194.378906 208.558594 194.375 208.71875 194.367188 C 208.878906 194.355469 209.039062 194.351562 209.199219 194.351562 C 209.394531 194.351562 209.628906 194.351562 209.90625 194.351562 C 210.179688 194.351562 210.445312 194.367188 210.703125 194.390625 C 210.964844 194.417969 211.179688 194.46875 211.355469 194.539062 C 211.535156 194.609375 211.621094 194.726562 211.621094 194.882812 C 211.621094 195.042969 211.46875 195.175781 211.15625 195.285156 C 210.847656 195.390625 210.480469 195.488281 210.066406 195.578125 C 209.648438 195.664062 209.226562 195.75 208.800781 195.828125 C 208.375 195.910156 208.046875 195.992188 207.816406 196.082031 C 207.621094 196.933594 207.449219 197.84375 207.308594 198.8125 C 207.167969 199.78125 207.097656 200.691406 207.097656 201.542969 C 207.097656 201.648438 207.101562 201.789062 207.109375 201.96875 C 207.117188 202.144531 207.125 202.328125 207.136719 202.511719 C 207.144531 202.699219 207.164062 202.859375 207.1875 202.992188 C 207.214844 203.128906 207.253906 203.191406 207.308594 203.191406 C 207.503906 203.191406 207.910156 202.902344 208.519531 202.328125 C 209.132812 201.75 209.785156 200.921875 210.476562 199.835938 C 210.566406 199.75 210.671875 199.703125 210.796875 199.703125 C 210.921875 199.703125 211.027344 199.742188 211.117188 199.824219 C 211.207031 199.902344 211.25 200.007812 211.25 200.128906 C 211.25 200.21875 211.207031 200.324219 211.117188 200.449219 C 210.867188 200.929688 210.570312 201.425781 210.226562 201.941406 C 209.878906 202.457031 209.519531 202.917969 209.144531 203.328125 C 208.773438 203.734375 208.402344 204.074219 208.027344 204.339844 C 207.65625 204.605469 207.308594 204.738281 206.992188 204.738281 C 206.691406 204.738281 206.445312 204.632812 206.257812 204.417969 C 206.074219 204.203125 205.921875 203.949219 205.808594 203.644531 C 205.691406 203.34375 205.613281 203.023438 205.566406 202.6875 C 205.523438 202.347656 205.5 202.046875 205.5 201.78125 C 205.5 201.425781 205.515625 201.078125 205.542969 200.742188 C 205.5625 200.410156 205.59375 200.089844 205.628906 199.789062 Z M 205.628906 199.789062 " fill-opacity="1" fill-rule="nonzero"/><path fill="#9f864a" d="M 212.6875 197.523438 C 212.898438 197.257812 213.085938 197.125 213.246094 197.125 C 213.441406 197.125 213.539062 197.292969 213.539062 197.628906 C 213.394531 198.5 213.257812 199.308594 213.125 200.054688 C 212.992188 200.800781 212.925781 201.40625 212.925781 201.867188 C 212.925781 202.363281 213.023438 202.621094 213.21875 202.640625 C 213.34375 202.691406 213.484375 202.71875 213.644531 202.71875 C 214.070312 202.71875 214.550781 202.59375 215.082031 202.347656 C 215.613281 202.097656 216.066406 201.777344 216.4375 201.386719 C 216.542969 201.351562 216.625 201.332031 216.679688 201.332031 C 216.800781 201.332031 216.910156 201.378906 216.996094 201.46875 C 217.085938 201.558594 217.132812 201.664062 217.132812 201.789062 C 217.132812 201.875 217.085938 201.984375 216.996094 202.105469 C 216.09375 202.851562 215.3125 203.371094 214.65625 203.664062 C 214 203.957031 213.4375 204.101562 212.976562 204.101562 C 212.445312 204.101562 212.058594 203.929688 211.820312 203.582031 C 211.578125 203.238281 211.460938 202.796875 211.460938 202.265625 C 211.460938 201.289062 211.59375 200.421875 211.859375 199.667969 C 212.125 198.914062 212.402344 198.199219 212.6875 197.523438 Z M 214.417969 192.675781 C 214.507812 192.820312 214.550781 192.949219 214.550781 193.074219 C 214.550781 193.234375 214.5 193.371094 214.40625 193.488281 C 214.308594 193.601562 214.1875 193.660156 214.042969 193.660156 C 213.902344 193.660156 213.773438 193.59375 213.660156 193.460938 C 213.542969 193.328125 213.484375 193.199219 213.484375 193.074219 C 213.484375 192.933594 213.539062 192.808594 213.644531 192.703125 C 213.75 192.597656 213.875 192.542969 214.019531 192.542969 C 214.175781 192.542969 214.308594 192.589844 214.417969 192.675781 Z M 214.417969 192.675781 " fill-opacity="1" fill-rule="nonzero"/><path fill="#9f864a" d="M 219.820312 197.550781 C 219.820312 197.570312 219.832031 197.585938 219.847656 197.605469 C 220.628906 197.25 221.449219 196.949219 222.3125 196.699219 C 223.171875 196.453125 224.011719 196.226562 224.828125 196.03125 C 225.164062 196.03125 225.332031 196.175781 225.332031 196.457031 C 225.332031 196.617188 225.246094 196.75 225.066406 196.859375 C 224.5 197.089844 223.941406 197.324219 223.390625 197.566406 C 222.839844 197.804688 222.289062 198.058594 221.738281 198.324219 C 221.898438 198.589844 221.980469 198.894531 221.980469 199.230469 C 221.980469 199.496094 221.917969 199.839844 221.792969 200.253906 C 221.667969 200.675781 221.496094 201.085938 221.273438 201.496094 C 221.050781 201.902344 220.773438 202.28125 220.4375 202.628906 C 220.097656 202.972656 219.71875 203.226562 219.292969 203.386719 C 219.113281 203.457031 218.921875 203.492188 218.71875 203.492188 C 218.511719 203.492188 218.304688 203.511719 218.09375 203.546875 C 217.789062 203.511719 217.507812 203.320312 217.253906 202.972656 C 216.996094 202.628906 216.867188 202.214844 216.867188 201.734375 C 216.867188 201.363281 216.953125 200.90625 217.117188 200.363281 C 217.285156 199.820312 217.496094 199.296875 217.746094 198.789062 C 217.992188 198.285156 218.253906 197.847656 218.53125 197.484375 C 218.804688 197.121094 219.058594 196.9375 219.289062 196.9375 C 219.449219 196.9375 219.582031 197.019531 219.6875 197.179688 L 219.820312 197.523438 Z M 219.609375 199.175781 C 219.304688 199.015625 219.128906 198.8125 219.074219 198.5625 C 218.824219 199.078125 218.65625 199.625 218.570312 200.203125 C 218.480469 200.777344 218.433594 201.34375 218.433594 201.894531 C 218.71875 201.859375 218.976562 201.710938 219.207031 201.457031 C 219.4375 201.199219 219.632812 200.917969 219.792969 200.617188 C 219.953125 200.3125 220.082031 200.03125 220.179688 199.765625 C 220.277344 199.496094 220.328125 199.347656 220.328125 199.3125 L 220.328125 199.257812 C 220.222656 199.222656 220.097656 199.207031 219.953125 199.21875 C 219.8125 199.226562 219.695312 199.210938 219.609375 199.175781 Z M 219.609375 199.175781 " fill-opacity="1" fill-rule="nonzero"/><path fill="#9f864a" d="M 226.050781 197.234375 C 226.066406 197.445312 226.085938 197.660156 226.105469 197.871094 C 226.121094 198.085938 226.132812 198.296875 226.132812 198.511719 C 226.132812 198.5625 226.125 198.621094 226.117188 198.683594 C 226.109375 198.746094 226.105469 198.8125 226.105469 198.882812 C 226.226562 198.652344 226.394531 198.363281 226.609375 198.019531 C 226.824219 197.671875 227.050781 197.339844 227.289062 197.019531 C 227.527344 196.699219 227.769531 196.425781 228.007812 196.191406 C 228.246094 195.960938 228.457031 195.847656 228.632812 195.847656 C 229.058594 195.847656 229.359375 195.960938 229.539062 196.191406 C 229.714844 196.425781 229.804688 196.648438 229.804688 196.859375 C 229.804688 197.621094 229.734375 198.375 229.589844 199.109375 C 229.449219 199.847656 229.378906 200.589844 229.378906 201.332031 C 229.378906 201.527344 229.382812 201.722656 229.394531 201.917969 C 229.402344 202.113281 229.421875 202.308594 229.460938 202.503906 L 229.886719 202.824219 L 231.351562 202.375 C 231.457031 202.339844 231.527344 202.320312 231.5625 202.320312 C 231.863281 202.320312 232.015625 202.460938 232.015625 202.746094 C 232.015625 202.871094 231.921875 203.003906 231.734375 203.144531 C 231.550781 203.289062 231.332031 203.417969 231.082031 203.53125 C 230.835938 203.648438 230.582031 203.742188 230.324219 203.8125 C 230.066406 203.882812 229.867188 203.917969 229.726562 203.917969 C 229.226562 203.917969 228.796875 203.664062 228.433594 203.144531 C 228.070312 202.628906 227.886719 201.902344 227.886719 200.960938 C 227.886719 200.589844 227.90625 200.226562 227.941406 199.871094 C 227.976562 199.515625 228.011719 199.214844 228.046875 198.964844 C 227.710938 199.410156 227.410156 199.878906 227.144531 200.375 C 226.875 200.875 226.617188 201.371094 226.371094 201.867188 C 226.28125 202.027344 226.191406 202.21875 226.105469 202.441406 C 226.015625 202.664062 225.914062 202.871094 225.796875 203.066406 C 225.683594 203.261719 225.542969 203.425781 225.382812 203.558594 C 225.222656 203.691406 225.039062 203.757812 224.824219 203.757812 C 224.628906 203.757812 224.46875 203.699219 224.34375 203.570312 C 224.21875 203.449219 224.140625 203.261719 224.105469 203.011719 C 224.105469 202.691406 224.140625 202.351562 224.210938 201.988281 C 224.28125 201.621094 224.367188 201.261719 224.464844 200.894531 C 224.558594 200.53125 224.664062 200.179688 224.769531 199.84375 C 224.875 199.503906 224.964844 199.1875 225.035156 198.882812 L 225.035156 198.859375 C 225.050781 198.699219 225.066406 198.507812 225.074219 198.285156 C 225.085938 198.0625 225.101562 197.847656 225.128906 197.644531 C 225.15625 197.441406 225.199219 197.269531 225.261719 197.125 C 225.324219 196.984375 225.4375 196.914062 225.597656 196.914062 C 225.828125 196.914062 225.96875 197.019531 226.023438 197.234375 Z M 226.050781 197.234375 " fill-opacity="1" fill-rule="nonzero"/></svg>