<?xml version="1.0" encoding="utf-8"?>
<!-- Generator: Adobe Illustrator 27.7.0, SVG Export Plug-In . SVG Version: 6.00 Build 0)  -->
<svg version="1.1" id="Ebene_1" xmlns="http://www.w3.org/2000/svg" xmlns:xlink="http://www.w3.org/1999/xlink" x="0px" y="0px"
	 viewBox="0 0 1144.85 1460.63" style="enable-background:new 0 0 1144.85 1460.63;" xml:space="preserve">
<style type="text/css">
	.st0{fill-rule:evenodd;clip-rule:evenodd;fill:url(#SVGID_1_);}
	.st1{fill-rule:evenodd;clip-rule:evenodd;fill:url(#SVGID_00000090256303657666405020000016909006864998165378_);}
	.st2{fill-rule:evenodd;clip-rule:evenodd;fill:url(#SVGID_00000110449762464625457330000014957931624203788471_);}
	.st3{fill-rule:evenodd;clip-rule:evenodd;fill:url(#SVGID_00000181077539880173508840000007563912993418064574_);}
	.st4{fill-rule:evenodd;clip-rule:evenodd;fill:url(#SVGID_00000064336922738477049550000002360269059406879671_);}
	.st5{fill-rule:evenodd;clip-rule:evenodd;fill:url(#SVGID_00000021117740265926363310000000865919760057670829_);}
	.st6{fill:#FFFFFF;}
	.st7{fill-rule:evenodd;clip-rule:evenodd;fill:#FFFFFF;}
	.st8{fill:#D6CAB1;}
	.st9{fill:#3A2D18;}
	.st10{fill-rule:evenodd;clip-rule:evenodd;fill:url(#SVGID_00000044138960649499923540000008763509438428549541_);}
	.st11{fill:#9F864A;}
	.st12{fill-rule:evenodd;clip-rule:evenodd;fill:url(#SVGID_00000015323515914639460940000003499472944009454476_);}
	.st13{fill-rule:evenodd;clip-rule:evenodd;fill:url(#SVGID_00000160150961170151384010000013884354413488987008_);}
	.st14{fill-rule:evenodd;clip-rule:evenodd;fill:url(#SVGID_00000073715690342433766230000001016482398564922538_);}
	.st15{fill-rule:evenodd;clip-rule:evenodd;fill:url(#SVGID_00000176029264627825404560000004747368988458557827_);}
	.st16{fill-rule:evenodd;clip-rule:evenodd;fill:url(#SVGID_00000071557359934099351880000017903724208446474646_);}
	.st17{fill:#9F864C;}
</style>
<linearGradient id="SVGID_1_" gradientUnits="userSpaceOnUse" x1="680.2221" y1="803.7747" x2="386.7646" y2="295.4914">
	<stop  offset="0" style="stop-color:#AD9553"/>
	<stop  offset="0.2499" style="stop-color:#A38A4D"/>
	<stop  offset="0.5257" style="stop-color:#9F864A"/>
	<stop  offset="0.9916" style="stop-color:#AD9553"/>
	<stop  offset="1" style="stop-color:#AD9553"/>
</linearGradient>
<path class="st0" d="M570.74,189.27c0,0-267.65,209.19-289.4,443.48S872.09,693,872.09,693S796.55,289.68,570.74,189.27z"/>
<g>
	<path class="st8" d="M507.9,1255.99v60.29h-6.11v-48.23l-23.69,40.57h-3.02l-23.68-40.31v47.97h-6.12v-60.29h5.25l26.18,44.7
		l25.92-44.7H507.9z"/>
	<path class="st8" d="M576.44,1310.76v5.51H533.8v-60.29h41.34v5.51h-34.97v21.44h31.18v5.43h-31.18v22.39H576.44z"/>
	<path class="st8" d="M648.08,1255.99v60.29h-5.25l-38.75-48.92v48.92h-6.37v-60.29h5.25l38.84,48.92v-48.92H648.08z"/>
	<path class="st8" d="M685.69,1261.5h-21.18v-5.51h48.74v5.51h-21.18v54.77h-6.37V1261.5z"/>
	<path class="st8" d="M723.5,1286.13c0-17.57,13.43-30.66,31.69-30.66c18.08,0,31.61,13,31.61,30.66s-13.52,30.66-31.61,30.66
		C736.93,1316.79,723.5,1303.7,723.5,1286.13z M780.43,1286.13c0-14.38-10.77-24.98-25.23-24.98c-14.56,0-25.41,10.59-25.41,24.98
		s10.85,24.98,25.41,24.98C769.66,1311.11,780.43,1300.52,780.43,1286.13z"/>
	<path class="st8" d="M848.53,1316.28l-13.78-19.38c-1.55,0.17-3.1,0.26-4.82,0.26h-16.19v19.12h-6.37v-60.29h22.57
		c15.33,0,24.63,7.75,24.63,20.67c0,9.47-5,16.1-13.78,18.95l14.73,20.67H848.53z M848.19,1276.66c0-9.65-6.37-15.16-18.43-15.16
		h-16.02v30.23h16.02C841.82,1291.73,848.19,1286.13,848.19,1276.66z"/>
	<path class="st8" d="M875.9,1255.99h6.37v60.29h-6.37V1255.99z"/>
	<path class="st8" d="M958.57,1255.99v60.29h-5.25l-38.75-48.92v48.92h-6.37v-60.29h5.25l38.84,48.92v-48.92H958.57z"/>
	<path class="st8" d="M1026.94,1286.13h6.11v23c-5.68,5.08-13.78,7.66-22.13,7.66c-18.34,0-31.78-13-31.78-30.66
		s13.43-30.66,31.86-30.66c9.13,0,17.05,2.93,22.39,8.7l-3.96,4.05c-5.08-5-11.11-7.06-18.17-7.06c-14.9,0-25.83,10.59-25.83,24.98
		c0,14.3,10.94,24.98,25.75,24.98c5.77,0,11.11-1.29,15.76-4.65V1286.13z"/>
</g>
<g>
	<path class="st6" d="M156.18,1207.89c22.9,0,41.56-13.57,41.56-36.47c0-45.16-60.21-34.13-60.21-60.21
		c0-9.97,7.84-14.63,17.17-14.63c8.48,0,16.11,3.82,21.84,11.02l14.63-13.35c-8.05-9.97-21.41-16.97-36.47-16.97
		c-19.93,0-37.95,12.51-37.95,35.41c0,42.19,60.21,31.8,60.21,58.73c0,10.39-8.69,16.54-20.57,16.54
		c-12.93,0-22.68-7.21-27.14-18.02l-17.81,10.81C118.87,1196.66,135.83,1207.89,156.18,1207.89L156.18,1207.89z"/>
	<path class="st6" d="M352.07,1206.2h22.48l-46.01-127.21h-23.11l-46.01,127.21h22.47l9.12-26.93h51.95L352.07,1206.2L352.07,1206.2
		z M297.16,1161.04l19.93-59.36l19.93,59.36H297.16L297.16,1161.04z"/>
	<path class="st6" d="M514.67,1141.75c10.39-5.09,16.96-14.63,16.96-28.2c0-20.99-16.33-34.56-36.67-34.56h-50.04v127.21h54.7
		c20.14,0,36.26-13.15,36.26-34.14C535.88,1156.58,527.19,1146.41,514.67,1141.75L514.67,1141.75z M510.86,1115.67
		c0,9.97-8.27,17.81-18.24,17.81h-27.14v-35.2h27.14C502.59,1098.28,510.86,1105.49,510.86,1115.67L510.86,1115.67z M496.65,1186.9
		h-31.17v-35.2h31.17c10.18,0,18.44,7.85,18.44,17.81C515.1,1179.49,506.83,1186.9,496.65,1186.9L496.65,1186.9z"/>
	<path class="st6" d="M692.97,1206.2h22.47l-46-127.21h-23.11l-46,127.21h22.47l9.12-26.93h51.94L692.97,1206.2L692.97,1206.2z
		 M638.06,1161.04l19.93-59.36l19.93,59.36H638.06L638.06,1161.04z"/>
	<polygon class="st6" points="806.6,1186.9 806.6,1078.99 785.82,1078.99 785.82,1206.2 851.33,1206.2 851.33,1186.9 806.6,1186.9 	
		"/>
	<path class="st6" d="M1009.9,1206.2h22.47l-46-127.21h-23.11l-46,127.21h22.47l9.12-26.93h51.94L1009.9,1206.2L1009.9,1206.2z
		 M954.99,1161.04l19.93-59.36l19.93,59.36H954.99L954.99,1161.04z"/>
</g>
<path class="st7" d="M571.73,128.94c226.31,0,410.03,183.73,410.03,410.03S798.04,949.01,571.73,949.01
	c-226.3,0-410.03-183.73-410.03-410.03S345.43,128.94,571.73,128.94L571.73,128.94z M682.82,354.49
	c78.8,108.1,156.41,276.57,129.49,323.49c-40.65,70.85-441.34,76.93-481.14,7.47c-9.18-16.02-5.42-47.19,6.78-85.71
	c70.28,26.26,349.52,66.92,348.55-60.77c-0.61-80.94-107.77-53.19-93.8-118.15C602.49,375.28,682.51,354.58,682.82,354.49
	L682.82,354.49z M674.7,343.57c-0.33,0.09-83.4,22.07-96.65,70.31c-21.22,77.22,85.14,65.46,92.43,113.25
	c18.72,122.73-259.56,84.32-327.89,58.79c45.47-129.14,172.94-324.66,232.46-325.59C600.31,259.95,637.23,294.21,674.7,343.57
	L674.7,343.57z"/>
</svg>
