<?xml version="1.0" encoding="utf-8"?>
<!-- Generator: Adobe Illustrator 27.7.0, SVG Export Plug-In . SVG Version: 6.00 Build 0)  -->
<svg version="1.1" id="Ebene_1" xmlns="http://www.w3.org/2000/svg" xmlns:xlink="http://www.w3.org/1999/xlink" x="0px" y="0px"
	 viewBox="0 0 1144.85 1460.63" style="enable-background:new 0 0 1144.85 1460.63;" xml:space="preserve">
<style type="text/css">
	.st0{fill-rule:evenodd;clip-rule:evenodd;fill:url(#SVGID_1_);}
	.st1{fill-rule:evenodd;clip-rule:evenodd;fill:url(#SVGID_00000152949047402307883750000010848176486670033845_);}
	.st2{fill-rule:evenodd;clip-rule:evenodd;fill:url(#SVGID_00000079464889935501165880000005296282844083809965_);}
	.st3{fill-rule:evenodd;clip-rule:evenodd;fill:url(#SVGID_00000135661633440786081620000012196549296999966089_);}
	.st4{fill-rule:evenodd;clip-rule:evenodd;fill:url(#SVGID_00000032613708232467031430000018113290661737315712_);}
	.st5{fill-rule:evenodd;clip-rule:evenodd;fill:url(#SVGID_00000023976913998738769530000013311106869681938574_);}
	.st6{fill:#FFFFFF;}
	.st7{fill-rule:evenodd;clip-rule:evenodd;fill:#FFFFFF;}
	.st8{fill:#D6CAB1;}
	.st9{fill:#3A2D18;}
	.st10{fill-rule:evenodd;clip-rule:evenodd;fill:url(#SVGID_00000121250898559387973140000013809899021008242079_);}
	.st11{fill:#9F864A;}
	.st12{fill-rule:evenodd;clip-rule:evenodd;fill:url(#SVGID_00000005240590062990558380000011146119709166920843_);}
	.st13{fill-rule:evenodd;clip-rule:evenodd;fill:url(#SVGID_00000108280335064344449030000008542263653808731527_);}
	.st14{fill-rule:evenodd;clip-rule:evenodd;fill:url(#SVGID_00000065790715961651184270000013161694465816756669_);}
	.st15{fill-rule:evenodd;clip-rule:evenodd;fill:url(#SVGID_00000015328959971695930800000009583731021959432096_);}
	.st16{fill-rule:evenodd;clip-rule:evenodd;fill:url(#SVGID_00000089553354702945232260000003305228243021957822_);}
	.st17{fill:#9F864C;}
</style>
<linearGradient id="SVGID_1_" gradientUnits="userSpaceOnUse" x1="689.3907" y1="803.7747" x2="395.9333" y2="295.4914">
	<stop  offset="0" style="stop-color:#AD9553"/>
	<stop  offset="0.2499" style="stop-color:#A38A4D"/>
	<stop  offset="0.5257" style="stop-color:#9F864A"/>
	<stop  offset="0.9916" style="stop-color:#AD9553"/>
	<stop  offset="1" style="stop-color:#AD9553"/>
</linearGradient>
<path class="st0" d="M579.91,189.27c0,0-267.65,209.19-289.4,443.48C268.76,867.04,881.26,693,881.26,693
	S805.72,289.68,579.91,189.27z"/>
<g>
	<g>
		<path class="st6" d="M156.69,1191.12c22.9,0,41.56-13.57,41.56-36.47c0-45.16-60.21-34.13-60.21-60.21
			c0-9.97,7.84-14.63,17.17-14.63c8.48,0,16.11,3.82,21.84,11.02l14.63-13.35c-8.05-9.97-21.41-16.97-36.47-16.97
			c-19.93,0-37.95,12.51-37.95,35.41c0,42.19,60.21,31.8,60.21,58.73c0,10.39-8.69,16.54-20.57,16.54
			c-12.93,0-22.68-7.21-27.14-18.02l-17.81,10.81C119.38,1179.89,136.35,1191.12,156.69,1191.12L156.69,1191.12z"/>
		<path class="st6" d="M352.58,1189.43h22.48l-46.01-127.21h-23.11l-46.01,127.21h22.47l9.12-26.93h51.95L352.58,1189.43
			L352.58,1189.43z M297.67,1144.27l19.93-59.36l19.93,59.36H297.67L297.67,1144.27z"/>
		<path class="st6" d="M515.19,1124.98c10.39-5.09,16.96-14.63,16.96-28.2c0-20.99-16.33-34.56-36.67-34.56h-50.04v127.21h54.7
			c20.14,0,36.26-13.15,36.26-34.14C536.39,1139.81,527.7,1129.64,515.19,1124.98L515.19,1124.98z M511.37,1098.9
			c0,9.97-8.27,17.81-18.24,17.81H466v-35.2h27.14C503.1,1081.51,511.37,1088.72,511.37,1098.9L511.37,1098.9z M497.17,1170.13H466
			v-35.2h31.17c10.18,0,18.44,7.85,18.44,17.81C515.61,1162.72,507.34,1170.13,497.17,1170.13L497.17,1170.13z"/>
		<path class="st6" d="M693.48,1189.43h22.47l-46-127.21h-23.11l-46,127.21h22.47l9.12-26.93h51.94L693.48,1189.43L693.48,1189.43z
			 M638.57,1144.27l19.93-59.36l19.93,59.36H638.57L638.57,1144.27z"/>
		<polygon class="st6" points="807.11,1170.13 807.11,1062.22 786.33,1062.22 786.33,1189.43 851.84,1189.43 851.84,1170.13 
			807.11,1170.13 		"/>
		<path class="st6" d="M1010.42,1189.43h22.47l-46-127.21h-23.11l-46,127.21h22.47l9.12-26.93h51.94L1010.42,1189.43
			L1010.42,1189.43z M955.5,1144.27l19.93-59.36l19.93,59.36H955.5L955.5,1144.27z"/>
	</g>
	<path class="st7" d="M572.25,112.17c226.31,0,410.03,183.73,410.03,410.03S798.55,932.24,572.25,932.24
		c-226.3,0-410.03-183.73-410.03-410.03S345.94,112.17,572.25,112.17L572.25,112.17z M683.34,337.72
		c78.8,108.1,156.41,276.57,129.49,323.49c-40.65,70.85-441.34,76.93-481.14,7.47c-9.18-16.02-5.42-47.19,6.78-85.71
		c70.28,26.26,349.52,66.92,348.55-60.77c-0.61-80.94-107.77-53.19-93.8-118.15C603.01,358.51,683.02,337.81,683.34,337.72
		L683.34,337.72z M675.22,326.8c-0.33,0.09-83.4,22.07-96.65,70.31c-21.22,77.22,85.14,65.46,92.43,113.25
		c18.72,122.73-259.56,84.32-327.89,58.79c45.47-129.14,172.94-324.66,232.46-325.59C600.82,243.18,637.74,277.44,675.22,326.8
		L675.22,326.8z"/>
	<g>
		<g>
			<path class="st8" d="M627.34,1315.04h-31.98l0.66-3.67c9.44-1.04,10.48-2.22,9.82-7.86c-0.65-5.37-1.7-11.93-2.88-19.53h-27.52
				c-2.23,4.19-6.68,11.79-9.7,17.69c-4.06,7.73-2.1,8.65,7.99,9.7l-0.78,3.67h-30.01l0.92-3.67c8.39-1.04,10.09-1.83,16.51-12.58
				l40.23-69.98l4.32-0.65c5.77,38.52,8.65,56.09,11.27,71.94c1.44,9.17,2.49,10.35,12.05,11.27L627.34,1315.04z M597.2,1244.66
				h-0.26c-6.68,12.19-13.37,24.11-18.74,34.07h23.98L597.2,1244.66z"/>
			<path class="st8" d="M677.8,1302.2c-7.99,9.17-17.43,14.42-26.47,14.42c-8.78,0-14.81-6.95-14.81-19.4
				c0-10.88,4.45-23.33,13.37-31.45c6.16-5.76,14.68-9.83,20.83-9.83c5.77,0,10.09,3.01,10.22,6.03c0.13,2.49-1.84,5.9-4.45,6.81
				c-1.18,0.53-1.97,0.39-3.02-0.78c-3.01-3.67-5.9-5.64-9.96-5.64c-9.96,0-15.99,16.51-15.99,31.97c0,9.57,3.67,14.42,9.7,14.42
				c6.94,0,14.68-5.9,18.61-9.96L677.8,1302.2z"/>
			<path class="st8" d="M743.71,1303.25c-6.42,8.65-14.55,13.37-18.22,13.37c-3.67,0-5.24-3.02-2.88-14.94l1.84-9.04
				c-4.85,7.99-11.79,14.54-15.73,17.69c-4.19,3.41-9.17,6.29-13.5,6.29c-4.59,0-8.39-5.64-8.39-16.25
				c0-12.32,5.63-25.95,14.54-34.07c6.81-6.29,16.25-10.36,25.03-10.36c6.68,0,12.71,1.97,15.2,2.23
				c-2.36,8.25-6.94,28.43-9.44,43.24c-0.65,3.67-0.39,5.11,0.65,5.11c1.57,0,4.33-1.7,9.04-6.55L743.71,1303.25z M719.99,1292.37
				c2.88-3.67,6.29-10.22,7.6-15.73c1.31-4.98,2.49-9.7,2.88-12.84c-1.84-0.92-6.16-2.1-9.96-2.1c-15.46,0-22.67,19.92-22.67,36.95
				c0,5.24,1.44,8.65,4.06,8.65C705.97,1307.31,711.73,1303.25,719.99,1292.37z"/>
			<path class="st8" d="M811.85,1303.64c-6.42,8.39-14.68,13.1-18.34,13.1c-3.8,0-5.51-3.15-2.88-15.59l1.57-7.34
				c-7.6,11.14-19.92,22.93-29.22,22.93c-5.11,0-9.96-4.59-9.96-16.9c0-11.67,5.37-26.08,15.34-34.47c5.63-4.98,15.85-9.3,21.88-9.3
				c3.01,0,6.94,0.39,9.57,1.7l4.58-22.54c1.05-5.24,0.13-5.76-4.72-6.16c-1.31-0.13-4.06-0.26-4.98-0.26l0.79-3.54
				c6.16-0.65,12.71-2.1,16.64-3.41c1.97-0.53,3.02-0.92,3.8-0.92c1.05,0,1.31,1.18,0.66,3.93c-6.03,25.82-12.19,53.07-16.65,77.32
				c-0.65,3.54-0.13,4.98,0.79,4.98c1.57,0,4.85-1.96,9.57-6.94L811.85,1303.64z M789.31,1291.06c2.62-3.67,4.72-7.6,6.16-13.89
				l2.62-11.27c-1.83-2.1-6.29-4.07-12.58-4.07c-15.07,0-21.49,21.62-21.49,35.12c0,7.34,1.96,11.14,5.5,11.14
				C774.9,1308.09,782.63,1300.76,789.31,1291.06z"/>
			<path class="st8" d="M837.01,1316.61c-6.29,0-14.81-3.67-14.81-19.53c0-12.19,5.24-26.73,15.59-34.33
				c5.9-4.19,12.06-6.82,17.69-6.82c7.47,0,11.66,4.72,11.66,10.48c0,13.11-19.26,19.26-33.94,21.88c-0.13,1.58-0.27,4.19-0.27,5.51
				c0,7.6,2.1,14.94,10.22,14.94c5.9,0,12.97-3.67,19.4-10.35l1.96,3.27C853.91,1313.99,843.56,1316.61,837.01,1316.61z
				 M833.73,1283.98c19-3.41,23.46-9.44,23.59-15.46c0-4.45-2.62-6.94-6.82-6.94C846.58,1261.57,837.53,1264.46,833.73,1283.98z"/>
			<path class="st8" d="M959.27,1255.94c4.19,0,8.39,1.97,4.33,18.74c-1.84,8.12-4.59,19.26-6.56,27.52
				c-0.79,3.41-0.79,4.85,0.13,4.85c1.18,0,4.98-1.97,9.83-7.08l1.96,3.28c-6.68,8.91-15.46,13.37-19.26,13.37
				c-3.27,0-5.11-3.15-2.36-14.16c2.23-9.04,4.85-20.05,6.94-28.83c1.7-7.21,0.65-9.17-1.57-9.17c-4.19,0-15.2,7.34-24.11,21.75
				c-2.36,3.67-3.54,6.56-4.59,10.88c-1.18,5.11-2.75,11.67-3.8,17.04c-3.41,0.39-6.82,1.57-9.44,2.49l-0.92-0.92
				c3.28-13.37,6.55-25.95,9.31-39.31c1.83-8.13,1.57-11.93-1.44-11.93c-4.33,0-14.81,7.86-23.46,21.75
				c-2.23,3.54-3.41,6.95-4.45,11.01c-1.18,5.11-2.76,11.53-3.8,16.91c-3.41,0.52-6.95,1.57-9.44,2.49l-0.78-0.92
				c3.41-13.37,7.6-30.4,10.74-44.69c0.92-4.33,0.52-5.37-0.52-5.37c-1.58,0-5.11,2.76-8.39,5.9l-1.71-3.41
				c6.03-7.21,12.85-12.19,17.17-12.19c3.67,0,4.72,5.24,2.36,15.33l-1.96,8.91c12.06-16.51,24.25-24.25,30.8-24.25
				c4.59,0,7.73,3.54,4.06,20.18l-0.92,4.46C939.09,1264.19,952.46,1255.94,959.27,1255.94z"/>
			<path class="st8" d="M976.7,1268.91c4.06-6.03,11.4-12.97,16.12-12.97c4.72,0,6.29,8.39,7.07,19.79
				c0.92,11.27,1.44,22.8,1.97,31.19c5.9-8.78,19-27.39,18.87-36.95c0-2.62-1.31-4.98-1.97-6.42c-0.65-1.57-0.65-2.75,0.53-4.19
				c1.31-1.7,3.93-3.41,6.02-3.41c3.02,0,4.85,2.88,4.85,7.21c0,3.67-1.31,9.05-4.59,15.07c-10.62,19.53-32.5,50.19-47.57,66.7
				l-13.63,3.54l-1.18-3.01c13.11-8.39,23.59-19.13,30.01-27.78c-0.13-10.48-1.7-29.35-2.88-41.28c-0.79-7.99-2.1-11.01-3.41-11.01
				c-1.44,0-4.98,3.02-8.12,6.94L976.7,1268.91z"/>
		</g>
	</g>
</g>
</svg>
