<?xml version="1.0" encoding="utf-8"?>
<!-- Generator: Adobe Illustrator 27.7.0, SVG Export Plug-In . SVG Version: 6.00 Build 0)  -->
<svg version="1.1" id="Ebene_1" xmlns="http://www.w3.org/2000/svg" xmlns:xlink="http://www.w3.org/1999/xlink" x="0px" y="0px"
	 viewBox="0 0 1144.85 1110.85" style="enable-background:new 0 0 1144.85 1110.85;" xml:space="preserve">
<style type="text/css">
	.st0{fill-rule:evenodd;clip-rule:evenodd;fill:url(#SVGID_1_);}
	.st1{fill-rule:evenodd;clip-rule:evenodd;fill:#FFFFFF;}
</style>
<g>
	<linearGradient id="SVGID_1_" gradientUnits="userSpaceOnUse" x1="681.9017" y1="847.2197" x2="388.4442" y2="338.9365">
		<stop  offset="0" style="stop-color:#AD9553"/>
		<stop  offset="0.2499" style="stop-color:#A38A4D"/>
		<stop  offset="0.5257" style="stop-color:#9F864A"/>
		<stop  offset="0.9916" style="stop-color:#AD9553"/>
		<stop  offset="1" style="stop-color:#AD9553"/>
	</linearGradient>
	<path class="st0" d="M572.42,232.72c0,0-267.65,209.19-289.4,443.48c-21.76,234.29,590.75,60.25,590.75,60.25
		S798.23,333.13,572.42,232.72z"/>
	<g>
		<path class="st1" d="M572.42,145.39c226.31,0,410.03,183.73,410.03,410.03S798.73,965.46,572.42,965.46
			c-226.3,0-410.03-183.73-410.03-410.03S346.12,145.39,572.42,145.39L572.42,145.39z M683.51,370.94
			c78.8,108.1,156.41,276.57,129.49,323.49c-40.65,70.85-441.34,76.93-481.14,7.47c-9.18-16.02-5.42-47.19,6.78-85.71
			c70.28,26.26,349.52,66.92,348.55-60.77c-0.61-80.94-107.77-53.19-93.8-118.15C603.19,391.73,683.2,371.03,683.51,370.94
			L683.51,370.94z M675.39,360.02c-0.33,0.09-83.4,22.07-96.65,70.31c-21.22,77.22,85.14,65.46,92.43,113.25
			c18.72,122.73-259.56,84.32-327.89,58.79c45.47-129.14,172.94-324.66,232.46-325.59C601,276.4,637.92,310.66,675.39,360.02
			L675.39,360.02z"/>
	</g>
</g>
</svg>
