<?xml version="1.0" encoding="utf-8"?>
<!-- Generator: Adobe Illustrator 27.7.0, SVG Export Plug-In . SVG Version: 6.00 Build 0)  -->
<svg version="1.1" id="Ebene_1" xmlns="http://www.w3.org/2000/svg" xmlns:xlink="http://www.w3.org/1999/xlink" x="0px" y="0px"
	 viewBox="0 0 1144.85 1460.63" style="enable-background:new 0 0 1144.85 1460.63;" xml:space="preserve">
<style type="text/css">
	.st0{fill-rule:evenodd;clip-rule:evenodd;fill:url(#SVGID_1_);}
	.st1{fill-rule:evenodd;clip-rule:evenodd;fill:url(#SVGID_00000067938315930502993560000008649885499656132788_);}
	.st2{fill-rule:evenodd;clip-rule:evenodd;fill:url(#SVGID_00000134966319970739457660000014069788814494189217_);}
	.st3{fill-rule:evenodd;clip-rule:evenodd;fill:url(#SVGID_00000076573130293550563070000008814286681219499184_);}
	.st4{fill-rule:evenodd;clip-rule:evenodd;fill:url(#SVGID_00000091000253615534110730000009789998036439814571_);}
	.st5{fill-rule:evenodd;clip-rule:evenodd;fill:url(#SVGID_00000046301033577441528260000006256639800632214205_);}
	.st6{fill:#FFFFFF;}
	.st7{fill-rule:evenodd;clip-rule:evenodd;fill:#FFFFFF;}
	.st8{fill:#D6CAB1;}
	.st9{fill:#3A2D18;}
	.st10{fill-rule:evenodd;clip-rule:evenodd;fill:url(#SVGID_00000097468207431220865410000001438197869611591810_);}
	.st11{fill:#9F864A;}
	.st12{fill-rule:evenodd;clip-rule:evenodd;fill:url(#SVGID_00000075877859209999509990000006088977040673369260_);}
	.st13{fill-rule:evenodd;clip-rule:evenodd;fill:url(#SVGID_00000012437437265264253980000013713875014382330554_);}
	.st14{fill-rule:evenodd;clip-rule:evenodd;fill:url(#SVGID_00000091713569310642007030000010841247981119147404_);}
	.st15{fill-rule:evenodd;clip-rule:evenodd;fill:url(#SVGID_00000130640610331669783980000012622222507882791849_);}
	.st16{fill-rule:evenodd;clip-rule:evenodd;fill:url(#SVGID_00000088101470852215867990000014488590698423878568_);}
	.st17{fill:#9F864C;}
</style>
<linearGradient id="SVGID_1_" gradientUnits="userSpaceOnUse" x1="676.0324" y1="803.7747" x2="382.5749" y2="295.4914">
	<stop  offset="0" style="stop-color:#AD9553"/>
	<stop  offset="0.2499" style="stop-color:#A38A4D"/>
	<stop  offset="0.5257" style="stop-color:#9F864A"/>
	<stop  offset="0.9916" style="stop-color:#AD9553"/>
	<stop  offset="1" style="stop-color:#AD9553"/>
</linearGradient>
<path class="st0" d="M566.55,189.27c0,0-267.65,209.19-289.4,443.48S867.9,693,867.9,693S792.36,289.68,566.55,189.27z"/>
<g>
	<g>
		<path class="st6" d="M156.69,1167.45c22.9,0,41.56-13.57,41.56-36.47c0-45.16-60.21-34.13-60.21-60.21
			c0-9.97,7.84-14.63,17.17-14.63c8.48,0,16.11,3.82,21.84,11.02l14.63-13.35c-8.05-9.97-21.41-16.97-36.47-16.97
			c-19.93,0-37.95,12.51-37.95,35.41c0,42.19,60.21,31.8,60.21,58.73c0,10.39-8.69,16.54-20.57,16.54
			c-12.93,0-22.68-7.21-27.14-18.02l-17.81,10.81C119.38,1156.22,136.35,1167.45,156.69,1167.45L156.69,1167.45z"/>
		<path class="st6" d="M352.58,1165.76h22.48l-46.01-127.21h-23.11l-46.01,127.21h22.47l9.12-26.93h51.95L352.58,1165.76
			L352.58,1165.76z M297.67,1120.6l19.93-59.36l19.93,59.36H297.67L297.67,1120.6z"/>
		<path class="st6" d="M515.19,1101.31c10.39-5.09,16.96-14.63,16.96-28.2c0-20.99-16.33-34.56-36.67-34.56h-50.04v127.21h54.7
			c20.14,0,36.26-13.15,36.26-34.14C536.39,1116.14,527.7,1105.96,515.19,1101.31L515.19,1101.31z M511.37,1075.23
			c0,9.97-8.27,17.81-18.24,17.81H466v-35.2h27.14C503.1,1057.84,511.37,1065.05,511.37,1075.23L511.37,1075.23z M497.17,1146.46
			H466v-35.2h31.17c10.18,0,18.44,7.85,18.44,17.81C515.61,1139.04,507.34,1146.46,497.17,1146.46L497.17,1146.46z"/>
		<path class="st6" d="M693.48,1165.76h22.47l-46-127.21h-23.11l-46,127.21h22.47l9.12-26.93h51.94L693.48,1165.76L693.48,1165.76z
			 M638.57,1120.6l19.93-59.36l19.93,59.36H638.57L638.57,1120.6z"/>
		<polygon class="st6" points="807.11,1146.46 807.11,1038.55 786.33,1038.55 786.33,1165.76 851.84,1165.76 851.84,1146.46 
			807.11,1146.46 		"/>
		<path class="st6" d="M1010.42,1165.76h22.47l-46-127.21h-23.11l-46,127.21h22.47l9.12-26.93h51.94L1010.42,1165.76
			L1010.42,1165.76z M955.5,1120.6l19.93-59.36l19.93,59.36H955.5L955.5,1120.6z"/>
	</g>
	<path class="st7" d="M572.25,88.5c226.31,0,410.03,183.73,410.03,410.03S798.55,908.57,572.25,908.57
		c-226.3,0-410.03-183.73-410.03-410.03S345.94,88.5,572.25,88.5L572.25,88.5z M683.34,314.05
		c78.8,108.1,156.41,276.57,129.49,323.49c-40.65,70.85-441.34,76.93-481.14,7.47c-9.18-16.02-5.42-47.19,6.78-85.71
		c70.28,26.26,349.52,66.92,348.55-60.77c-0.61-80.94-107.77-53.19-93.8-118.15C603.01,334.84,683.02,314.14,683.34,314.05
		L683.34,314.05z M675.22,303.13c-0.33,0.09-83.4,22.07-96.65,70.31c-21.22,77.22,85.14,65.46,92.43,113.25
		c18.72,122.73-259.56,84.32-327.89,58.79c45.47-129.14,172.94-324.66,232.46-325.59C600.82,219.51,637.74,253.77,675.22,303.13
		L675.22,303.13z"/>
	<g>
		<path class="st8" d="M808.92,1148.44c0,1.56,0,2.4,0,2.53l-0.2,2.53l-0.39,4.86c-0.65,6.1-2.01,12.52-4.09,19.26
			c-1.82,5.97-4.21,12.13-7.2,18.48c-5.97,13.1-13.1,24.19-21.4,33.26c-0.65,0.78-1.49,1.2-2.53,1.27s-1.94-0.23-2.72-0.88
			c-0.78-0.65-1.17-1.49-1.17-2.53c0-1.03,0.32-1.94,0.97-2.72c0.13-0.13,0.2-0.26,0.2-0.39c4.41-3.89,8.56-8.56,12.45-14
			c1.94-2.73,3.63-5.38,5.06-7.98c0.52-0.91,1.29-2.26,2.33-4.09l1.17-2.14l0.97-2.14c5.96-12.19,9.59-24.18,10.89-35.98
			c0.26-2.59,0.39-4.15,0.39-4.67l0.19-2.33c0-0.26-0.03-0.68-0.1-1.27c-0.06-0.58-0.09-0.94-0.09-1.07c0-2.85-0.32-5.84-0.97-8.95
			c-0.65-2.98-1.69-5.77-3.11-8.36c-0.13-0.13-0.26-0.32-0.39-0.59c-0.13-0.26-0.26-0.48-0.39-0.68c-0.13-0.2-0.26-0.35-0.39-0.49
			l-1.36-1.75l-1.36-1.36c-0.26-0.13-0.58-0.35-0.97-0.68c-0.39-0.32-0.65-0.55-0.78-0.68c-4.28-2.98-9.79-4.28-16.53-3.89
			c-2.99,0.13-5.91,0.58-8.76,1.36c-2.85,0.78-5.77,1.82-8.75,3.11c-2.33,1.17-5.06,2.66-8.17,4.47c-2.98,1.82-5.58,3.5-7.78,5.05
			c-4.41,3.38-9.21,7.46-14.39,12.26c-8.43,8.04-16.79,17.51-25.09,28.4c-14.91,19.84-27.81,41.82-38.71,65.94
			c-5.58,12.19-10.05,24.05-13.42,35.59c-4.15,13.88-6.55,26.19-7.2,36.96c-0.13,1.82-0.2,3.44-0.2,4.86
			c-0.13,1.68-0.19,3.17-0.19,4.47c0,3.24,0.19,6.29,0.58,9.14c0.78,6.62,2.46,12.38,5.06,17.32c2.98,5.57,6.87,9.72,11.67,12.45
			c1.17,0.64,2.4,1.23,3.7,1.75c1.68,0.52,3.05,0.84,4.09,0.97c0.26,0,0.68,0.03,1.26,0.1c0.58,0.06,0.91,0.1,0.97,0.1
			c0.06,0,0.39,0,0.97,0c0.58,0,1,0,1.26,0h2.14h1.17c0.13,0,0.52-0.07,1.17-0.2c5.57-0.52,11.41-2.08,17.5-4.67
			c5.19-2.21,10.7-5.19,16.53-8.95c9.85-6.49,19.65-14.59,29.37-24.31c8.68-8.69,17.05-18.29,25.09-28.79
			c8.29-10.89,15.23-21.59,20.81-32.1c0.52-1.03,1.29-1.29,2.33-0.78c0.91,0.52,1.17,1.24,0.78,2.14
			c-5.19,10.63-11.99,21.78-20.42,33.45c-4.02,5.58-7.97,10.7-11.87,15.37c-4.15,5.06-8.5,9.92-13.03,14.59
			c-9.73,10.11-19.58,18.61-29.57,25.48c-5.84,4.02-11.61,7.26-17.31,9.73c-6.88,2.98-13.42,4.86-19.65,5.64c-0.65,0-1.04,0-1.17,0
			l-1.36,0.2h-2.52c-0.26,0-0.56,0-0.88,0c-0.32,0-0.65,0-0.97,0c-0.32,0-0.62,0-0.88,0c-1.29-0.13-2.14-0.2-2.52-0.2
			c-1.56-0.26-3.38-0.65-5.45-1.17c-1.69-0.65-3.37-1.36-5.05-2.14c-5.97-3.37-10.83-8.5-14.59-15.37c-2.99-5.58-5-12.06-6.03-19.45
			c-0.52-3.37-0.78-6.81-0.78-10.31c0-1.43,0.06-3.05,0.19-4.86c0-1.43,0.06-3.05,0.2-4.86c0.52-11.54,2.91-24.51,7.2-38.9
			c3.5-11.8,8.1-23.99,13.81-36.57c5.18-11.54,11.21-23.08,18.09-34.63c6.87-11.67,14.13-22.49,21.78-32.48
			c4.15-5.45,8.3-10.5,12.45-15.17c4.93-5.57,9.46-10.31,13.61-14.2c5.45-4.93,10.57-9.07,15.37-12.45c2.34-1.68,5.12-3.5,8.37-5.44
			c3.11-1.82,6.16-3.31,9.14-4.47c3.24-1.43,6.42-2.53,9.53-3.31c3.5-0.78,6.94-1.23,10.31-1.36c1.29-0.13,2.14-0.13,2.53,0
			c0.13,0,0.52,0,1.17,0c0.64,0,1.17,0.07,1.56,0.2l2.53,0.19l2.53,0.59c3.76,0.91,7.06,2.4,9.92,4.47l1.94,1.75l1.94,1.95
			l1.75,2.14c0.13,0.26,0.26,0.49,0.39,0.68c0.13,0.19,0.23,0.36,0.29,0.48c0.06,0.13,0.16,0.33,0.3,0.59
			c0.13,0.26,0.26,0.46,0.39,0.59c1.68,3.11,2.85,6.42,3.5,9.92S808.92,1145.2,808.92,1148.44z"/>
		<path class="st8" d="M832.45,1265.73c0.78,0.65,0.85,1.36,0.2,2.14c-0.78,1.03-1.88,2.33-3.31,3.89c-1.04,1.04-2.21,2.21-3.5,3.5
			c-2.33,2.34-4.73,4.6-7.2,6.81c-2.6,2.47-5.06,4.67-7.39,6.62c-1.43,1.17-2.72,2.21-3.89,3.11c-1.69,1.29-3.12,2.27-4.28,2.92
			c-0.52,0.39-0.97,0.65-1.36,0.78c-0.52,0.26-1.04,0.45-1.56,0.59c-0.13,0-0.32,0-0.58,0c-0.26,0.13-0.52,0.19-0.78,0.19
			c-0.39-0.13-0.71-0.19-0.97-0.19c-0.13,0-0.39-0.07-0.78-0.2c-0.78-0.39-1.43-0.97-1.94-1.75c-0.65-0.91-1.1-2.14-1.36-3.7
			c0-0.91,0.07-1.94,0.2-3.12c0.26-2.59,1.1-5.97,2.53-10.11c0.91-2.46,2.07-5.32,3.5-8.55c-0.39-0.13-0.65-0.39-0.78-0.78
			c-0.52-1.04-0.39-2.01,0.39-2.92l0.19-0.2c0.26-0.26,0.65-0.64,1.17-1.17c0.65-1.03,1.04-1.68,1.17-1.94
			c0.91-1.29,1.94-2.59,3.11-3.89l0.19-0.2c0.78-0.64,1.68-0.91,2.73-0.78c1.03,0.13,1.88,0.59,2.52,1.36
			c1.04,1.17,1.17,2.53,0.39,4.09c-0.13,0.26-0.32,0.62-0.58,1.07c-0.26,0.46-0.46,0.85-0.59,1.17c-0.13,0.32-0.32,0.68-0.58,1.07
			c-0.26,0.39-0.46,0.71-0.59,0.97c-0.78,1.68-1.49,3.11-2.14,4.28c-1.68,3.24-3.05,6.16-4.08,8.76c-1.56,3.5-2.47,6.35-2.73,8.56
			c-0.13,0.78-0.19,1.42-0.19,1.94c0,0.13,0,0.26,0,0.39c0.26,0,0.58-0.13,0.97-0.39c1.04-0.52,2.34-1.3,3.89-2.33
			c1.17-0.78,2.46-1.69,3.89-2.73c2.33-1.82,4.86-3.82,7.58-6.03c2.47-2.21,4.86-4.35,7.2-6.42c1.29-1.17,2.52-2.27,3.69-3.31
			c1.43-1.43,2.53-2.53,3.31-3.31v-0.19C830.77,1264.95,831.55,1264.95,832.45,1265.73z M810.67,1254.64
			c-0.91-0.39-1.56-1.03-1.94-1.94c-0.39-0.91-0.39-1.88,0-2.92c0.91-1.94,2.07-4.02,3.5-6.22c0.52-0.78,1.29-1.26,2.33-1.46
			c1.03-0.19,1.97-0.03,2.82,0.49c0.84,0.52,1.36,1.3,1.56,2.33c0.19,1.04-0.03,2.01-0.68,2.92c-1.17,1.69-2.08,3.31-2.73,4.86
			c-0.65,1.56-1.75,2.33-3.3,2.33C811.71,1255.03,811.19,1254.9,810.67,1254.64z"/>
		<path class="st8" d="M882.05,1265.44c1.04,0.45,1.29,1.14,0.78,2.04v0.19c-1.82,3.63-3.7,7-5.64,10.11
			c-2.08,3.37-4.21,6.55-6.42,9.53c-5.19,7-10.31,12.77-15.37,17.32c-3.5,2.98-6.74,5.32-9.73,7c-2.08,1.17-4.02,2.01-5.84,2.53
			c-0.64,0.13-1.23,0.26-1.75,0.39h-0.39c-0.39,0-0.65,0-0.78,0c-0.39,0-0.78-0.06-1.17-0.19c-1.3-0.27-2.27-0.85-2.92-1.75
			c-0.65-0.78-1.04-1.75-1.17-2.92c-0.13-1.04,0-2.33,0.39-3.89c0.26-1.04,0.58-2.08,0.97-3.12c0.65-2.07,1.43-3.95,2.33-5.64
			c1.17-2.2,3.05-5.58,5.65-10.11c0.51-0.78,1.17-1.82,1.94-3.11c0.78-1.3,1.49-2.5,2.14-3.6c0.65-1.1,1.23-2.11,1.75-3.02
			c1.17-1.94,2.07-3.56,2.72-4.86c0-0.13,0.06-0.27,0.2-0.39v-0.19h-0.59c-2.59-0.52-4.8-1.17-6.61-1.94
			c-1.3-0.52-2.46-1.24-3.5-2.14c-1.17-1.03-2.07-2.33-2.72-3.89c-0.52-1.43-0.64-2.92-0.39-4.47c0-0.52,0.07-0.84,0.2-0.97v-0.78
			c0.13-0.78,0.26-1.29,0.39-1.56c0.91-4.02,2.66-7.91,5.25-11.67c2.33-3.63,5.18-6.62,8.55-8.95c0.26-0.26,0.65-0.59,1.17-0.97
			c0.64-0.39,1.17-0.71,1.56-0.97c1.03-0.52,2.14-0.97,3.31-1.36c1.42-0.26,2.72-0.39,3.89-0.39c1.56,0.13,2.85,0.52,3.89,1.17
			c0.65,0.39,1.29,0.91,1.94,1.56c0.52,0.65,0.91,1.24,1.17,1.75c0.52,1.3,0.78,2.66,0.78,4.09c-0.13,1.94-0.78,4.15-1.95,6.62
			l-0.19,0.19c-1.56,2.33-3.18,4.41-4.86,6.23c-1.56,1.68-3.5,3.44-5.84,5.25c-1.68,1.43-3.76,2.91-6.22,4.47l-0.39,0.39
			c0.64,0.13,1.17,0.26,1.56,0.39c0.78,0,1.68,0.06,2.72,0.19l1.36,0.2h0.19c0.26,0,0.52,0,0.78,0c0.65,0.13,1.23,0.39,1.75,0.78
			c0.65,0.52,1.17,1.1,1.56,1.75c0.13,0.52,0.26,1.04,0.39,1.56c0.13,0.64,0.13,1.29,0,1.94c-0.13,0.39-0.26,0.78-0.39,1.17
			c-0.13,0.52-0.32,1.1-0.58,1.75c-0.26,0.91-0.71,1.88-1.36,2.91c-0.65,1.43-1.62,3.18-2.92,5.25c-0.52,0.91-1.14,1.91-1.85,3.02
			c-0.71,1.1-1.49,2.3-2.33,3.6c-0.85,1.29-1.46,2.27-1.85,2.92c-2.21,3.5-4.15,6.74-5.83,9.73c-1.29,2.33-2.14,3.89-2.53,4.67
			c-0.39,0.91-0.71,1.68-0.97,2.33c-0.13,0.39-0.19,0.78-0.19,1.17c0.26,0,0.45,0,0.58,0c1.43-0.27,3.05-0.72,4.86-1.36
			c2.85-1.3,5.9-3.24,9.15-5.84c5.44-4.41,10.57-9.79,15.37-16.14c2.46-3.24,4.6-6.35,6.42-9.34c2.33-3.63,4.15-6.94,5.44-9.92
			C880.3,1265.21,881.01,1264.98,882.05,1265.44z M837.32,1308.72h0.19h-0.39H837.32z M843.74,1259.5v0.59v0.19
			c1.29-0.78,2.14-1.29,2.53-1.56c2.2-1.29,4.21-2.65,6.03-4.09c1.94-1.56,3.69-3.11,5.25-4.67c1.68-1.94,3.04-3.76,4.09-5.45
			c0.39-0.91,0.64-1.68,0.78-2.33c0.26-0.64,0.39-1.29,0.39-1.94c-0.13-0.65-0.26-1.17-0.39-1.56c-0.27-0.26-0.59-0.52-0.97-0.78
			c-0.91-0.39-2.01-0.32-3.31,0.19c-0.52,0.26-1.1,0.59-1.75,0.97c-0.27,0.13-0.52,0.32-0.78,0.58c-0.39,0.39-0.71,0.65-0.97,0.78
			c-2.59,2.6-4.8,5.32-6.62,8.17c-1.94,2.99-3.24,6.03-3.89,9.15c0,0.13-0.07,0.52-0.2,1.17L843.74,1259.5z"/>
		<path class="st8" d="M931.36,1265.34c1.1,0.13,1.58,0.78,1.46,1.94c-0.13,0.39-0.33,0.91-0.59,1.56
			c-0.13,0.39-0.32,0.78-0.59,1.17c-0.26,0.65-0.65,1.29-1.17,1.94c-0.78,1.3-1.68,2.59-2.72,3.89c-1.82,2.46-3.76,4.86-5.84,7.2
			c-4.8,5.45-9.21,9.79-13.23,13.03c-2.72,2.07-5.38,3.82-7.97,5.25c-1.82,0.91-3.44,1.56-4.86,1.94c-1.94,0.65-3.82,0.84-5.64,0.59
			c-1.04-0.13-2.07-0.46-3.11-0.97c-0.52-0.13-1.04-0.39-1.56-0.78l-0.58-0.39l-0.39-0.39l-0.39-0.39
			c-0.91-0.78-1.56-1.82-1.94-3.12c-0.39-0.91-0.65-1.88-0.78-2.91c-0.26-1.69-0.26-3.5,0-5.45c0.13-1.69,0.32-3.31,0.58-4.86
			c0.78-3.37,1.75-6.48,2.92-9.34c0.52-1.56,1.1-3.05,1.75-4.47c0.65-1.43,1.36-2.79,2.14-4.09c1.56-2.98,3.24-5.7,5.06-8.17
			c2.33-3.12,4.6-5.58,6.81-7.39c1.56-1.29,3.17-2.21,4.86-2.72c2.33-0.91,4.54-0.97,6.62-0.2c0.64,0.26,1.26,0.65,1.85,1.17
			c0.58,0.52,1,1.17,1.26,1.94c0.52,0.91,0.78,2.01,0.78,3.31c-0.13,1.69-0.52,3.44-1.17,5.25c-1.17,2.99-2.72,5.84-4.67,8.56
			c-1.04,1.43-2.14,2.66-3.3,3.7c-1.3,1.29-2.66,2.27-4.09,2.92c-1.04,0.52-1.82,0.26-2.34-0.78c-0.39-0.78-0.19-1.43,0.59-1.94
			l0.19-0.2c1.82-1.17,3.57-3.18,5.25-6.03c1.56-2.72,2.66-5.32,3.31-7.78c0.39-1.42,0.59-2.59,0.59-3.5c0-0.52-0.07-0.91-0.2-1.17
			l-0.19,0.19c-0.65-0.13-1.36,0-2.14,0.39c-0.91,0.39-1.88,1.04-2.92,1.94c-1.68,1.69-3.44,3.83-5.25,6.42
			c-1.43,2.21-2.79,4.67-4.09,7.39c-2.72,5.84-4.67,11.22-5.83,16.14c-0.39,1.68-0.65,3.05-0.78,4.09c-0.26,1.43-0.32,2.66-0.2,3.7
			c0,0.52,0.07,0.97,0.2,1.36c0.13,0.26,0.26,0.52,0.39,0.78v0.19c0.13,0,0.19,0.06,0.19,0.2c0.26,0.13,0.46,0.26,0.59,0.39
			c0.39,0.26,0.78,0.45,1.17,0.58c1.68,0.52,4.02,0.2,7-0.97c2.2-0.91,4.67-2.33,7.39-4.28c4.67-3.24,9.15-7.13,13.42-11.67
			c2.33-2.46,4.28-4.73,5.84-6.81c1.03-1.17,1.94-2.33,2.72-3.5c0.39-0.78,0.71-1.36,0.97-1.75c0.26-0.39,0.45-0.75,0.58-1.07
			c0.13-0.32,0.2-0.55,0.2-0.68C929.64,1265.66,930.26,1265.21,931.36,1265.34z"/>
		<path class="st8" d="M993.51,1196.48c0.39,0.91,0.59,2.08,0.59,3.5c-0.13,0.78-0.33,1.62-0.59,2.53
			c-0.13,0.78-0.32,1.56-0.59,2.33l-0.78,1.95c0,0.26-0.26,0.91-0.78,1.94c-0.39,0.91-0.65,1.56-0.78,1.94
			c-0.91,2.21-2.14,4.73-3.7,7.58c-4.93,8.82-11.22,17.9-18.87,27.23c-4.02,4.93-7.65,9.01-10.89,12.26
			c-2.21,2.21-4.21,4.09-6.03,5.64c-1.43,1.17-2.53,2.07-3.31,2.72c-0.65,0.39-1.17,0.71-1.56,0.97c-0.52,1.68-0.97,3.24-1.36,4.67
			c-1.68,5.7-2.85,10.76-3.5,15.17c-0.13,1.29-0.2,2.47-0.2,3.5c0,1.29,0.13,2.33,0.39,3.11c0,0.26,0.07,0.52,0.2,0.78
			c0.13,0,0.32,0,0.59,0c0.52,0,1.03-0.06,1.56-0.19c1.68-0.39,3.89-1.3,6.61-2.73c2.21-1.17,4.41-2.46,6.62-3.89
			c4.54-3.11,8.75-6.35,12.64-9.73c1.94-1.69,3.82-3.5,5.64-5.44c0.91-1.04,1.75-2.01,2.53-2.92c0.91-1.17,1.62-2.21,2.14-3.12
			v-0.19c0.52-0.91,1.23-1.1,2.14-0.59c0.91,0.39,1.17,1.04,0.78,1.95c-0.78,2.2-2.21,4.73-4.28,7.58
			c-1.43,1.81-3.24,3.89-5.45,6.22c-4.02,4.15-8.23,7.85-12.64,11.09c-2.46,1.82-4.8,3.37-7,4.67c-1.43,0.78-2.73,1.49-3.89,2.14
			c-1.56,0.65-2.98,1.17-4.28,1.56c-0.91,0.26-1.82,0.39-2.72,0.39c-1.17,0.13-2.21,0.06-3.12-0.19c-0.78-0.26-1.42-0.59-1.94-0.97
			c-0.52-0.39-1.03-0.84-1.56-1.36c-0.65-0.91-1.1-1.89-1.36-2.92c-0.52-1.43-0.78-3.12-0.78-5.06c0-1.43,0.07-2.91,0.2-4.47
			c0.39-4.41,1.49-9.92,3.31-16.53c1.43-5.05,3.17-10.31,5.25-15.76c1.81-4.67,3.95-9.79,6.42-15.37
			c2.72-5.57,5.25-10.43,7.58-14.59c2.98-5.32,5.96-10.05,8.95-14.2c1.81-2.46,3.56-4.67,5.25-6.61c2.2-2.46,4.34-4.47,6.42-6.03
			c1.43-1.04,2.79-1.88,4.09-2.53c1.68-0.78,3.37-1.29,5.05-1.56h0.59c0.39,0,0.64,0,0.78,0c0.78,0,1.43,0.13,1.94,0.39
			c0.78,0.13,1.49,0.52,2.14,1.17C992.6,1195.06,993.12,1195.7,993.51,1196.48z M986.7,1202.71c0.13-0.52,0.26-1.04,0.39-1.56
			c0.13-0.52,0.19-0.97,0.19-1.36c-1.68,0.26-3.57,1.24-5.64,2.92c-1.68,1.29-3.44,3.05-5.25,5.25c-1.56,1.82-3.11,3.82-4.67,6.03
			c-2.72,3.89-5.51,8.43-8.36,13.61c-4.93,9.08-9.34,18.74-13.23,28.99c-0.52,1.29-1.04,2.53-1.56,3.69
			c1.68-1.56,3.44-3.37,5.25-5.44c3.76-4.28,7.2-8.49,10.31-12.64c2.85-3.89,5.9-8.23,9.14-13.03c2.98-4.67,5.64-9.27,7.97-13.81
			c1.43-2.85,2.53-5.25,3.31-7.2c0.13-0.39,0.39-0.97,0.78-1.75c0.39-1.04,0.65-1.68,0.78-1.95L986.7,1202.71z"/>
		<path class="st8" d="M995.65,1267.28c2.2-0.39,4.41-1.29,6.61-2.72c2.07-1.29,3.96-2.85,5.64-4.67c1.68-1.68,3.24-3.56,4.67-5.64
			c0.64-1.03,1.29-2.07,1.94-3.11c0.13-0.39,0.39-0.97,0.78-1.75l0.2-0.58l0.19-0.78l0.2-0.2c0.13-0.64,0.13-1.23,0-1.75
			c-0.26-0.39-0.52-0.58-0.78-0.58c-0.27,0-0.52,0.07-0.78,0.19c-0.65,0.13-1.24,0.46-1.75,0.97c-0.13,0-0.32,0.13-0.59,0.39
			c-0.13,0.13-0.26,0.26-0.39,0.39c-0.52,0.52-0.84,0.85-0.97,0.97c-0.13,0.13-0.85,0.91-2.14,2.33c-1.3,1.56-2.66,3.24-4.09,5.05
			c-2.72,3.5-5.12,7.07-7.2,10.7c-1.04,2.07-1.94,4.02-2.72,5.84c-0.91,2.07-1.49,3.95-1.75,5.64c-0.13,0.26-0.2,0.71-0.2,1.36
			c0,0.26-0.06,0.71-0.19,1.36l0.19,0.58c0,0.26,0,0.45,0,0.59l0.2,0.59l0.19,0.58v0.2l0.2,0.39l0.19,0.39
			c0.39,0.39,0.59,0.64,0.59,0.78l0.59,0.39l0.39,0.19l0.19,0.2c0.13,0,0.2,0.06,0.2,0.19h0.39c0.52,0.26,1.29,0.32,2.33,0.2
			c0.78-0.13,1.68-0.39,2.72-0.78c1.68-0.65,3.57-1.56,5.64-2.72c3.24-1.95,6.87-4.47,10.89-7.59c3.24-2.59,6.62-5.51,10.11-8.75
			c0.78-0.78,1.56-0.71,2.34,0.19c0.64,0.78,0.64,1.49,0,2.14c-3.5,3.63-6.81,6.81-9.92,9.53c-3.89,3.5-7.52,6.35-10.89,8.55
			c-2.33,1.43-4.41,2.53-6.23,3.31c-1.43,0.65-2.66,1.04-3.69,1.17c-1.69,0.39-3.18,0.45-4.47,0.2c-0.65-0.13-1.1-0.26-1.36-0.39
			c-0.26-0.13-0.45-0.2-0.59-0.2l-0.39-0.39l-0.97-0.39c-0.13-0.13-0.45-0.39-0.97-0.78c-0.13-0.13-0.64-0.71-1.56-1.75
			c-0.13-0.13-0.32-0.45-0.59-0.97l-0.39-0.39l-0.19-0.59c-0.26-0.52-0.39-0.84-0.39-0.97l-0.39-1.17c-0.13-0.27-0.2-0.59-0.2-0.97
			l-0.19-1.17c0-1.43,0.06-2.72,0.19-3.89c0.52-4.02,2.08-8.62,4.67-13.81c1.94-4.02,4.41-8.04,7.39-12.06
			c1.43-1.94,2.85-3.76,4.28-5.44c0.91-1.04,1.75-1.94,2.53-2.72c0.52-0.39,0.97-0.78,1.36-1.17l1.75-1.36
			c0.78-0.52,1.49-0.84,2.14-0.97c0.52-0.26,1.29-0.52,2.33-0.78c2.07-0.39,3.95,0,5.64,1.17c1.68,1.17,2.66,2.79,2.92,4.86
			c0.26,1.69,0,3.31-0.78,4.86l0.19-0.19l-0.58,1.17l-0.39,0.97c-0.39,0.65-0.78,1.29-1.17,1.94c-0.78,1.17-1.56,2.27-2.33,3.31
			c-1.82,2.07-3.7,4.02-5.64,5.83c-2.08,1.94-4.28,3.57-6.61,4.86c-2.73,1.56-5.38,2.53-7.98,2.92c-1.04,0.13-1.68-0.32-1.94-1.36
			C994.16,1268.19,994.61,1267.54,995.65,1267.28z"/>
	</g>
</g>
</svg>
